<?xml version="1.0" encoding="utf-8"?>
<!-- Generator: Adobe Illustrator 22.0.1, SVG Export Plug-In . SVG Version: 6.00 Build 0)  -->
<svg version="1.1" xmlns="http://www.w3.org/2000/svg" xmlns:xlink="http://www.w3.org/1999/xlink" x="0px" y="0px"
	 viewBox="0 0 2272 1872" style="enable-background:new 0 0 2272 1872;" xml:space="preserve">
<style type="text/css">
	.st0{fill:none;stroke:#FFE9CD;stroke-miterlimit:10;}
	.st1{fill:#FFE9CD;}
	.st2{fill:#EEEAF4;}
	.st3{fill:#5A7B8E;}
	.st4{fill:#83A2B7;}
	.st5{fill:#A4C2DB;}
	.st6{fill:#658699;}
	.st7{fill:#415D6B;}
	.st8{fill:#B9F4FF;}
	.st9{opacity:0.54;}
	.st10{fill:#FFFFFF;}
	.st11{opacity:0.68;}
	.st12{clip-path:url(#SVGID_2_);}
	.st13{fill:#D65629;}
	.st14{fill:#053444;}
	.st15{fill:#2A7D93;}
	.st16{fill:#1F6777;}
	.st17{fill:#FF7842;}
	.st18{fill:#3C3B6B;}
	.st19{fill:#0B4D5E;}
	.st20{fill:#FF675F;}
	.st21{fill:#E74C3C;}
	.st22{fill:#052B35;}
	.st23{fill:#4F4A82;}
	.st24{fill:#2C7A8C;}
	.st25{fill:#2E2E56;}
	.st26{fill:#54548E;}
	.st27{fill:#2E2E54;}
	.st28{fill:#FF9D7B;}
</style>
<g id="Background">
	<g>
		<g>
			<g>
				<g>
					<g>
						<g>
							<g>
								<path class="st0" d="M2272.4,1872.5H-0.5V-0.5h2272.9V1872.5z"/>
							</g>
						</g>
					</g>
				</g>
			</g>
		</g>
		<g>
			<g>
				<g>
					<g>
						<g>
							<g>
								<path class="st1" d="M2272.4,871.6H-0.5V589.7h2272.9V871.6z"/>
							</g>
						</g>
					</g>
				</g>
			</g>
		</g>
		<g>
			<g>
				<g>
					<g>
						<g>
							<g>
								<path class="st1" d="M2272.4,470.9H-0.5V305h2272.9V470.9z"/>
							</g>
						</g>
					</g>
				</g>
			</g>
		</g>
		<g>
			<g>
				<g>
					<g>
						<g>
							<g>
								<rect y="1527.9" class="st2" width="2271.9" height="344.1"/>
							</g>
						</g>
					</g>
				</g>
			</g>
		</g>
		<g>
			<rect y="1458.9" class="st3" width="2272" height="413.1"/>
		</g>
		<g>
			<rect y="1458.9" class="st4" width="2272" height="211.2"/>
		</g>
		<g>
			<rect y="1379.6" class="st5" width="2272" height="211.2"/>
		</g>
		<g>
			<g>
				<path class="st6" d="M2162.4,1405.9h-537.8c-13,0-23.5,10.5-23.5,23.5V1541c0,13,10.5,23.5,23.5,23.5h537.8
					c13,0,23.5-10.5,23.5-23.5v-111.7C2185.9,1416.4,2175.4,1405.9,2162.4,1405.9z"/>
			</g>
			<g>
				<path class="st4" d="M2184.5,1405.9h-537.8c-13,0-23.5,10.5-23.5,23.5V1541c0,13,10.5,23.5,23.5,23.5h537.8
					c13,0,23.5-10.5,23.5-23.5v-111.7C2208,1416.4,2197.5,1405.9,2184.5,1405.9z"/>
			</g>
			<g>
				<g>
					<path class="st7" d="M2005.5,1458.9h-178.5c-4.3,0-7.8,3.5-7.8,7.8v37.1c0,4.3,3.5,7.8,7.8,7.8h178.5c4.3,0,7.8-3.5,7.8-7.8
						v-37.1C2013.2,1462.4,2009.8,1458.9,2005.5,1458.9z"/>
				</g>
				<g>
					<path class="st3" d="M2021.9,1458.9h-178.5c-4.3,0-7.8,3.5-7.8,7.8v37.1c0,4.3,3.5,7.8,7.8,7.8h178.5c4.3,0,7.8-3.5,7.8-7.8
						v-37.1C2029.6,1462.4,2026.2,1458.9,2021.9,1458.9z"/>
				</g>
			</g>
		</g>
		<g>
			<g>
				<path class="st6" d="M1485.3,1405.9H947.5c-13,0-23.5,10.5-23.5,23.5V1541c0,13,10.5,23.5,23.5,23.5h537.8
					c13,0,23.5-10.5,23.5-23.5v-111.7C1508.7,1416.4,1498.2,1405.9,1485.3,1405.9z"/>
			</g>
			<g>
				<path class="st4" d="M1507.4,1405.9H969.6c-13,0-23.5,10.5-23.5,23.5V1541c0,13,10.5,23.5,23.5,23.5h537.8
					c13,0,23.5-10.5,23.5-23.5v-111.7C1530.8,1416.4,1520.3,1405.9,1507.4,1405.9z"/>
			</g>
			<g>
				<g>
					<path class="st7" d="M1328.3,1458.9h-178.5c-4.3,0-7.8,3.5-7.8,7.8v37.1c0,4.3,3.5,7.8,7.8,7.8h178.5c4.3,0,7.8-3.5,7.8-7.8
						v-37.1C1336.1,1462.4,1332.6,1458.9,1328.3,1458.9z"/>
				</g>
				<g>
					<path class="st3" d="M1344.7,1458.9h-178.5c-4.3,0-7.8,3.5-7.8,7.8v37.1c0,4.3,3.5,7.8,7.8,7.8h178.5c4.3,0,7.8-3.5,7.8-7.8
						v-37.1C1352.5,1462.4,1349,1458.9,1344.7,1458.9z"/>
				</g>
			</g>
		</g>
		<g>
			<g>
				<path class="st5" d="M2001.1,72.7h-553c-27.5,0-49.8,22.3-49.8,49.8v1179.4c0,27.5,22.3,49.8,49.8,49.8h553
					c27.5,0,49.8-22.3,49.8-49.8V122.5C2050.9,95,2028.6,72.7,2001.1,72.7z"/>
			</g>
			<g>
				<path class="st8" d="M2028.7,72.7h-553c-27.5,0-49.8,22.3-49.8,49.8v1179.4c0,27.5,22.3,49.8,49.8,49.8h553
					c27.5,0,49.8-22.3,49.8-49.8V122.5C2078.5,95,2056.2,72.7,2028.7,72.7z"/>
			</g>
			<g class="st9">
				<path class="st10" d="M1526.5,524.3L1526.5,524.3c10.4,20.9,40.1,21.3,51,0.6l238.1-452.3h-80.3
					c-92.8,188.3-184.7,376.7-208.9,426.4C1522.5,507.1,1522.5,516.4,1526.5,524.3z"/>
			</g>
			<g class="st9">
				<path class="st10" d="M2001.2,165.2l-20.5-8.8c-13.6-5.8-29.3-0.4-36.4,12.5c-69.2,126.2-370.9,745.1-417.9,841.5
					c-3.9,8-3.9,17.3,0.1,25.3v0c10.4,20.9,40.1,21.3,51,0.6l437.8-831.4C2023,190.1,2016.5,171.8,2001.2,165.2z"/>
			</g>
			<g class="st9">
				<path class="st10" d="M2001.2,434.8l-20.5-8.8c-13.6-5.8-29.3-0.4-36.4,12.5c-69.2,126.2-370.9,745.1-417.9,841.5
					c-3.9,8-3.9,17.3,0.1,25.3v0c10.4,20.9,40.1,21.3,51,0.6l437.8-831.4C2023,459.7,2016.5,441.4,2001.2,434.8z"/>
			</g>
		</g>
		<g>
			<g>
				<g>
					<path class="st5" d="M813.5,72.7h-553c-27.5,0-49.8,22.3-49.8,49.8v1179.4c0,27.5,22.3,49.8,49.8,49.8h553
						c27.5,0,49.8-22.3,49.8-49.8V122.5C863.3,95,841,72.7,813.5,72.7z"/>
				</g>
				<g>
					<path class="st8" d="M841.2,72.7h-553c-27.5,0-49.8,22.3-49.8,49.8v1179.4c0,27.5,22.3,49.8,49.8,49.8h553
						c27.5,0,49.8-22.3,49.8-49.8V122.5C891,95,868.7,72.7,841.2,72.7z"/>
				</g>
			</g>
			<g class="st11">
				<defs>
					<path id="SVGID_1_" class="st11" d="M841.2,72.7h-553c-27.5,0-49.8,22.3-49.8,49.8v1179.4c0,27.5,22.3,49.8,49.8,49.8h553
						c27.5,0,49.8-22.3,49.8-49.8V122.5C891,95,868.7,72.7,841.2,72.7z"/>
				</defs>
				<clipPath id="SVGID_2_">
					<use xlink:href="#SVGID_1_"  style="overflow:visible;"/>
				</clipPath>
				<g class="st12">
					<g>
						<g>
							<path class="st13" d="M659.1,610.1l-23.2-41.5l-34-3.5L587,575.9l-5.9,41.6c0,0,41.3,25.8,61.5,24.9S659.1,610.1,659.1,610.1
								z"/>
						</g>
						<g>
							<path class="st13" d="M598,533.1c-2-2.8-4-5.7-5.9-8.5l28.1-20.6c-23.4-4.1-32.6-59-12.2-64.5c20.4-5.5,40.7,15.7,40.7,15.7
								s8.9,8.2,13,13.2c3.3,4-7.8,111.1-14.1,114.3c-1.4,0.7-3.5,1.2-6,1.5C625.7,568.4,611.1,551.3,598,533.1z"/>
						</g>
						<g>
							<path class="st14" d="M564.2,445.3c1-3,2.9-5.5,5.6-7.3c25.7-17.1,53.5-8.7,53.5-8.7s55.3,80.3,70.2,102.7
								c1.6,2.4,2.7,5.2,2.9,8.1c0.5,7.4-3.9,14-10.5,16.6l-26.4,10l-99-110L564.2,445.3z"/>
						</g>
						<g>
							<path class="st15" d="M555.6,434.8c1.6-1.6,3.6-2.8,5.8-3.4l37.1-9.8c3.2-0.8,6.5,0.2,8.7,2.6c3,3.3,6.8,7.6,7,8.1
								l-48.6,21.5L552.4,438L555.6,434.8z"/>
						</g>
						<g>
							<path class="st16" d="M552.4,438l3.1-3.2c0.5-0.5,1.1-1,1.7-1.5c3.1,3,11.5,11.2,17,16.6l-8.7,3.9L552.4,438z"/>
						</g>
						<g>
							<path class="st17" d="M1261.1,722.4c-27.7,132.2-320.6,217.8-320.6,217.8l-300-386.5l31.7-13.5l243.6,182.2l75.5,71.5
								l224.1-228.8C1215.4,565.1,1294.6,562.8,1261.1,722.4z"/>
						</g>
						<g>
							<path class="st17" d="M672.1,540.2l3.3-37.5l-8.6-33.6l-18.8-3.9c0,0-43.8-8.2-51.1,0c-7.3,8.2-16.7,13.4-15.7,14.5
								c1,1.1,7.8,8.7,7.8,8.7l14.6-0.1c0,0,7.3,20.2,13.6,31.4c6.3,11.2,23.3,34,23.3,34L672.1,540.2z"/>
						</g>
						<g>
							<path class="st17" d="M467.1,428.1c0,0-34.2-17.1-50.3,4c-17.1,22.4,9.1,104.6,50.3,82.5V428.1z"/>
						</g>
						<g>
							<g>
								<path class="st18" d="M604.6,401c-3.8,0.9-6.4-1.2-9.8-2.3c-3.2-1.1-7.1-1.8-10.5-1.9c-3.5-0.1-4.5-5.6-0.8-6.3
									c3.6-0.7,7.1,0,10.6,1.1c1.4,0.5,2.7,1,4,1.6c1.8,1,3.8,3,6,3.2C606.4,396.7,607.3,400.3,604.6,401L604.6,401z"/>
							</g>
						</g>
						<g>
							<g>
								<path class="st18" d="M595.7,407.4c-5.6,0-11-0.8-16.6-1.1c-4.3-0.3-4.4-6.7,0-6.7c5.8-0.1,10.9,2.8,16.6,3
									C598.8,402.6,598.8,407.4,595.7,407.4L595.7,407.4z"/>
							</g>
						</g>
						<g>
							<g>
								<path class="st18" d="M586.4,418c-4.8,0.5-9.4,0.7-14.2,0c-2.7-0.4-2.7-4.9,0-5.4c4.8-0.8,9.4-0.6,14.2,0
									C589.9,413,589.9,417.6,586.4,418L586.4,418z"/>
							</g>
						</g>
						<g>
							<g>
								<path class="st18" d="M575,438.3c-1.6,0.2-3.3,0.3-4.8,1c-1.6,0.8-2.7,1.7-4.6,1.7c-3.2,0-4-5-0.8-5.7
									c0.5-0.1,0.9-0.7,1.3-1.1c0.8-0.7,1.8-1.2,2.8-1.5c1.9-0.6,4-0.8,5.9-1c1.8-0.2,3.3,1.7,3.3,3.3
									C578.3,437,576.8,438.1,575,438.3L575,438.3z"/>
							</g>
						</g>
						<g>
							<g>
								<path class="st18" d="M683.5,413.6c-7.1,2.1-14,5.1-21.4,5.8c-3.4,0.3-4.2-5.3-0.8-6c7-1.5,14-2.8,20.9-4.7
									C685.2,407.9,686.5,412.7,683.5,413.6L683.5,413.6z"/>
							</g>
						</g>
						<g>
							<g>
								<path class="st18" d="M694.2,430.9c-4.2,0.3-8.2,1.5-12.4,1.8c-3.2,0.3-3.9-4.9-0.8-5.6c4.4-1,8.7-2.1,13.2-2.4
									C698.2,424.3,698.2,430.6,694.2,430.9L694.2,430.9z"/>
							</g>
						</g>
						<g>
							<g>
								<path class="st18" d="M579.1,508.2c-2.4,0-4.8-0.2-7.1,0.4c-1.9,0.5-3.7,1.4-5.6,1.7c-3.5,0.7-5-4.5-1.5-5.4
									c2.2-0.6,4-1.7,6.3-2c2.6-0.3,5.3-0.1,7.9,0C582.5,503,582.5,508.1,579.1,508.2L579.1,508.2z"/>
							</g>
						</g>
						<g>
							<g>
								<path class="st18" d="M573.7,546.7c-4.9,5.4-7,12.6-12.4,17.7c-2.5,2.3-5.9-1.2-3.7-3.7c4.8-5.5,7.2-12.5,12.5-17.6
									C572.4,540.8,575.8,544.3,573.7,546.7L573.7,546.7z"/>
							</g>
						</g>
						<g>
							<g>
								<path class="st18" d="M573.5,579.7c-3.2,2.5-5.8,5.4-7.9,8.9c-1.6,2.6-5.7,0.2-4.1-2.4c2.3-3.8,5.2-7,8.7-9.8
									C572.5,574.6,575.9,577.8,573.5,579.7L573.5,579.7z"/>
							</g>
						</g>
						<g>
							<g>
								<path class="st18" d="M574.8,613.4c-0.7,1-1.4,2-2.2,3.1c-0.6,0.9-1.8,1.4-2.8,0.7c-0.9-0.6-1.3-1.8-0.7-2.8
									c0.7-1.1,1.3-2.1,2-3.2c0.6-1,2-1.4,3-0.8C574.9,611,575.5,612.4,574.8,613.4L574.8,613.4z"/>
							</g>
						</g>
						<g>
							<g>
								<path class="st18" d="M526.2,605c-0.3,0.3-0.7,0.7-1,1c-1.1,1.1-3,1.1-4,0c-1-1.1-1.1-2.9,0-4c0.3-0.3,0.7-0.7,1-1
									c1.1-1.1,3-1.1,4,0C527.3,602.1,527.3,603.8,526.2,605L526.2,605z"/>
							</g>
						</g>
					</g>
					<g>
						<g>
							<path class="st14" d="M1228.8,1590.8c0,0,159,18.6,158.6,68.4c-0.1,14.2-8.1,26.8-22.3,26.5l-268-6.4c0,0-18.5-31.5,0-49.4
								C1115.6,1612.1,1228.8,1590.8,1228.8,1590.8z"/>
						</g>
						<g>
							<path class="st19" d="M570,1151.9c3.9-5.4,465.2,27.1,465.2,27.1l193.7,411.8c0,0-64.9,103.3-138.8,72.8l-179.7-329.7
								l-368.6-32.1C541.7,1301.8,518.6,1223.8,570,1151.9z"/>
						</g>
					</g>
					<g>
						<g>
							<path class="st14" d="M1415.1,1590.8c0,0,159,18.6,158.6,68.4c-0.1,14.2-8.1,26.8-22.3,26.5l-268-6.4c0,0-18.5-31.5,0-49.4
								C1301.9,1612.1,1415.1,1590.8,1415.1,1590.8z"/>
						</g>
						<g>
							<path class="st19" d="M756.3,1151.9c3.9-5.4,465.2,27.1,465.2,27.1l193.7,411.8c0,0-64.9,103.3-138.8,72.8l-179.7-329.7
								L728,1301.8C728,1301.8,704.9,1223.8,756.3,1151.9z"/>
						</g>
					</g>
					<g>
						<g>
							<path class="st20" d="M1090.3,1709.5L1090.3,1709.5c3.5-21.4,22.1-37.1,43.8-37.1h381.7c24.5,0,44.4,19.9,44.4,44.4v0
								c0,24.5-19.9,44.4-44.4,44.4h-381.7C1106.7,1761.1,1085.9,1736.6,1090.3,1709.5z"/>
						</g>
						<g>
							<path class="st21" d="M1090.3,1709.5c0.4-2.6,1.1-5.1,1.9-7.5c6,17,22.3,29.6,41.8,29.6h381.7c19.3,0,35.8-12.4,41.8-29.6
								c1.6,4.6,2.5,9.6,2.5,14.7v0c0,24.5-19.9,44.4-44.4,44.4h-381.7C1106.7,1761.1,1085.9,1736.6,1090.3,1709.5L1090.3,1709.5z"
								/>
						</g>
					</g>
					<g>
						<path class="st19" d="M884.6,1379.6l332.6,304.6c17,10,22.4,32.1,11.9,48.8h0c-10.3,16.4-32,21.2-48.4,10.8l-371-348.1
							L884.6,1379.6z"/>
					</g>
					<g>
						
							<rect x="520.3" y="1457.6" transform="matrix(-1 -4.489665e-11 4.489665e-11 -1 1214.1779 3330.6328)" class="st19" width="173.6" height="415.4"/>
					</g>
					<g>
						<g>
							<path class="st19" d="M884.6,1379.6L884.6,1379.6c0,65.1-52.8,117.9-117.9,117.9H490c-65.1,0-117.9-52.8-117.9-117.9v0H884.6
								z"/>
						</g>
						<g>
							<path class="st14" d="M562,1379.6L562,1379.6c0,65.1,52.8,117.9,117.9,117.9H490c-65.1,0-117.9-52.8-117.9-117.9v0H562z"/>
						</g>
					</g>
					<g>
						<path class="st21" d="M343.9,1299.1h287.5c-29.9,0-54.2,24.3-54.2,54.2v0c0,29.9,24.3,54.2,54.2,54.2H343.9
							c-29.9,0-54.2-24.3-54.2-54.2v0C289.7,1323.4,314,1299.1,343.9,1299.1z"/>
					</g>
					<g>
						<path class="st20" d="M577.3,1353.3L577.3,1353.3c0-29.9,24.3-54.2,54.2-54.2l373.6,0c29.9,0,54.2,24.3,54.2,54.2l0,0
							c0,29.9-24.3,54.2-54.2,54.2H631.4C601.5,1407.4,577.3,1383.2,577.3,1353.3z"/>
					</g>
					<g>
						<g>
							<g>
								<path class="st18" d="M1033.7,506.5L844,748.9c9.6,15.7,19.3,31.3,29.2,46.8c16.1,25.3,32.6,50.6,47.7,76.6l150.9-267.4
									L1033.7,506.5z"/>
							</g>
						</g>
						<g>
							<g>
								<path class="st22" d="M917,1257.7l-0.2-19.2c0,0,6.7,0,18.4,0.1C928,1245.6,921.9,1252.1,917,1257.7z"/>
							</g>
							<g>
								<path class="st22" d="M1277.1,1300.3L1277.1,1300.3c-0.3,4.2-0.7,8.4-1.1,12.6c-0.4-6-0.9-11.3-1.5-16.1
									C1275.4,1297.9,1276.3,1299.1,1277.1,1300.3z"/>
							</g>
						</g>
						<g>
							<g>
								<polygon class="st22" points="919.1,1497.7 917.9,1365.3 945.7,1527.9 946.2,1531.1 991.4,1872 908.3,1872 918.2,1527.9 
																	"/>
							</g>
							<g>
								<path class="st14" d="M945.7,1527.9l-27.8-162.6l-15.3-89.4c0,0,5-7.3,14.3-18.1c4.9-5.6,11-12.2,18.2-19.1
									c56.4-54.3,180.8-131.4,332.7,37.2c0.7-7.1,4.2,1.6,6.6,20.9c0.6,4.8,1.1,10.1,1.5,16.1c3.3,49.1-2,136-49,215
									c-8.4,14.1-18.1,27.9-29.3,41.3l-5.1,8.1l-22.2,294.7h-179l-45.1-340.9L945.7,1527.9z"/>
							</g>
						</g>
						<g>
							<path class="st23" d="M1084.8,1294l-71.3-83.3c0,0-70.5,98.6-72.9,99.8c-1,0.5-15.2-0.7-32.1-2.3
								c8.5-185.8,24.5-526.2,32.1-613.5C951.2,572.9,1041.2,493,1041.2,493s171.1,36.5,214.6,72.2c42.7,35,23.1,372.1,23.1,372.1
								v358.1C1217,1298.5,1113.8,1303.7,1084.8,1294z"/>
						</g>
						<g>
							<path class="st18" d="M1021,668.5l29.2-39.8l5,3.7l-28,38.2c-0.3,22.9-5.3,419.5-10.1,544.3l-3.6-4.2c0,0-1,1.3-2.6,3.7
								c4.9-128,10-540.6,10.1-544.9L1021,668.5z"/>
						</g>
					</g>
					<g>
						<g>
							<path class="st24" d="M218.5,1169.7c20-20.5,46.7-32.2,75.3-33c57.4-1.5,140.3-3.4,208.6-3.6c36.8-0.1,66,0.3,86.9,1.2
								c38.1,1.6,46.7,4.4,53.5,11.8l-31,28.3c3.2,3.5,6.5,4.5,6.7,4.6c-13.6-4-105.7-6.1-323.6-0.3c-17.6,0.5-34.1,7.7-46.3,20.3
								c-12.2,12.5-18.9,28.9-19,46.4c-0.3,37.2,31,67.7,68.2,67.7h342.6c11.6,0,21,9.4,21,21c0,11.6-9.4,21-21,21H298.1
								c-60.3,0-110.7-49.3-110.5-109.7C187.7,1216.9,198.7,1190.1,218.5,1169.7z"/>
						</g>
						<g>
							<g>
								<path class="st20" d="M264.7,1138.2L264.7,1138.2c3.5-21.4,22.1-37.1,43.8-37.1h381.7c24.5,0,44.4,19.9,44.4,44.4v0
									c0,24.5-19.9,44.4-44.4,44.4H308.5C281.1,1189.8,260.3,1165.2,264.7,1138.2z"/>
							</g>
							<g>
								<path class="st21" d="M264.7,1138.2c0.4-2.6,1.1-5.1,1.9-7.5c6,17,22.3,29.6,41.8,29.6h381.7c19.3,0,35.8-12.4,41.8-29.6
									c1.6,4.6,2.5,9.6,2.5,14.7v0c0,24.5-19.9,44.4-44.4,44.4H308.5C281.1,1189.8,260.3,1165.2,264.7,1138.2L264.7,1138.2z"/>
							</g>
						</g>
					</g>
					<g>
						<g>
							<path class="st21" d="M200.2,728.7h224.4c28.2,0,53.4,18,62.5,44.7L621,1167.3c11.9,35-14.1,71.3-51,71.3H254.1
								c-40.1,0-73.7-30.1-78.2-69.9l-41.2-366.6C130.3,763,160.9,728.7,200.2,728.7z"/>
						</g>
						<g>
							<path class="st20" d="M568.5,1167.3L434.6,773.5c-9.1-26.7-34.2-44.7-62.5-44.7h52.5c28.2,0,53.4,18,62.5,44.7L621,1167.3
								c11.9,35-14.1,71.3-51,71.3h-52.5C554.4,1238.5,580.4,1202.2,568.5,1167.3z"/>
						</g>
					</g>
					<g>
						<path class="st19" d="M249.4,1103.7c1.6-52.8,4.2-104,8.7-138.7c13.2-102.5,9.2-361,281.5-338.6c0,0,201.2,26.9,238.8,185.6
							s67.8,309.2,67.8,309.2l124,68.3c0,0,52.8,73.9,63.3,110.8c7.4,25.9-324.7,41.5-564.2,35.6
							C344.3,1332.9,245.8,1228.7,249.4,1103.7z"/>
					</g>
					<g>
						<path class="st14" d="M889.3,1196.7c-51.4-12.7-108.8-9.4-152.8-38.8c-28.5-19-47.4-49.7-59.1-81.9
							c-11.7-32.2-17-66.3-23.5-99.9c-10-50.8-23.1-101-39.4-150.1c-18.2-55-41.1-109.9-79.6-153.2c-17.6-19.7-39-36.7-62.5-48.9
							c20.3-2.2,42.7-2.5,67.4-0.5c0,0,201.2,26.9,238.8,185.6s67.8,309.2,67.8,309.2l124,68.3c0,0,52.8,73.9,63.3,110.8
							c0.2,0.6,0.2,1.3-0.1,1.9C1000.1,1249,947.9,1211.2,889.3,1196.7z"/>
					</g>
					<g>
						<path class="st17" d="M531.4,313.7h-29.2c-24.3,0-58.3,34.6-58.3,151.1c0,74.3,42.1,116.7,42.1,116.7v55.8l26.4,48.2
							c10.2,18.7,29.8,30.3,51.2,30.3h0c30.1-0.3,27.8-23.9,29.4-53.9l-3.4-69.5l0,0c23.7-20.4,38-49.6,39.5-80.8l5.2-106.4
							C634.3,357.9,578.7,313.7,531.4,313.7z"/>
					</g>
					<g>
						<path class="st13" d="M521,590.7c-10.5-7.6-15.9-20.3-19.8-32.7c-13-40.5-15.9-83.6-14.5-126.1c1.3-39.3,6.3-78.4,10-117.6
							c-23.7,4.9-52.8,42.5-52.8,150.5c0,74.3,42.1,116.7,42.1,116.7v1c18.6,11.4,39.4,19.3,61,22.8
							C539.4,598.8,529.1,596.6,521,590.7z"/>
					</g>
					<g>
						<g>
							<polygon class="st18" points="1077,520 1024.1,574.4 1008.3,630.5 1071.8,592.9 							"/>
						</g>
						<g>
							<polygon class="st25" points="1024.1,574.4 1027.6,637.3 1069,588.5 1049.7,546.4 							"/>
						</g>
						<g>
							<g>
								<path class="st17" d="M894.2,336.2l4.2,58.5c0,0-22.2,37.3-10.5,40.6c11.7,3.3,27.3,15.6,27.3,15.6s20.1,76.9,30,77.9
									c9.9,1,75-28.9,75-28.9l50.2,130.5l100.4-103.9l-99.5-258.6L894.2,336.2z"/>
							</g>
						</g>
						<g>
							<path class="st13" d="M1011.6,403.7c-0.9-7-3.2-12.9-0.3-19.4c6.3-14,15.7-29.7,31.7-30c6-0.1,11.8,2.1,16.6,5.8
								c9.4,7.3,13.7,18.6,15.7,29.9c1.3,7.2,1.6,14.7-0.8,21.6s-8.1,12.9-15.3,14.1c6.8,5,15.2,9.9,24.5,14.3
								c-17.2,39.2-63.5,60-63.5,60s-38.3,17.5-60.6,25.3c33-42.1,43.2-95,45.3-136.1C1007,394.1,1009.3,398.9,1011.6,403.7z"/>
						</g>
						<g>
							<g>
								<polygon class="st13" points="1108.1,363.7 1086.6,415.3 1130.6,568.2 1170.8,526.7 								"/>
							</g>
						</g>
					</g>
					<g>
						<path class="st13" d="M891.2,722.4L659.1,610.1l-16.5,32.2l208.1,171.9C850.7,814.3,915.8,759.2,891.2,722.4z"/>
					</g>
					<g>
						<path class="st18" d="M947.7,752.7l43.6,41.3l224.1-228.8c0,0,79.2-2.3,45.7,157.3c-27.7,132.2-320.6,217.8-320.6,217.8
							l-56-72.1C913.9,847.2,938,787.3,947.7,752.7z"/>
					</g>
					<g>
						<path class="st23" d="M850.7,814.3c22.2-21.8,58.6-61.5,65.1-91.8c2.1-14.4,37.5-6.6,46.2,58.7c0,0-17.9,53-66.4,86.2
							c-10.2,7-23.9,5.3-32.2-3.8l-13.7-15.1C840.9,838.6,841.3,823.5,850.7,814.3z"/>
					</g>
					<g>
						<polygon class="st25" points="1052.7,600.2 1040.2,649.9 1077,623.7 						"/>
					</g>
					<g>
						<polygon class="st18" points="1180.6,530.5 1157.8,493 1052.7,600.2 1063.5,662 						"/>
					</g>
					<g>
						<g>
							<path class="st24" d="M241.7,1169.7c20-20.5,46.7-32.2,75.3-33c57.4-1.5,140.3-3.4,208.6-3.6c36.8-0.1,66,0.3,86.9,1.2
								c38.1,1.6,46.7,4.4,53.5,11.8l-31,28.3c3.2,3.5,6.5,4.5,6.7,4.6c-13.6-4-105.7-6.1-323.6-0.3c-17.6,0.5-34.1,7.7-46.3,20.3
								c-12.2,12.5-18.9,28.9-19,46.4c-0.3,37.2,31,67.7,68.2,67.7h342.6c11.6,0,21,9.4,21,21c0,11.6-9.4,21-21,21H321.2
								c-60.3,0-110.7-49.3-110.5-109.7C210.8,1216.9,221.8,1190.1,241.7,1169.7z"/>
						</g>
						<g>
							<g>
								<path class="st20" d="M287.9,1138.2L287.9,1138.2c3.5-21.4,22.1-37.1,43.8-37.1h381.7c24.5,0,44.4,19.9,44.4,44.4v0
									c0,24.5-19.9,44.4-44.4,44.4H331.7C304.3,1189.8,283.4,1165.2,287.9,1138.2z"/>
							</g>
							<g>
								<path class="st21" d="M287.9,1138.2c0.4-2.6,1.1-5.1,1.9-7.5c6,17,22.3,29.6,41.8,29.6l381.7,0c19.3,0,35.8-12.4,41.8-29.6
									c1.6,4.6,2.5,9.6,2.5,14.7v0c0,24.5-19.9,44.4-44.4,44.4H331.7C304.3,1189.8,283.4,1165.2,287.9,1138.2L287.9,1138.2z"/>
							</g>
						</g>
					</g>
					<g>
						<path class="st26" d="M1059.2,425.8c7.2-1.2,12.9-7.3,15.3-14.1c2.4-6.9,2-14.4,0.8-21.6c-1.6-9.1-4.7-18.1-10.6-25.1
							c-6-7-15.2-11.6-24.3-10.4c-14.4,1.9-23,16.6-29,29.8c-2.9,6.4-0.6,12.4,0.3,19.4c-6.8-13.8-12.7-27.9-17.8-42.4
							c-9.1,2.6-21.4,0.9-30.7-0.6c4.9-3.5,9.8-7,14.7-10.5c-18.3-2-36.8-3.4-55.2-4c-8-0.3-16.2-0.4-24,1.2c-0.7,0.1-1.4,0.4-1.6,1
							s0.8,1.3,1.1,0.8c-14.7-1.6-29-10.6-41.9-17.6c-15.6-8.4-30.7-17.8-45.2-28.1c13.3,3.7,26.9,6.2,40.7,7.3
							c1.5,0.1,3.8-1.2,2.7-2.2c-19-17.9-34.7-38.8-48.6-60.9c41.2,13.4,84.7,19.7,128,18.5c1.3,0-23.5-30.2-37.4-46.6
							c36.9,10,75.9,19.2,112.9,9.4c10.4-2.7,20.7-7,31.4-6.6c14.3,0.5,63.6,46.8,72.1,52.4c5.6,3.6,11.6,7.1,15.2,12.7
							c4,6.2,4.3,13.9,4.4,21.3c0.4,23.6-0.3,47.1-2,70.6c-0.9,12.9-2.1,26.4,2.9,38.3c6.3,14.9,20.8,24.4,34.9,32.4
							C1141.5,465.9,1086.6,445.8,1059.2,425.8z"/>
					</g>
					<g>
						<path class="st18" d="M853.9,308.4c-17.2-16.2-31.6-34.8-44.4-54.6c56.6,41,140.1,67.7,205.4,57c-3.9,4.6-8.2,8.9-12.8,12.7
							c20.8-1.5,40.9-10.4,56.1-24.6c-2,4.3-4,8.7-6,13c10.7-4.6,19.6-13.3,24.5-24c-0.5,5.5,4.4,10.3,9.7,11.8
							c5.3,1.4,11,0.3,16.3-1c9-2.2,18-5,26.7-8.2c2.5,5.6,2.7,12.1,2.8,18.3c0.4,23.6-0.3,47.1-2,70.6c-0.9,12.9-2.1,26.4,2.9,38.3
							c6.3,14.9,20.8,24.4,34.9,32.4c-26.6,15.9-81.5-4.2-108.9-24.3c7.2-1.2,12.9-7.3,15.3-14.1s2-14.4,0.8-21.6
							c-2-11.3-6.3-22.6-15.7-29.9c-4.7-3.7-10.5-5.9-16.6-5.8c-16,0.3-25.4,16-31.7,30c-2.9,6.4-0.6,12.4,0.3,19.4
							c-6.8-13.8-12.7-27.9-17.8-42.4c-9.1,2.6-21.4,0.9-30.7-0.6c4.9-3.5,9.8-7,14.7-10.5c-18.3-2-36.8-3.4-55.2-4
							c-8-0.3-16.2-0.4-24,1.2c-0.7,0.1-1.4,0.4-1.6,1c-0.1,0.2,0,0.4,0.1,0.6c-14.3-1.9-28.3-10.6-41-17.5
							c-15.6-8.4-30.7-17.8-45.2-28.1c13.7,3.8,27.8,6.3,42,7.4C854.2,311,854.9,309.3,853.9,308.4z"/>
					</g>
					<g>
						<path class="st18" d="M1002.1,323.5"/>
					</g>
				</g>
			</g>
			<g>
				<path class="st18" d="M442.6,421.6c3.2,0,5.8,2.5,7.9,4.9c13.2,15.7,20.9,36,21.2,56.5c1-19.9,7.4-40.6,13-59.7
					c-3.8-10-2.9-23,1.5-32.7c15.3-9.8,32.3-15.2,50.5-16.7c10.5-0.9,21.3-0.2,31.3,3.1c13.6,4.5,25.1,13.5,36.3,22.4
					c7.8-7.5,18.6-11.8,29.4-12.8c-2.5-14.8-10.3-26.8-20-38.3c-6.3-7.5-13.3-14.5-22-19c-7.9-4.1-17.5-9.9-21.7-17.7
					c-14.4-26.6-59-21.4-70.1-22.7c-51.1-6-93.1,33.5-94.3,43.8c-1,8.5,43.2-5.8,39.8,21.1c-12.9,16.2-10.2,39.7-11.7,60.3
					c-0.2,2.7-0.4,5.6,0.9,8C436.5,425.8,438.5,420.8,442.6,421.6z"/>
			</g>
			<g>
				<path class="st27" d="M571.3,358.9c-7.1-7.1-17-12-26.9-10.8c-5.9,0.7-11.4,3.5-17,5.5c-18,6.4-38.8,4.4-55.3-5.3
					c-8.2-4.8-15.3-11.3-23.9-15.2c-13.1-5.9-27.7-4.9-42.1-2.1c-0.3,0.7-0.5,1.3-0.5,1.8c-1,8.5,43.2-5.8,39.8,21.1
					c-12.9,16.2-10.2,39.7-11.7,60.3c-0.2,2.7-0.4,5.6,0.9,8c2,3.7,3.9-1.4,8-0.5c3.2,0,5.8,2.5,7.9,4.9
					c13.2,15.7,20.9,36,21.2,56.5c1-19.9,7.4-40.6,13-59.7c-3.8-10-2.9-23,1.5-32.7c15.3-9.8,32.3-15.2,50.5-16.7
					c10.5-0.9,21.3-0.2,31.3,3.1c7.8,2.6,14.9,6.6,21.6,11.3c-0.6-1.5-1.3-3-2-4.5C583.1,375,578.4,365.9,571.3,358.9z"/>
			</g>
			<g>
				<path class="st26" d="M613.7,348.4c-6.3-7.5-13.3-14.5-22-19c-4.8-2.5-10.2-5.6-14.6-9.4c14.4,23.7,24.5,50.1,29.5,77.5
					c7.5-6.3,17.3-9.9,27.1-10.8C631.2,371.8,623.3,359.9,613.7,348.4z"/>
			</g>
			<g class="st9">
				<path class="st10" d="M819.8,165.2l-20.5-8.8c-13.6-5.8-29.3-0.4-36.4,12.5C693.7,295.1,392,914,345,1010.4
					c-3.9,8-3.9,17.3,0.1,25.3v0c10.4,20.9,40.1,21.3,51,0.6l437.8-831.4C841.6,190.1,835.1,171.8,819.8,165.2z"/>
			</g>
			<g class="st9">
				<path class="st10" d="M819.8,434.8l-20.5-8.8c-13.6-5.8-29.3-0.4-36.4,12.5C693.7,564.7,392,1183.6,345,1280
					c-3.9,8-3.9,17.3,0.1,25.3v0c10.4,20.9,40.1,21.3,51,0.6l437.8-831.4C841.6,459.7,835.1,441.4,819.8,434.8z"/>
			</g>
			<g class="st9">
				<path class="st10" d="M421.6,524.3L421.6,524.3c10.4,20.9,40.1,21.3,51,0.6L710.7,72.7h-80.3
					c-92.8,188.3-184.7,376.7-208.9,426.4C417.6,507.1,417.7,516.4,421.6,524.3z"/>
			</g>
		</g>
		<g>
			<g>
				<path class="st6" d="M616.9,1405.9H79.2c-13,0-23.5,10.5-23.5,23.5V1541c0,13,10.5,23.5,23.5,23.5h537.8
					c13,0,23.5-10.5,23.5-23.5v-111.7C640.4,1416.4,629.9,1405.9,616.9,1405.9z"/>
			</g>
			<g>
				<path class="st4" d="M639,1405.9H101.2c-13,0-23.5,10.5-23.5,23.5V1541c0,13,10.5,23.5,23.5,23.5H639c13,0,23.5-10.5,23.5-23.5
					v-111.7C662.5,1416.4,652,1405.9,639,1405.9z"/>
			</g>
			<g>
				<g>
					<path class="st7" d="M460,1458.9H281.5c-4.3,0-7.8,3.5-7.8,7.8v37.1c0,4.3,3.5,7.8,7.8,7.8H460c4.3,0,7.8-3.5,7.8-7.8v-37.1
						C467.8,1462.4,464.3,1458.9,460,1458.9z"/>
				</g>
				<g>
					<path class="st3" d="M476.4,1458.9H297.9c-4.3,0-7.8,3.5-7.8,7.8v37.1c0,4.3,3.5,7.8,7.8,7.8h178.5c4.3,0,7.8-3.5,7.8-7.8
						v-37.1C484.2,1462.4,480.7,1458.9,476.4,1458.9z"/>
				</g>
			</g>
		</g>
	</g>
	<g id="Layer_2">
	</g>
</g>
<g id="object">
	<g>
		<g>
			<g>
				<path class="st13" d="M1433.1,610.1l23.2-41.5l34-3.5l14.9,10.7l5.9,41.6c0,0-41.3,25.8-61.5,24.9S1433.1,610.1,1433.1,610.1z"
					/>
			</g>
			<g>
				<g>
					<path class="st17" d="M1421.2,389l-4.5,67.4c0,0,18.9,121.8,27.8,126.3c8.8,4.5,45.5,0,45.5,0v139.8l131-60.9v-261
						c0-47.3-38.4-85.7-85.7-85.7h-29.2C1463.2,314.8,1426.9,346.5,1421.2,389z"/>
				</g>
			</g>
			<g>
				<path class="st18" d="M1416.7,405.2l26.7,7.1v42.8c0,0,20.4-21.1,40.7-15.7s11.2,60.4-12.2,64.5l30.5,22.4l50.1,14.3l22.2,28
					h46.3c0,0,10.7-185.8,0-213.3c-3.3-8.5,6.8-12.4,14.9-16.5s17.9-8.5,19.6-17.4c2-10.6-8.9-19-18.7-23.5
					c-23.8-10.9-49.7-16.5-75.6-20.2c-22.8-3.2-46.7-4.8-68.5,2.8s-41.1,26.3-43,49.2c-0.2,2.5,0.2,6.8-0.4,9.2
					c-11.5,2-22,8.8-28.5,18.5C1414.3,367.1,1414.1,393.8,1416.7,405.2z"/>
			</g>
			<g>
				<path class="st26" d="M1636.8,297.9c-23.8-10.9-49.7-16.5-75.6-20.2c-22.8-3.2-46.7-4.8-68.5,2.8c-21.8,7.6-41.1,26.3-43,49.2
					c-0.2,1.9,0.1,5-0.1,7.4c12.7-0.2,25.5-0.4,38.2-0.6c33.4-0.5,69.1-0.3,96.8,18.4c20.3,13.8,32.9,35.5,41.2,59
					c-0.2-27.7-1.5-50.4-4.7-58.7c-3.3-8.5,6.8-12.4,14.9-16.5c8.1-4.1,17.9-8.5,19.6-17.4C1657.6,310.7,1646.6,302.4,1636.8,297.9z
					"/>
			</g>
			<g>
				<path class="st18" d="M1649.1,320c-11.5,9.9-32.6,5.9-40.4,19c-3.5,6-2.7,13.6,0.1,20c2.7,6.4,7.1,11.9,10.7,17.8
					c2.2,3.5,4,7.3,5.6,11.1c-0.7-15.4-2-27.1-4.1-32.6c-3.3-8.5,6.8-12.4,14.9-16.5c8.1-4.1,17.9-8.5,19.6-17.4
					c0.6-3,0.1-5.8-1-8.4C1653.1,315.7,1651.4,318.1,1649.1,320z"/>
			</g>
			<g>
				<path class="st28" d="M1541.4,474.4c1-27.6-2-57.4-19.8-78.5c-13.9-16.5-35.2-25.5-56.6-28.5c-15.9-2.2-32-1.5-48.1,0.2
					c-2.6,12.1-2.2,29.2-0.3,37.7l26.7,7.1v42.8c0,0,20.4-21.1,40.7-15.7c20.4,5.5,11.2,60.4-12.2,64.5l30.5,22.4l48.9,13.9
					c-4.6-10.5-8.5-21.3-9.9-32.7C1540.1,496.6,1541,485.5,1541.4,474.4z"/>
			</g>
			<g>
				<path class="st13" d="M1494.1,533.1c2-2.8,4-5.7,5.9-8.5l-28.1-20.6c23.4-4.1,32.6-59,12.2-64.5c-20.4-5.5-40.7,15.7-40.7,15.7
					v-1.4c-4.7,4.5-8.9,9.6-13,14.6c-3.3,4-6.6,8.1-9.8,12.3c6,35.8,17.5,98.9,23.8,102c1.4,0.7,3.5,1.2,6,1.5
					C1466.5,568.4,1481.1,551.3,1494.1,533.1z"/>
			</g>
			<g>
				<path class="st17" d="M1518.4,437.9c-1.3-3.4-3-6.8-6-8.8c-4.3-2.9-10-2.2-15-1c-9.8,2.3-19.2,6.1-28.4,10.1
					c-7.1,3.1-14.2,6.4-20.4,11.1c-1.8,1.4-3.5,2.9-5.2,4.4v1.4c0,0,20.4-21.1,40.7-15.7c20.4,5.5,11.2,60.4-12.2,64.5l28.1,20.6
					c7.6-11.4,14.2-23.4,18.3-36.4C1523.5,471.9,1524.5,453.8,1518.4,437.9z"/>
			</g>
			<g>
				<g>
					<path class="st18" d="M1487.5,401c3.8,0.9,6.4-1.2,9.8-2.3c3.2-1.1,7.1-1.8,10.5-1.9c3.5-0.1,4.5-5.6,0.8-6.3
						c-3.6-0.7-7.1,0-10.6,1.1c-1.4,0.5-2.7,1-4,1.6c-1.8,1-3.8,3-6,3.2C1485.7,396.7,1484.8,400.3,1487.5,401L1487.5,401z"/>
				</g>
			</g>
			<g>
				<g>
					<path class="st18" d="M1496.4,407.4c5.6,0,11-0.8,16.6-1.1c4.3-0.3,4.4-6.7,0-6.7c-5.8-0.1-10.9,2.8-16.6,3
						C1493.3,402.6,1493.3,407.4,1496.4,407.4L1496.4,407.4z"/>
				</g>
			</g>
			<g>
				<g>
					<path class="st18" d="M1505.8,418c4.8,0.5,9.4,0.7,14.2,0c2.7-0.4,2.7-4.9,0-5.4c-4.8-0.8-9.4-0.6-14.2,0
						C1502.3,413,1502.3,417.6,1505.8,418L1505.8,418z"/>
				</g>
			</g>
			<g>
				<g>
					<path class="st18" d="M1517.2,438.3c1.6,0.2,3.3,0.3,4.8,1c1.6,0.8,2.7,1.7,4.6,1.7c3.2,0,4-5,0.8-5.7
						c-0.5-0.1-0.9-0.7-1.3-1.1c-0.8-0.7-1.8-1.2-2.8-1.5c-1.9-0.6-4-0.8-5.9-1c-1.8-0.2-3.3,1.7-3.3,3.3
						C1513.9,437,1515.4,438.1,1517.2,438.3L1517.2,438.3z"/>
				</g>
			</g>
			<g>
				<g>
					<path class="st18" d="M1408.7,413.6c7.1,2.1,14,5.1,21.4,5.8c3.4,0.3,4.2-5.3,0.8-6c-7-1.5-14-2.8-20.9-4.7
						C1406.9,407.9,1405.6,412.7,1408.7,413.6L1408.7,413.6z"/>
				</g>
			</g>
			<g>
				<g>
					<path class="st18" d="M1398,430.9c4.2,0.3,8.2,1.5,12.4,1.8c3.2,0.3,3.9-4.9,0.8-5.6c-4.4-1-8.7-2.1-13.2-2.4
						C1394,424.3,1394,430.6,1398,430.9L1398,430.9z"/>
				</g>
			</g>
			<g>
				<g>
					<path class="st18" d="M1513,508.2c2.4,0,4.8-0.2,7.1,0.4c1.9,0.5,3.7,1.4,5.6,1.7c3.5,0.7,5-4.5,1.5-5.4c-2.2-0.6-4-1.7-6.3-2
						c-2.6-0.3-5.3-0.1-7.9,0C1509.6,503,1509.6,508.1,1513,508.2L1513,508.2z"/>
				</g>
			</g>
			<g>
				<g>
					<path class="st18" d="M1518.5,546.7c4.9,5.4,7,12.6,12.4,17.7c2.5,2.3,5.9-1.2,3.7-3.7c-4.8-5.5-7.2-12.5-12.5-17.6
						C1519.7,540.8,1516.3,544.3,1518.5,546.7L1518.5,546.7z"/>
				</g>
			</g>
			<g>
				<g>
					<path class="st18" d="M1518.6,579.7c3.2,2.5,5.8,5.4,7.9,8.9c1.6,2.6,5.7,0.2,4.1-2.4c-2.3-3.8-5.2-7-8.7-9.8
						C1519.6,574.6,1516.3,577.8,1518.6,579.7L1518.6,579.7z"/>
				</g>
			</g>
			<g>
				<g>
					<path class="st18" d="M1517.4,613.4c0.7,1,1.4,2,2.2,3.1c0.6,0.9,1.8,1.4,2.8,0.7c0.9-0.6,1.3-1.8,0.7-2.8
						c-0.7-1.1-1.3-2.1-2-3.2c-0.6-1-2-1.4-3-0.8C1517.2,611,1516.7,612.4,1517.4,613.4L1517.4,613.4z"/>
				</g>
			</g>
			<g>
				<g>
					<path class="st18" d="M1565.9,605c0.3,0.3,0.7,0.7,1,1c1.1,1.1,3,1.1,4,0c1-1.1,1.1-2.9,0-4c-0.3-0.3-0.7-0.7-1-1
						c-1.1-1.1-3-1.1-4,0C1564.9,602.1,1564.8,603.8,1565.9,605L1565.9,605z"/>
				</g>
			</g>
		</g>
		<g>
			<g>
				<path class="st14" d="M863.3,1590.8c0,0-159,18.6-158.6,68.4c0.1,14.2,8.1,26.8,22.3,26.5l268-6.4c0,0,18.5-31.5,0-49.4
					S863.3,1590.8,863.3,1590.8z"/>
			</g>
			<g>
				<path class="st19" d="M1522.2,1151.9c-3.9-5.4-465.2,27.1-465.2,27.1l-193.7,411.8c0,0,64.9,103.3,138.8,72.8l179.7-329.7
					l368.6-32.1C1550.5,1301.8,1573.5,1223.8,1522.2,1151.9z"/>
			</g>
		</g>
		<g>
			<g>
				<path class="st14" d="M677,1590.8c0,0-159,18.6-158.6,68.4c0.1,14.2,8.1,26.8,22.3,26.5l268-6.4c0,0,18.5-31.5,0-49.4
					C790.3,1612.1,677,1590.8,677,1590.8z"/>
			</g>
			<g>
				<path class="st19" d="M1335.9,1151.9c-3.9-5.4-465.2,27.1-465.2,27.1L677,1590.8c0,0,64.9,103.3,138.8,72.8l179.7-329.7
					l368.6-32.1C1364.2,1301.8,1387.2,1223.8,1335.9,1151.9z"/>
			</g>
		</g>
		<g>
			<g>
				<path class="st20" d="M1001.8,1709.5L1001.8,1709.5c-3.5-21.4-22.1-37.1-43.8-37.1H576.4c-24.5,0-44.4,19.9-44.4,44.4v0
					c0,24.5,19.9,44.4,44.4,44.4h381.7C985.4,1761.1,1006.3,1736.6,1001.8,1709.5z"/>
			</g>
			<g>
				<path class="st21" d="M1001.8,1709.5c-0.4-2.6-1.1-5.1-1.9-7.5c-6,17-22.3,29.6-41.8,29.6H576.4c-19.3,0-35.8-12.4-41.8-29.6
					c-1.6,4.6-2.5,9.6-2.5,14.7v0c0,24.5,19.9,44.4,44.4,44.4h381.7C985.4,1761.1,1006.3,1736.6,1001.8,1709.5L1001.8,1709.5z"/>
			</g>
		</g>
		<g>
			<path class="st19" d="M1207.6,1379.6L875,1684.2c-17,10-22.4,32.1-11.9,48.8h0c10.3,16.4,32,21.2,48.4,10.8l371-348.1
				L1207.6,1379.6z"/>
		</g>
		<g>
			<rect x="1398.3" y="1457.6" class="st19" width="173.6" height="415.4"/>
		</g>
		<g>
			<g>
				<path class="st19" d="M1207.6,1379.6L1207.6,1379.6c0,65.1,52.8,117.9,117.9,117.9h276.6c65.1,0,117.9-52.8,117.9-117.9v0
					H1207.6z"/>
			</g>
			<g>
				<path class="st14" d="M1530.1,1379.6L1530.1,1379.6c0,65.1-52.8,117.9-117.9,117.9h189.9c65.1,0,117.9-52.8,117.9-117.9v0
					H1530.1z"/>
			</g>
		</g>
		<g>
			<path class="st21" d="M1748.2,1299.1h-287.5c29.9,0,54.2,24.3,54.2,54.2l0,0c0,29.9-24.3,54.2-54.2,54.2h287.5
				c29.9,0,54.2-24.3,54.2-54.2l0,0C1802.4,1323.4,1778.2,1299.1,1748.2,1299.1z"/>
		</g>
		<g>
			<path class="st20" d="M1514.9,1353.3L1514.9,1353.3c0-29.9-24.3-54.2-54.2-54.2h-373.6c-29.9,0-54.2,24.3-54.2,54.2l0,0
				c0,29.9,24.3,54.2,54.2,54.2h373.6C1490.6,1407.4,1514.9,1383.2,1514.9,1353.3z"/>
		</g>
		<g>
			<g>
				<g>
					<path class="st18" d="M1058.5,506.5l189.7,242.4c-9.6,15.7-19.3,31.3-29.2,46.8c-16.1,25.3-32.6,50.6-47.7,76.6l-150.9-267.4
						L1058.5,506.5z"/>
				</g>
			</g>
			<g>
				<g>
					<path class="st22" d="M1175.1,1257.7l0.2-19.2c0,0-6.7,0-18.4,0.1C1164.1,1245.6,1170.2,1252.1,1175.1,1257.7z"/>
				</g>
				<g>
					<path class="st22" d="M815.1,1300.3L815.1,1300.3c0.3,4.2,0.7,8.4,1.1,12.6c0.4-6,0.9-11.3,1.5-16.1
						C816.7,1297.9,815.8,1299.1,815.1,1300.3z"/>
				</g>
			</g>
			<g>
				<g>
					<polygon class="st22" points="1173.1,1497.7 1174.2,1365.3 1146.5,1527.9 1145.9,1531.1 1100.8,1872 1183.8,1872 
						1173.9,1527.9 					"/>
				</g>
				<g>
					<path class="st14" d="M1146.5,1527.9l27.8-162.6l15.3-89.4c0,0-5-7.3-14.3-18.1c-4.9-5.6-11-12.2-18.2-19.1
						c-56.4-54.3-180.8-131.4-332.7,37.2c-0.7-7.1-4.2,1.6-6.6,20.9c-0.6,4.8-1.1,10.1-1.5,16.1c-3.3,49.1,2,136,49,215
						c8.4,14.1,18.1,27.9,29.3,41.3l5.1,8.1l22.2,294.7h179l45.1-340.9L1146.5,1527.9z"/>
				</g>
			</g>
			<g>
				<path class="st23" d="M1007.3,1294l71.3-83.3c0,0,70.5,98.6,72.9,99.8c1,0.5,15.2-0.7,32.1-2.3
					c-8.5-185.8-24.5-526.2-32.1-613.5C1141,572.9,1050.9,493,1050.9,493s-171.1,36.5-214.6,72.2c-42.7,35-23.1,372.1-23.1,372.1
					v358.1C875.1,1298.5,978.4,1303.7,1007.3,1294z"/>
			</g>
			<g>
				<path class="st18" d="M1071.2,668.5l-29.2-39.8l-5,3.7l28,38.2c0.3,22.9,5.3,419.5,10.1,544.3l3.6-4.2c0,0,1,1.3,2.6,3.7
					c-4.9-128-10-540.6-10.1-544.9L1071.2,668.5z"/>
			</g>
		</g>
		<g>
			<g>
				<path class="st24" d="M1873.6,1169.7c-20-20.5-46.7-32.2-75.3-33c-57.4-1.5-140.3-3.4-208.6-3.6c-36.8-0.1-66,0.3-86.9,1.2
					c-38.1,1.6-46.7,4.4-53.5,11.8l31,28.3c-3.2,3.5-6.5,4.5-6.7,4.6c13.6-4,105.7-6.1,323.6-0.3c17.6,0.5,34.1,7.7,46.3,20.3
					c12.2,12.5,18.9,28.9,19,46.4c0.3,37.2-31,67.7-68.2,67.7h-342.6c-11.6,0-21,9.4-21,21s9.4,21,21,21h342.3
					c60.3,0,110.7-49.3,110.5-109.7C1904.4,1216.9,1893.5,1190.1,1873.6,1169.7z"/>
			</g>
			<g>
				<g>
					<path class="st20" d="M1827.4,1138.2L1827.4,1138.2c-3.5-21.4-22.1-37.1-43.8-37.1H1402c-24.5,0-44.4,19.9-44.4,44.4v0
						c0,24.5,19.9,44.4,44.4,44.4h381.7C1811,1189.8,1831.9,1165.2,1827.4,1138.2z"/>
				</g>
				<g>
					<path class="st21" d="M1827.4,1138.2c-0.4-2.6-1.1-5.1-1.9-7.5c-6,17-22.3,29.6-41.8,29.6H1402c-19.3,0-35.8-12.4-41.8-29.6
						c-1.6,4.6-2.5,9.6-2.5,14.7v0c0,24.5,19.9,44.4,44.4,44.4h381.7C1811,1189.8,1831.9,1165.2,1827.4,1138.2L1827.4,1138.2z"/>
				</g>
			</g>
		</g>
		<g>
			<path class="st14" d="M1842.7,1100.6c-1.6-52.8-4.2-104-8.7-138.7c-13.2-102.5-9.2-361-281.5-338.6c0,0-201.2,26.9-238.8,185.6
				s-67.8,309.2-67.8,309.2l-124,68.3c0,0-52.8,73.9-63.3,110.8c-7.4,25.9,324.7,41.5,564.2,35.6
				C1747.8,1329.8,1846.4,1225.5,1842.7,1100.6z"/>
		</g>
		<g>
			<path class="st19" d="M1202.8,1196.7c51.4-12.7,108.8-9.4,152.8-38.8c28.5-19,47.4-49.7,59.1-81.9c11.7-32.2,17-66.3,23.5-99.9
				c10-50.8,23.1-101,39.4-150.1c18.2-55,41.1-109.9,79.6-153.2c17.6-19.7,39-36.7,62.5-48.9c-20.3-2.2-42.7-2.5-67.4-0.5
				c0,0-201.2,26.9-238.8,185.6s-67.8,309.2-67.8,309.2l-124,68.3c0,0-52.8,73.9-63.3,110.8c-0.2,0.6-0.2,1.3,0.1,1.9
				C1092.1,1249,1144.2,1211.2,1202.8,1196.7z"/>
		</g>
		<g>
			<g>
				<polygon class="st18" points="1015.2,520 1068.1,574.4 1083.8,630.5 1020.4,592.9 				"/>
			</g>
			<g>
				<polygon class="st25" points="1068.1,574.4 1064.5,637.3 1023.2,588.5 1042.5,546.4 				"/>
			</g>
			<g>
				<g>
					<path class="st17" d="M1198,336.2l-4.2,58.5c0,0,22.2,37.3,10.5,40.6c-11.7,3.3-27.3,15.6-27.3,15.6s-20.1,76.9-30,77.9
						c-9.9,1-75-28.9-75-28.9l-50.2,130.5L921.3,526.7l99.5-258.6L1198,336.2z"/>
				</g>
			</g>
			<g>
				<path class="st13" d="M1080.5,403.7c0.9-7,3.2-12.9,0.3-19.4c-6.3-14-15.7-29.7-31.7-30c-6-0.1-11.8,2.1-16.6,5.8
					c-9.4,7.3-13.7,18.6-15.7,29.9c-1.3,7.2-1.6,14.7,0.8,21.6c2.4,6.9,8.1,12.9,15.3,14.1c-6.8,5-15.2,9.9-24.5,14.3
					c17.2,39.2,63.5,60,63.5,60s38.3,17.5,60.6,25.3c-33-42.1-43.2-95-45.3-136.1C1085.1,394.1,1082.9,398.9,1080.5,403.7z"/>
			</g>
			<g>
				<g>
					<polygon class="st13" points="984.1,363.7 1005.5,415.3 961.5,568.2 921.3,526.7 					"/>
				</g>
			</g>
		</g>
		<g>
			<path class="st13" d="M1201,722.4l232.1-112.3l16.5,32.2l-208.1,171.9C1241.5,814.3,1176.3,759.2,1201,722.4z"/>
		</g>
		<g>
			<path class="st15" d="M1536.6,434.8c-1.6-1.6-3.6-2.8-5.8-3.4l-37.1-9.8c-3.2-0.8-6.5,0.2-8.7,2.6c-3,3.3-6.8,7.6-7,8.1
				l48.6,21.5l13.2-15.8L1536.6,434.8z"/>
		</g>
		<g>
			<path class="st16" d="M1539.7,438l-3.1-3.2c-0.5-0.5-1.1-1-1.7-1.5c-3.1,3-11.5,11.2-17,16.6l8.7,3.9L1539.7,438z"/>
		</g>
		<g>
			<path class="st14" d="M1527.9,445.3c-1-3-2.9-5.5-5.6-7.3c-25.7-17.1-53.5-8.7-53.5-8.7s-55.3,80.3-70.2,102.7
				c-1.6,2.4-2.7,5.2-2.9,8.1c-0.5,7.4,3.9,14,10.5,16.6l26.4,10l99-110L1527.9,445.3z"/>
		</g>
		<g>
			<path class="st17" d="M831,722.4c27.7,132.2,320.6,217.8,320.6,217.8l300-386.5l-31.7-13.5l-243.6,182.2l-75.5,71.5L876.7,565.1
				C876.7,565.1,797.5,562.8,831,722.4z"/>
		</g>
		<g>
			<path class="st18" d="M1144.4,752.7l-43.6,41.3L876.7,565.1c0,0-79.2-2.3-45.7,157.3c27.7,132.2,320.6,217.8,320.6,217.8l56-72.1
				C1178.3,847.2,1154.1,787.3,1144.4,752.7z"/>
		</g>
		<g>
			<path class="st23" d="M1241.5,814.3c-22.2-21.8-58.6-61.5-65.1-91.8c-2.1-14.4-37.5-6.6-46.2,58.7c0,0,17.9,53,66.4,86.2
				c10.2,7,23.9,5.3,32.2-3.8l13.7-15.1C1251.3,838.6,1250.9,823.5,1241.5,814.3z"/>
		</g>
		<g>
			<polygon class="st25" points="1039.5,600.2 1051.9,649.9 1015.2,623.7 			"/>
		</g>
		<g>
			<polygon class="st18" points="911.5,530.5 934.3,493 1039.5,600.2 1028.6,662 			"/>
		</g>
		<g>
			<g>
				<path class="st21" d="M1891.9,728.7h-224.4c-28.2,0-53.4,18-62.5,44.7l-133.9,393.8c-11.9,35,14.1,71.3,51,71.3h315.9
					c40.1,0,73.7-30.1,78.2-69.9l41.2-366.6C1961.9,763,1931.3,728.7,1891.9,728.7z"/>
			</g>
			<g>
				<path class="st20" d="M1523.7,1167.3l133.9-393.8c9.1-26.7,34.2-44.7,62.5-44.7h-52.5c-28.2,0-53.4,18-62.5,44.7l-133.9,393.8
					c-11.9,35,14.1,71.3,51,71.3h52.5C1537.8,1238.5,1511.8,1202.2,1523.7,1167.3z"/>
			</g>
		</g>
		<g>
			<g>
				<path class="st24" d="M1488.5,1169.7c-20-20.5-46.7-32.2-75.3-33c-57.4-1.5-140.3-3.4-208.6-3.6c-36.8-0.1-66,0.3-86.9,1.2
					c-38.1,1.6-46.7,4.4-53.5,11.8l31,28.3c-3.2,3.5-6.5,4.5-6.7,4.6c13.6-4,105.7-6.1,323.6-0.3c17.6,0.5,34.1,7.7,46.3,20.3
					c12.2,12.5,18.9,28.9,19,46.4c0.3,37.2-31,67.7-68.2,67.7h-342.6c-11.6,0-21,9.4-21,21s9.4,21,21,21h342.3
					c60.3,0,110.7-49.3,110.5-109.7C1519.3,1216.9,1508.3,1190.1,1488.5,1169.7z"/>
			</g>
			<g>
				<g>
					<path class="st20" d="M1442.3,1138.2L1442.3,1138.2c-3.5-21.4-22.1-37.1-43.8-37.1h-381.7c-24.5,0-44.4,19.9-44.4,44.4v0
						c0,24.5,19.9,44.4,44.4,44.4h381.7C1425.9,1189.8,1446.7,1165.2,1442.3,1138.2z"/>
				</g>
				<g>
					<path class="st21" d="M1442.3,1138.2c-0.4-2.6-1.1-5.1-1.9-7.5c-6,17-22.3,29.6-41.8,29.6h-381.7c-19.3,0-35.8-12.4-41.8-29.6
						c-1.6,4.6-2.5,9.6-2.5,14.7v0c0,24.5,19.9,44.4,44.4,44.4h381.7C1425.9,1189.8,1446.7,1165.2,1442.3,1138.2L1442.3,1138.2z"/>
				</g>
			</g>
		</g>
		<g>
			<path class="st26" d="M1033,425.8c-7.2-1.2-12.9-7.3-15.3-14.1c-2.4-6.9-2-14.4-0.8-21.6c1.6-9.1,4.7-18.1,10.6-25.1
				c6-7,15.2-11.6,24.3-10.4c14.4,1.9,23,16.6,29,29.8c2.9,6.4,0.6,12.4-0.3,19.4c6.8-13.8,12.7-27.9,17.8-42.4
				c9.1,2.6,21.4,0.9,30.7-0.6c-4.9-3.5-9.8-7-14.7-10.5c18.3-2,36.8-3.4,55.2-4c8-0.3,16.2-0.4,24,1.2c0.7,0.1,1.4,0.4,1.6,1
				s-0.8,1.3-1.1,0.8c14.7-1.6,29-10.6,41.9-17.6c15.6-8.4,30.7-17.8,45.2-28.1c-13.3,3.7-26.9,6.2-40.7,7.3
				c-1.5,0.1-3.8-1.2-2.7-2.2c19-17.9,34.7-38.8,48.6-60.9c-41.2,13.4-84.7,19.7-128,18.5c-1.3,0,23.5-30.2,37.4-46.6
				c-36.9,10-75.9,19.2-112.9,9.4c-10.4-2.7-20.7-7-31.4-6.6c-14.3,0.5-63.6,46.8-72.1,52.4c-5.6,3.6-11.6,7.1-15.2,12.7
				c-4,6.2-4.3,13.9-4.4,21.3c-0.4,23.6,0.3,47.1,2,70.6c0.9,12.9,2.1,26.4-2.9,38.3c-6.3,14.9-20.8,24.4-34.9,32.4
				C950.6,465.9,1005.5,445.8,1033,425.8z"/>
		</g>
		<g>
			<path class="st18" d="M1238.2,308.4c17.2-16.2,31.6-34.8,44.4-54.6c-56.6,41-140.1,67.7-205.4,57c3.9,4.6,8.2,8.9,12.8,12.7
				c-20.8-1.5-40.9-10.4-56.1-24.6c2,4.3,4,8.7,6,13c-10.7-4.6-19.6-13.3-24.5-24c0.5,5.5-4.4,10.3-9.7,11.8s-11,0.3-16.3-1
				c-9-2.2-18-5-26.7-8.2c-2.5,5.6-2.7,12.1-2.8,18.3c-0.4,23.6,0.3,47.1,2,70.6c0.9,12.9,2.1,26.4-2.9,38.3
				c-6.3,14.9-20.8,24.4-34.9,32.4c26.6,15.9,81.5-4.2,108.9-24.3c-7.2-1.2-12.9-7.3-15.3-14.1c-2.4-6.9-2-14.4-0.8-21.6
				c2-11.3,6.3-22.6,15.7-29.9c4.7-3.7,10.5-5.9,16.6-5.8c16,0.3,25.4,16,31.7,30c2.9,6.4,0.6,12.4-0.3,19.4
				c6.8-13.8,12.7-27.9,17.8-42.4c9.1,2.6,21.4,0.9,30.7-0.6c-4.9-3.5-9.8-7-14.7-10.5c18.3-2,36.8-3.4,55.2-4
				c8-0.3,16.2-0.4,24,1.2c0.7,0.1,1.4,0.4,1.6,1c0.1,0.2,0,0.4-0.1,0.6c14.3-1.9,28.3-10.6,41-17.5c15.6-8.4,30.7-17.8,45.2-28.1
				c-13.7,3.8-27.8,6.3-42,7.4C1238,311,1237.2,309.3,1238.2,308.4z"/>
		</g>
		<g>
			<path class="st18" d="M1090.1,323.5"/>
		</g>
		<g>
			<path class="st17" d="M1420,540.2l-3.3-37.5l8.6-33.6l18.8-3.9c0,0,43.8-8.2,51.1,0c7.3,8.2,16.7,13.4,15.7,14.5
				c-1,1.1-7.8,8.7-7.8,8.7l-14.6-0.1c0,0-7.3,20.2-13.6,31.4c-6.3,11.2-23.3,34-23.3,34L1420,540.2z"/>
		</g>
	</g>
</g>
</svg>
