<?xml version="1.0" encoding="utf-8"?>
<!-- Generator: Adobe Illustrator 18.0.0, SVG Export Plug-In . SVG Version: 6.00 Build 0)  -->
<!DOCTYPE svg PUBLIC "-//W3C//DTD SVG 1.1//EN" "http://www.w3.org/Graphics/SVG/1.1/DTD/svg11.dtd" [
	<!ENTITY ns_flows "http://ns.adobe.com/Flows/1.0/">
	<!ENTITY ns_extend "http://ns.adobe.com/Extensibility/1.0/">
	<!ENTITY ns_ai "http://ns.adobe.com/AdobeIllustrator/10.0/">
	<!ENTITY ns_graphs "http://ns.adobe.com/Graphs/1.0/">
]>
<svg version="1.1" id="Layer_1" xmlns:x="&ns_extend;" xmlns:i="&ns_ai;" xmlns:graph="&ns_graphs;"
	 xmlns="http://www.w3.org/2000/svg" xmlns:xlink="http://www.w3.org/1999/xlink" xmlns:a="http://ns.adobe.com/AdobeSVGViewerExtensions/3.0/"
	 x="0px" y="0px" viewBox="0 0 1400 800" enable-background="new 0 0 1400 1000" xml:space="preserve" opacity="0.8">
<g>
	<rect fill="#FDF8D3" width="1400" height="980" />
	<g>
		<g>
			<g>
				<g>
					<path fill="#FDF8D3" d="M166.9,615.9h14.2c-0.3,0-0.6,0-1,0c16.3-0.7,29.4-18.1,29.4-39.6v0c0-21.5-13.1-38.9-29.4-39.6
						c0.3,0,0.6,0,1,0h-51.9c-20.4,0-36.9-21.6-36.9-48.3v0c0-26.7,16.5-48.3,36.9-48.3h143.9c4.2-2.1,7.2-7.5,7.2-13.7
						c0-7.1-3.8-12.9-8.8-14.4c-1.2,0-90.9-0.1-92.1-0.3c-17.7-2.5-31.5-22.1-31.5-46v0c0-25.5,15.8-46.2,35.3-46.2h93.1
						c2.4-2.7,3.9-6.7,3.9-11.2c0-7.1-3.8-12.9-8.8-14.4c-19.4-0.2-35.1-20.8-35.1-46.2v0c0-25.5,15.8-46.2,35.3-46.2h275.4h588.5
						h11c31.9,0,57.8,25.9,57.8,57.8v8c0,31.9-25.9,57.8-57.8,57.8h-36.8c10.9,7.9,18.4,23.1,18.4,40.6v0c0,23.6-13.5,43.1-31,45.9
						h24.6h33.8c26.4,0,47.8,28,47.8,62.6c0,29.5-15.6,54.2-36.6,60.8c-3.1,1.1-6.4,1.7-9.8,1.7h-55c-11.6,0-21,12.3-21,27.5
						c0,15.2,9.4,27.5,21,27.5v0.3h109.2c29.2,0,52.9,31,52.9,69.2c0,38.2-23.7,69.2-52.9,69.2h-10.7H211.5h-44.6
						c-24.2,0-43.7-25.6-43.7-57.2C123.2,641.5,142.8,615.9,166.9,615.9z"/>
				</g>
			</g>
			<g>
				<g>
					<g>
						<path fill="#FAE3BA" d="M1119.9,201.4h15.7h11c17,0,32.2,7.3,42.8,18.9h-69.5V201.4z"/>
					</g>
					<g>
						<rect x="997.4" y="201.4" fill="#FAE3BA" width="117.7" height="18.9"/>
					</g>
					<g>
						<rect x="874.8" y="201.4" fill="#FAE3BA" width="117.7" height="18.9"/>
					</g>
					<g>
						<rect x="752.2" y="201.4" fill="#FAE3BA" width="117.7" height="18.9"/>
					</g>
					<g>
						<rect x="629.7" y="201.4" fill="#FAE3BA" width="117.7" height="18.9"/>
					</g>
					<g>
						<polygon fill="#FAE3BA" points="507.1,201.4 547.1,201.4 624.8,201.4 624.8,220.4 507.1,220.4 						"/>
					</g>
					<g>
						<rect x="384.5" y="201.4" fill="#FAE3BA" width="117.7" height="18.9"/>
					</g>
					<g>
						<path fill="#FAE3BA" d="M262,203.2c3.1-1.2,6.4-1.8,9.8-1.8h108v18.9H262V203.2z"/>
					</g>
					<g>
						<path fill="#FAE3BA" d="M257.1,205.5v14.8h-13.9C246.8,214,251.6,208.8,257.1,205.5z"/>
					</g>
					<g>
						<path fill="#FAE3BA" d="M1184.5,226.5h9.7c5.9,8.6,9.6,18.8,10.1,29.9h-19.8V226.5z"/>
					</g>
					<g>
						<rect x="1062" y="226.5" fill="#FAE3BA" width="117.7" height="29.9"/>
					</g>
					<g>
						<rect x="939.4" y="226.5" fill="#FAE3BA" width="117.7" height="29.9"/>
					</g>
					<g>
						<rect x="816.8" y="226.5" fill="#FAE3BA" width="117.7" height="29.9"/>
					</g>
					<g>
						<rect x="694.3" y="226.5" fill="#FAE3BA" width="117.7" height="29.9"/>
					</g>
					<g>
						<rect x="571.7" y="226.5" fill="#FAE3BA" width="117.7" height="29.9"/>
					</g>
					<g>
						<rect x="449.1" y="226.5" fill="#FAE3BA" width="117.7" height="29.9"/>
					</g>
					<g>
						<rect x="326.6" y="226.5" fill="#FAE3BA" width="117.7" height="29.9"/>
					</g>
					<g>
						<path fill="#FAE3BA" d="M321.7,256.4H237c-0.4-2.8-0.6-5.7-0.6-8.7v0c0-7.6,1.4-14.8,3.9-21.1h81.4V256.4z"/>
					</g>
					<g>
						<path fill="#FAE3BA" d="M1119.9,290.6v-29.9h84.5v6.5c0,8.3-1.8,16.2-4.9,23.4H1119.9z"/>
					</g>
					<g>
						<rect x="997.4" y="260.8" fill="#FAE3BA" width="117.7" height="29.9"/>
					</g>
					<g>
						<rect x="874.8" y="260.8" fill="#FAE3BA" width="117.7" height="29.9"/>
					</g>
					<g>
						<rect x="752.2" y="260.8" fill="#FAE3BA" width="117.7" height="29.9"/>
					</g>
					<g>
						<rect x="629.7" y="260.8" fill="#FAE3BA" width="117.7" height="29.9"/>
					</g>
					<g>
						<rect x="507.1" y="260.8" fill="#FAE3BA" width="117.7" height="29.9"/>
					</g>
					<g>
						<rect x="384.5" y="260.8" fill="#FAE3BA" width="117.7" height="29.9"/>
					</g>
					<g>
						<rect x="262" y="260.8" fill="#FAE3BA" width="117.7" height="29.9"/>
					</g>
					<g>
						<path fill="#FAE3BA" d="M257.1,260.8v29c-9.3-5.5-16.4-16.1-19.3-29H257.1z"/>
					</g>
					<g>
						<path fill="#FAE3BA" d="M1184.5,310.9v-14.1h11.8C1193.2,302.1,1189.2,306.9,1184.5,310.9z"/>
					</g>
					<g>
						<path fill="#FAE3BA" d="M1179.7,314.7c-9.4,6.6-20.8,10.4-33.1,10.4h-36.8c0.7,0.5,1.4,1,2,1.6H1062v-29.9h117.7V314.7z"/>
					</g>
					<g>
						<rect x="939.4" y="296.8" fill="#FAE3BA" width="117.7" height="29.9"/>
					</g>
					<g>
						<rect x="816.8" y="296.8" fill="#FAE3BA" width="117.7" height="29.9"/>
					</g>
					<g>
						<rect x="694.3" y="296.8" fill="#FAE3BA" width="117.7" height="29.9"/>
					</g>
					<g>
						<rect x="571.7" y="296.8" fill="#FAE3BA" width="117.7" height="29.9"/>
					</g>
					<g>
						<rect x="449.1" y="296.8" fill="#FAE3BA" width="117.7" height="29.9"/>
					</g>
					<g>
						<rect x="326.6" y="296.8" fill="#FAE3BA" width="117.7" height="29.9"/>
					</g>
					<g>
						<path fill="#FAE3BA" d="M280.3,308.3c0-4.6-1.6-8.8-4.2-11.5h45.6v29.9H204v-7.3h72.4C278.8,316.7,280.3,312.7,280.3,308.3z"
							/>
					</g>
					<g>
						<path fill="#FAE3BA" d="M183.2,319.4h15.9v7.3h-34.9C169.7,322.1,176.2,319.4,183.2,319.4z"/>
					</g>
					<g>
						<path fill="#FAE3BA" d="M1127.9,360.9h-8v-24.8C1124.3,343,1127.2,351.6,1127.9,360.9z"/>
					</g>
					<g>
						<rect x="997.4" y="331.1" fill="#FAE3BA" width="117.7" height="29.9"/>
					</g>
					<g>
						<rect x="874.8" y="331.1" fill="#FAE3BA" width="117.7" height="29.9"/>
					</g>
					<g>
						<rect x="752.2" y="331.1" fill="#FAE3BA" width="117.7" height="29.9"/>
					</g>
					<g>
						<rect x="629.7" y="331.1" fill="#FAE3BA" width="117.7" height="29.9"/>
					</g>
					<g>
						<rect x="507.1" y="331.1" fill="#FAE3BA" width="117.7" height="29.9"/>
					</g>
					<g>
						<rect x="384.5" y="331.1" fill="#FAE3BA" width="117.7" height="29.9"/>
					</g>
					<g>
						<rect x="262" y="331.1" fill="#FAE3BA" width="117.7" height="29.9"/>
					</g>
					<g>
						<path fill="#FAE3BA" d="M257.1,360.9H148.1c0.9-11.9,5.3-22.4,11.7-29.9h97.4V360.9z"/>
					</g>
					<g>
						<path fill="#FAE3BA" d="M1118.8,397H1062v-29.9h66.1C1127.8,378.6,1124.3,389,1118.8,397z"/>
					</g>
					<g>
						<rect x="939.4" y="367.1" fill="#FAE3BA" width="117.7" height="29.9"/>
					</g>
					<g>
						<rect x="816.8" y="367.1" fill="#FAE3BA" width="117.7" height="29.9"/>
					</g>
					<g>
						<rect x="694.3" y="367.1" fill="#FAE3BA" width="117.7" height="29.9"/>
					</g>
					<g>
						<rect x="571.7" y="367.1" fill="#FAE3BA" width="117.7" height="29.9"/>
					</g>
					<g>
						<rect x="449.1" y="367.1" fill="#FAE3BA" width="117.7" height="29.9"/>
					</g>
					<g>
						<rect x="326.6" y="367.1" fill="#FAE3BA" width="117.7" height="29.9"/>
					</g>
					<g>
						<rect x="204" y="367.1" fill="#FAE3BA" width="117.7" height="29.9"/>
					</g>
					<g>
						<path fill="#FAE3BA" d="M199.2,397h-41.9c-5.6-7.9-9-18.4-9.3-29.9h51.2V397z"/>
					</g>
					<g>
						<path fill="#FAE3BA" d="M1190.3,431.2h-70.3v-19.7h1.7h33.8C1169.2,411.5,1181.5,419.1,1190.3,431.2z"/>
					</g>
					<g>
						<path fill="#FAE3BA" d="M1115.1,431.2H997.4v-29.9h117.7v0.1c-5,5.4-11.2,9-18,10.1h18V431.2z"/>
					</g>
					<g>
						<rect x="874.8" y="401.3" fill="#FAE3BA" width="117.7" height="29.9"/>
					</g>
					<g>
						<rect x="752.2" y="401.3" fill="#FAE3BA" width="117.7" height="29.9"/>
					</g>
					<g>
						<rect x="629.7" y="401.3" fill="#FAE3BA" width="117.7" height="29.9"/>
					</g>
					<g>
						<rect x="507.1" y="401.3" fill="#FAE3BA" width="117.7" height="29.9"/>
					</g>
					<g>
						<rect x="384.5" y="401.3" fill="#FAE3BA" width="117.7" height="29.9"/>
					</g>
					<g>
						<path fill="#FAE3BA" d="M271.5,411.9c-0.2,0-3.8,0-9.5,0v-10.5h117.7v29.9H279.6c0.4-1.5,0.7-3.2,0.7-5
							C280.3,419.2,276.5,413.3,271.5,411.9z"/>
					</g>
					<g>
						<path fill="#FAE3BA" d="M160.8,401.3h96.4v10.5c-25.7,0-76.9-0.1-77.7-0.2C172.4,410.6,166,406.9,160.8,401.3z"/>
					</g>
					<g>
						<path fill="#FAE3BA" d="M1184.5,467.2v-29.9h9.6c4.8,8.6,7.9,18.8,8.8,29.9H1184.5z"/>
					</g>
					<g>
						<rect x="1062" y="437.4" fill="#FAE3BA" width="117.7" height="29.9"/>
					</g>
					<g>
						<rect x="939.4" y="437.4" fill="#FAE3BA" width="117.7" height="29.9"/>
					</g>
					<g>
						<rect x="816.8" y="437.4" fill="#FAE3BA" width="117.7" height="29.9"/>
					</g>
					<g>
						<rect x="694.3" y="437.4" fill="#FAE3BA" width="117.7" height="29.9"/>
					</g>
					<g>
						<rect x="571.7" y="437.4" fill="#FAE3BA" width="117.7" height="29.9"/>
					</g>
					<g>
						<rect x="449.1" y="437.4" fill="#FAE3BA" width="117.7" height="29.9"/>
					</g>
					<g>
						<rect x="326.6" y="437.4" fill="#FAE3BA" width="117.7" height="29.9"/>
					</g>
					<g>
						<path fill="#FAE3BA" d="M204,440h69.1c1.2-0.6,2.4-1.5,3.3-2.6h45.3v29.9H204V440z"/>
					</g>
					<g>
						<path fill="#FAE3BA" d="M199.2,467.2H96c6-16.1,18.6-27.2,33.2-27.2h69.9V467.2z"/>
					</g>
					<g>
						<path fill="#FAE3BA" d="M1203.3,474.1c0,9.8-1.7,19.1-4.8,27.4h-78.5v-29.9h83.3C1203.2,472.5,1203.3,473.3,1203.3,474.1z"/>
					</g>
					<g>
						<rect x="997.4" y="471.6" fill="#FAE3BA" width="117.7" height="29.9"/>
					</g>
					<g>
						<rect x="874.8" y="471.6" fill="#FAE3BA" width="117.7" height="29.9"/>
					</g>
					<g>
						<rect x="752.2" y="471.6" fill="#FAE3BA" width="117.7" height="29.9"/>
					</g>
					<g>
						<rect x="629.7" y="471.6" fill="#FAE3BA" width="117.7" height="29.9"/>
					</g>
					<g>
						<rect x="507.1" y="471.6" fill="#FAE3BA" width="117.7" height="29.9"/>
					</g>
					<g>
						<rect x="384.5" y="471.6" fill="#FAE3BA" width="117.7" height="29.9"/>
					</g>
					<g>
						<rect x="262" y="471.6" fill="#FAE3BA" width="117.7" height="29.9"/>
					</g>
					<g>
						<rect x="139.4" y="471.6" fill="#FAE3BA" width="117.7" height="29.9"/>
					</g>
					<g>
						<path fill="#FAE3BA" d="M94.6,471.6h40v29.9H93.7c-0.9-4.2-1.4-8.6-1.4-13.2v0C92.3,482.5,93.1,476.8,94.6,471.6z"/>
					</g>
					<g>
						<path fill="#FAE3BA" d="M1184.5,507.7h11.3c-3,6.2-6.8,11.6-11.3,16.1V507.7z"/>
					</g>
					<g>
						<path fill="#FAE3BA" d="M1062,507.7h117.7V528c-4,3.1-8.4,5.5-13.1,6.9c-3.1,1.1-6.4,1.7-9.8,1.7H1062V507.7z"/>
					</g>
					<g>
						<polygon fill="#FAE3BA" points="939.4,507.7 939.4,507.9 939.4,537.5 939.4,537.8 1057.1,537.8 1057.1,536.6 1057.1,507.9
							1057.1,507.7 						"/>
					</g>
					<g>
						<rect x="816.8" y="507.7" fill="#FAE3BA" width="117.7" height="29.9"/>
					</g>
					<g>
						<rect x="694.3" y="507.7" fill="#FAE3BA" width="117.7" height="29.9"/>
					</g>
					<g>
						<rect x="571.7" y="507.7" fill="#FAE3BA" width="117.7" height="29.9"/>
					</g>
					<g>
						<rect x="449.1" y="507.7" fill="#FAE3BA" width="117.7" height="29.9"/>
					</g>
					<g>
						<rect x="326.6" y="507.7" fill="#FAE3BA" width="117.7" height="29.9"/>
					</g>
					<g>
						<rect x="204" y="507.7" fill="#FAE3BA" width="117.7" height="29.9"/>
					</g>
					<g>
						<path fill="#FAE3BA" d="M199.2,537.5h-13.6c-1.8-0.5-3.6-0.8-5.4-0.9c0.3,0,0.6,0,1,0h-51.9c-15.1,0-28.1-11.9-33.8-29h103.8
							V537.5z"/>
					</g>
					<g>
						<rect x="874.8" y="541.9" fill="#FAE3BA" width="117.7" height="29.9"/>
					</g>
					<g>
						<rect x="752.2" y="541.9" fill="#FAE3BA" width="117.7" height="29.9"/>
					</g>
					<g>
						<rect x="629.7" y="541.9" fill="#FAE3BA" width="117.7" height="29.9"/>
					</g>
					<g>
						<rect x="507.1" y="541.9" fill="#FAE3BA" width="117.7" height="29.9"/>
					</g>
					<g>
						<rect x="384.5" y="541.9" fill="#FAE3BA" width="117.7" height="29.9"/>
					</g>
					<g>
						<rect x="262" y="541.9" fill="#FAE3BA" width="117.7" height="29.9"/>
					</g>
					<g>
						<path fill="#FAE3BA" d="M257.1,571.8h-47.8c-1.1-12.8-6.8-23.7-15-29.9h62.8V571.8z"/>
					</g>
					<g>
						<path fill="#FAE3BA" d="M1184.5,591.9h26.6c12.8,0,24.6,6,33.7,15.9h-60.3V591.9z"/>
					</g>
					<g>
						<polygon fill="#FAE3BA" points="939.4,578 939.4,578 939.4,607.8 1051.5,607.8 1057.1,607.8 1057.1,606.9 1057.1,591.9
							1057.1,578 						"/>
					</g>
					<g>
						<rect x="816.8" y="578" fill="#FAE3BA" width="117.7" height="29.9"/>
					</g>
					<g>
						<rect x="694.3" y="578" fill="#FAE3BA" width="117.7" height="29.9"/>
					</g>
					<g>
						<rect x="571.7" y="578" fill="#FAE3BA" width="117.7" height="29.9"/>
					</g>
					<g>
						<rect x="449.1" y="578" fill="#FAE3BA" width="117.7" height="29.9"/>
					</g>
					<g>
						<rect x="326.6" y="578" fill="#FAE3BA" width="117.7" height="29.9"/>
					</g>
					<g>
						<path fill="#FAE3BA" d="M321.7,607.8H204v-8.7c3.3-6,5.3-13.3,5.5-21.1h112.2V607.8z"/>
					</g>
					<g>
						<path fill="#FAE3BA" d="M199.2,607.8h-1.6c0.6-0.5,1.1-1.1,1.6-1.7V607.8z"/>
					</g>
					<g>
						<path fill="#FAE3BA" d="M1242.5,612.2h6c6.3,8.2,10.9,18.4,13.4,29.9h-19.4V612.2z"/>
					</g>
					<g>
						<rect x="1119.9" y="612.2" fill="#FAE3BA" width="117.7" height="29.9"/>
					</g>
					<g>
						<rect x="997.4" y="612.2" fill="#FAE3BA" width="117.7" height="29.9"/>
					</g>
					<g>
						<rect x="874.8" y="612.2" fill="#FAE3BA" width="117.7" height="29.9"/>
					</g>
					<g>
						<rect x="752.2" y="612.2" fill="#FAE3BA" width="117.7" height="29.9"/>
					</g>
					<g>
						<rect x="629.7" y="612.2" fill="#FAE3BA" width="117.7" height="29.9"/>
					</g>
					<g>
						<rect x="507.1" y="612.2" fill="#FAE3BA" width="117.7" height="29.9"/>
					</g>
					<g>
						<rect x="384.5" y="612.2" fill="#FAE3BA" width="117.7" height="29.9"/>
					</g>
					<g>
						<rect x="262" y="612.2" fill="#FAE3BA" width="117.7" height="29.9"/>
					</g>
					<g>
						<path fill="#FAE3BA" d="M192,612.2h65.2v29.9H139.4v-13.4c7.5-8,17.1-12.8,27.5-12.8h14.2c-0.3,0-0.6,0-1,0
							C184.4,615.7,188.4,614.4,192,612.2z"/>
					</g>
					<g>
						<path fill="#FAE3BA" d="M134.6,642.1h-4.4c1.3-2.6,2.8-5.1,4.4-7.4V642.1z"/>
					</g>
					<g>
						<path fill="#FAE3BA" d="M1184.5,648.2h78.5c0.6,4.2,0.9,8.5,0.9,12.9c0,5.9-0.6,11.5-1.6,17h-77.9V648.2z"/>
					</g>
					<g>
						<rect x="1062" y="648.2" fill="#FAE3BA" width="117.7" height="29.9"/>
					</g>
					<g>
						<rect x="939.4" y="648.2" fill="#FAE3BA" width="117.7" height="29.9"/>
					</g>
					<g>
						<rect x="816.8" y="648.2" fill="#FAE3BA" width="117.7" height="29.9"/>
					</g>
					<g>
						<rect x="694.3" y="648.2" fill="#FAE3BA" width="117.7" height="29.9"/>
					</g>
					<g>
						<rect x="571.7" y="648.2" fill="#FAE3BA" width="117.7" height="29.9"/>
					</g>
					<g>
						<rect x="449.1" y="648.2" fill="#FAE3BA" width="117.7" height="29.9"/>
					</g>
					<g>
						<rect x="326.6" y="648.2" fill="#FAE3BA" width="117.7" height="29.9"/>
					</g>
					<g>
						<rect x="204" y="648.2" fill="#FAE3BA" width="117.7" height="29.9"/>
					</g>
					<g>
						<path fill="#FAE3BA" d="M199.2,648.2v29.9h-75.8c-0.1-1.6-0.2-3.3-0.2-5c0-8.9,1.6-17.4,4.3-24.9H199.2z"/>
					</g>
					<g>
						<polygon fill="#FAE3BA" points="1237.7,682.9 1237.7,701.2 1237.7,712.8 1119.9,712.8 1119.9,701.2 1119.9,682.9
							1119.9,682.5 1237.7,682.5 						"/>
					</g>
					<g>
						<polygon fill="#FAE3BA" points="1115.1,682.9 1115.1,701.2 1115.1,712.8 997.4,712.8 997.4,701.2 997.4,682.9 997.4,682.5
							1115.1,682.5 						"/>
					</g>
					<g>
						<polygon fill="#FAE3BA" points="992.5,682.9 992.5,701.2 992.5,712.8 874.8,712.8 874.8,701.2 874.8,682.9 874.8,682.5
							992.5,682.5 						"/>
					</g>
					<g>
						<polygon fill="#FAE3BA" points="870,682.9 870,701.2 870,712.8 752.2,712.8 752.2,701.2 752.2,682.9 752.2,682.5 870,682.5
													"/>
					</g>
					<g>
						<polygon fill="#FAE3BA" points="747.4,682.9 747.4,701.2 747.4,712.8 629.7,712.8 629.7,701.2 629.7,682.9 629.7,682.5
							747.4,682.5 						"/>
					</g>
					<g>
						<polygon fill="#FAE3BA" points="624.8,682.9 624.8,701.2 624.8,712.8 507.1,712.8 507.1,701.2 507.1,682.9 507.1,682.5
							624.8,682.5 						"/>
					</g>
					<g>
						<polygon fill="#FAE3BA" points="502.3,682.9 502.3,701.2 502.3,712.8 384.5,712.8 384.5,701.2 384.5,682.9 384.5,682.5
							502.3,682.5 						"/>
					</g>
					<g>
						<polygon fill="#FAE3BA" points="379.7,682.9 379.7,701.2 379.7,712.8 262,712.8 262,701.2 262,682.9 262,682.5 379.7,682.5
													"/>
					</g>
					<g>
						<polygon fill="#FAE3BA" points="257.1,682.9 257.1,701.2 257.1,712.8 139.4,712.8 139.4,701.2 139.4,682.9 139.4,682.5
							257.1,682.5 						"/>
					</g>
					<g>
						<path fill="#FAE3BA" d="M134.6,701.2h-5.8c-2.4-5.7-4.2-12-5-18.6h10.8V701.2z"/>
					</g>
					<g>
						<path fill="#FAE3BA" d="M1080.8,564.1c0-9.1,3.4-17.2,8.6-22.2h-92.1v29.9h84.3C1081.1,569.4,1080.8,566.8,1080.8,564.1z"/>
					</g>
					<g>
						<path fill="#FAE3BA" d="M1101.8,591.6c-7.5,0-14-5.1-17.8-12.8H1062v13.1v15.9h94.9h22.9v-8.6v-7.3h-77.8V591.6z"/>
					</g>
					<g>
						<path fill="#FAE3BA" d="M1255.8,698.1c0.3-0.7,0.7-1.4,1-2.1c0.3-0.6,0.5-1.1,0.7-1.7c0.3-0.8,0.7-1.6,1-2.5
							c0.2-0.4,0.3-0.9,0.5-1.3c0.4-1.1,0.7-2.1,1.1-3.2c0.1-0.4,0.2-0.8,0.4-1.2c0.3-1.1,0.6-2.1,0.9-3.2c0-0.1,0.1-0.3,0.1-0.4h0
							h-18.9v0.4v18.3v11.6h3.8c2.5-2.9,4.8-6.2,6.9-9.7c-0.1,0.1-0.1,0.2-0.2,0.3c0.1-0.1,0.1-0.3,0.2-0.4c0.1-0.1,0.2-0.3,0.2-0.4
							c0.1-0.2,0.2-0.4,0.4-0.6v0c-0.1,0.1-0.1,0.2-0.2,0.4c0.1-0.1,0.1-0.3,0.2-0.4v0c0.4-0.8,0.8-1.5,1.2-2.3
							C1255.3,699.1,1255.5,698.6,1255.8,698.1z"/>
					</g>
					<g>
						<g>
							<path fill="#FAE3BA" d="M1184.5,730.3h15.8h10.7c11.5,0,22.1-4.8,30.8-13h-57.4V730.3z"/>
						</g>
						<g>
							<rect x="1062" y="717.4" fill="#FAE3BA" width="117.7" height="13"/>
						</g>
						<g>
							<rect x="939.4" y="717.4" fill="#FAE3BA" width="117.7" height="13"/>
						</g>
						<g>
							<rect x="816.8" y="717.4" fill="#FAE3BA" width="117.7" height="13"/>
						</g>
						<g>
							<rect x="694.3" y="717.4" fill="#FAE3BA" width="117.7" height="13"/>
						</g>
						<g>
							<rect x="571.7" y="717.4" fill="#FAE3BA" width="117.7" height="13"/>
						</g>
						<g>
							<rect x="449.1" y="717.4" fill="#FAE3BA" width="117.7" height="13"/>
						</g>
						<g>
							<rect x="326.6" y="717.4" fill="#FAE3BA" width="117.7" height="13"/>
						</g>
						<g>
							<polygon fill="#FAE3BA" points="204,717.4 204,730.3 211.5,730.3 321.7,730.3 321.7,717.4 							"/>
						</g>
						<g>
							<path fill="#FAE3BA" d="M139.2,717.4c7.5,8.1,17.2,13,27.7,13h32.2v-13H139.2z"/>
						</g>
					</g>
				</g>
			</g>
			<circle fill="#FAE3BA" cx="187.7" cy="241.4" r="14.9"/>
			<circle fill="#FAE3BA" cx="1228.1" cy="554.9" r="16.9"/>
		</g>
		<g>
			<g>
				<g>
					<g>
						<rect x="395.6" y="245" fill="#FFFFFF" width="267.9" height="472.3"/>
						<path fill="#DDF2F8" d="M395.6,349.7l267.9-38.4v-7.8l-267.9,38.4V349.7z M395.6,245v72.9l267.9-38.4V245H395.6z M395.6,717.4
							h267.9V519.5l-267.9,38.4V717.4z M395.6,543.1l267.9-38.4V320.4l-267.9,38.4V543.1z"/>
					</g>
					<rect x="384.2" y="240.1" fill="#924620" width="11.4" height="477.2"/>
					<rect x="664.3" y="240.1" fill="#924620" width="11.4" height="477.2"/>
					<rect x="384.4" y="234.4" fill="#924620" width="291.3" height="11.4"/>
				</g>
				<g>
					<g>
						<path fill="#CAC8CF" d="M638.8,483.3c0,0,23.3-7.4,27.2-24c3.9-16.6-5.3-25.4-17.3-24.7c-12,0.7-71.3,2.8-89.7-9.5
							c-18.4-12.4-20.1-17.7-27.9-14.8c-7.8,2.8-24.4,14.1-6,36C543.5,468.1,598.2,492.1,638.8,483.3z"/>
						<path fill="#AEA59D" d="M666,459.3c2.9-12.4-1.5-20.4-8.8-23.4c-3.7,3.3-3.5,9.6-3.5,9.6s15.2,21.5-28.9,30.7
							c-44.1,9.2-73.4-18.7-73.4-18.7c-2.5,1.8-4.2,3.7-5.3,5.6c25.1,15.3,62.8,26.7,92.9,20.2C638.8,483.3,662.1,475.9,666,459.3z"
							/>
					</g>
					<path fill="#E3DDD6" d="M541.7,547.9c0,0-2.1-127.8-4.2-135.9c-2.1-8.1-111.6-12.7-122.5,8.8c-4.8,9.4-6.6,63.7-6.7,126.4
						c0,4-9.9,17.5-9.9,21.5c0,4.7,10.2,8,10.2,12.7c0.2,72.2,1.8,138,1.8,138l111.2-2.5L541.7,547.9z"/>
					<path fill="#5E5350" d="M445.4,580c0,0-33.2,1.8-36.4,3.2c-3.2,1.4,0.7,129.2,0.7,129.2l42,2.1L445.4,580z"/>
					<polygon fill="#D39D4E" points="410.8,585.7 410.8,595.9 445.4,594.2 446.4,583.6 					"/>
					<path fill="#929D73" d="M538,408.1c0,0-4.1-0.8-6.6-0.8c8.2,38.4-3.1,48.1-3.4,49.9s-40.6,9.9-67.4,7.8c0,0-6-43.4-12-50.8
						s-13.4-5.6-13.4-5.6l-4.9,2.1c0,0,14.1-2.1,16.2,19.8c2.1,21.9-1.8,107-2.1,122.5c-0.4,15.5-39.9,27.5-39.9,27.5l0.4,5.3
						c0,0,25.4-4.6,34.2-14.1c0,0,3.9,135.9,6,143.3c2.1,7.4,100.3,2.8,100.3,2.8l18.4-48.4c0,0-20.8-241.8-21.5-246.8
						S538,408.1,538,408.1z"/>
					<path fill="#B8B877" d="M543.5,547.2l-1.4-24.4l-71.7,12.7c0,0-8.5,81.5,34.2,75.9C547.4,605.8,542.4,580.4,543.5,547.2z"/>
					<g>
						<path fill="#E3DDD6" d="M411.2,631.7c-0.2-0.5,0-1.2,0.6-1.4l0,0c17.2-7.3,18.1-27.4,18.1-31.2l0,0c0-0.4,0-0.6,0-0.6l0,0
							c0-0.6,0.4-1.1,1-1.1l0,0c0.6,0,1.1,0.4,1.1,1l0,0c0,0,0,0.3,0,0.7l0,0c0,4-0.8,25.1-19.4,33.2l0,0c-0.1,0.1-0.3,0.1-0.4,0.1
							l0,0C411.8,632.3,411.4,632.1,411.2,631.7L411.2,631.7z"/>
					</g>
					<path fill="#603913" d="M468.1,346.2c0,0-16.4-7.1-11.4-23c5-15.9,16.4-18.5,28.6-17.2c12.2,1.3,36.5-0.5,36.5-0.5l-4.2,3.4
						c0,0,10.1,1.3,20.9,5.8c10.9,4.5,12.7,2.1,12.7,2.1s0.3,4.5-7.4,11.1l5.3-1.6c0,0,2.6,6.9-15.9,18.8
						C514.7,357,468.1,346.2,468.1,346.2z"/>
					<path fill="#A97C50" d="M469.7,370.3l-10.1-20.9l-0.3-10.6c0,0,21.4,10.6,33.9,10.1c12.4-0.5-13.5,30.7-14,32
						C478.7,382.2,469.7,370.3,469.7,370.3z"/>
					<path fill="#FECE96" d="M471.8,360.2c0,0-1.6-7.7-11.1-2.6c-9.5,5-4.8,26.5,2.1,24.6c6.9-1.9,9.3-5,9.3-5l1.9,33.9
						c0,0,14.3,14.6,24.4,12.4c10.1-2.1,12.2-5.8,12.2-5.8l-4.4-10.2c0,0,11.8,4.4,16.6-0.6c4.8-5,13.5-24.6,11.4-64.6
						c0,0-42.9,10.1-50.6,5c0,0-2.9,14.3-3.4,20.4s-0.5,6.1-0.5,6.1l-4.2-5L471.8,360.2z"/>
					<path fill="#E44145" d="M507.1,399.3c0,0,3.5,1.8,4.8-0.9c1.2-2.6,2.1-3.9,2.1-3.9l-5.3-3C508.7,391.5,503.1,396.3,507.1,399.3
						z"/>
					<path fill="#E6D7BE"  a:adobe-blending-mode="multiply" d="M506.1,407.4c-3.5-1.2-7.4-2.9-10.8-5.3c-8.6-6.2-9.4-12.4-9.4-12.4
						s1.1,25.9,3.8,32.4c2.9,1.2,5.9,1.8,8.5,1.3c10.1-2.1,12.2-5.8,12.2-5.8L506.1,407.4z M506.1,407.4c0,0,0.5,0.2,1.2,0.4
						C506.9,407.7,506.5,407.6,506.1,407.4z"/>
					<path fill="#E6D7BE"  a:adobe-blending-mode="multiply" d="M483.5,347.2c0,0-2.9,14.3-3.4,20.4s-0.5,6.1-0.5,6.1l-4.2-5
						l-3.4-8.5c0,0-1.6-7.7-11.1-2.6c-9.5,5-4.8,26.5,2.1,24.6c6.9-1.9,9.3-5,9.3-5l1.9,33.9c0,0,2.7,2.7,6.5,5.6
						c-1.6-8.6-4.8-26.4-4.6-31.8c0.4-7.2,5.3-3.4,5.3-3.4s1.1-22.6,3.5-25.8c2.2-2.8,12.4-3.6,20.8-8.2
						C495.9,348.8,486.7,349.3,483.5,347.2z"/>
					<ellipse fill="#603913" cx="509.1" cy="370.9" rx="1.1" ry="2.9"/>
					<ellipse fill="#603913" cx="526.2" cy="368.8" rx="1.1" ry="2.9"/>
					<path fill="#603913" d="M513.3,361.7c0,0-2.5,0.4-4.9-0.2c-2.5-0.5-7.4-1.1-7.6,2.3c0,0,1.6-0.5,4.1,0
						C507.3,364.4,512.6,366.3,513.3,361.7z"/>
					<path fill="#603913" d="M519.9,359c0,0,2.5,0.1,4.9-0.7c2.4-0.8,7.3-1.8,7.8,1.5c0,0-1.6-0.4-4,0.4
						C526.2,361,521.1,363.5,519.9,359z"/>
					<path fill="#603913" d="M525,391c0,0-7.1,5.1-13.2,1.8c-6.2-3.4-7.6-6.2-7.6-6.2s2.5,8.1,10.6,8.3C522.8,395.1,525,391,525,391
						z"/>
				</g>
				<g>
					<path fill="#B7C2CF" d="M688.2,721.6c0,0-30.4-141.2-35.3-167.3c-31.8-54.5-136.1-26.8-150.9-8.5c-14.8,18.4-8.6,173-8.6,173
						L688.2,721.6z"/>
					<path fill="#98A5AF" d="M580.4,608.3c0,0,10.6,74.1,10.6,90s-9,16.4-9,16.4l-16.9,3.7c0,0-14.3-5.8-14.8-25.9
						c-0.5-20.1-6.4-85.8-6.4-85.8s-11.6,90.6-24.9,93.2c-13.2,2.6-16.4-93.7-14.8-134c0.4-11,2.9-19.7,6.2-26.6
						c-3.8,2.2-6.6,4.4-8.3,6.5c-14.8,18.4-8.6,173-8.6,173l116.9,1.7c-0.4-0.8-0.7-1.7-0.8-2.6
						C608.4,708.4,580.4,608.3,580.4,608.3z M639.2,596.6c0,0,24.4,113.3,19.6,118.1c-4.8,4.8-7.9,0.5-7.9,0.5l-43.4-111.7
						c0,0,19.1,80,20.7,104.3c0.4,5.9-0.4,10-1.9,12.9l52.1,0.8c2.2-2.7,3.8-4.6,3.8-4.6L639.2,596.6z"/>
					<path fill="#E44145" d="M564.5,540c0,0-10.6-2.1-7.4,5.8c3.2,7.9,39.7,23.3,39.7,23.3s1.1-19.6-3.2-24.9
						C589.4,538.9,564.5,540,564.5,540z"/>
					<path fill="#FECE96" d="M560.8,542.1c0,0,11.6,13.2,28.1,5.3c0,0-3.7-13.8-3.7-20.1c0,0,24.4,14.3,30.7-9.5
						c6.4-23.8,9.5-71-19.1-79.4c-28.6-8.5-48.2,3.7-46.1,44.5c0,0-8.5-3.2-9,8.5c-0.5,11.6,5.8,17.5,13.2,9.5L560.8,542.1z"/>
					<path fill="#E6D7BE"  a:adobe-blending-mode="multiply" d="M589.1,529.1L569.3,509l5.7,40.7c4,0.6,8.7,0.2,13.9-2.3
						c0,0-3.7-13.8-3.7-20.1C585.1,527.3,586.7,528.2,589.1,529.1L589.1,529.1z"/>
					<path fill="#2F1200" d="M550.7,482.8l9,13.8l4.2,5.8l3.2-3.7l-3.7-10.1l-3.7-11.6c0,0,5.3-1.1,9-10.6
						c3.7-9.5,0.5-11.1,0.5-11.1s5.3,6.9,11.6,4.8c6.4-2.1,15.9-0.5,15.9-0.5s-5.3-7.9-14.8-5.8c0,0,11.6-7.9,20.7-1.1
						c9,6.9,16.4-1.1,16.4-1.1l-9-0.5c0,0,8.5-2.1,17.5-9.5c9-7.4-0.5-9-0.5-9s-4.8,1.6-7.9-1.6s-11.1-13.2-21.2-13.2
						c-10.1,0-12.2,1.1-12.2,1.1s9-4.8,15.9-5.8c0,0-20.7-6.4-36,7.4l1.1-6.9c0,0-20.7,1.1-22.8,14.8c0,0-9.5,7.9-12.7,19.6
						c-3.2,11.6,1.1,20.7,1.1,20.7l2.1-4.8c0,0,0.5,4.8,2.1,10.6c1.6,5.8,7.4,13.8,7.4,13.8S542.3,482.8,550.7,482.8z"/>
					<path fill="#2F1200" d="M569.3,504l4.8-1.6l10.1,10.1c0,0,4.8-7.4,15.9-9.5c11.1-2.1,19.1,1.1,19.1,1.1l0.5-4.8h3.2
						c0,0,9,20.1,0,31.2c-9,11.1-2.1,12.2-2.1,12.2S610,550.6,601,541c-9-9.5-9-9.5-9-9.5v7.9C592,539.5,568.2,528.9,569.3,504z"/>
					<path fill="#603913" d="M587.5,478.3c0,0-4-1.3-7.7,0c-3.7,1.3-4.2,2.9-4.2,2.9s0.5-6.1,4.8-6.6c4.2-0.5,7.4-1.3,7.4-1.3
						S590.7,475.4,587.5,478.3z"/>
					<path fill="#603913" d="M609.4,480c0,0,2.1-3.6,5.7-5.1c3.6-1.5,5.1-0.7,5.1-0.7s-4.5-4.2-8-1.7c-3.5,2.4-6.4,4-6.4,4
						S605.1,480,609.4,480z"/>
					<path fill="#D28764" d="M599.9,479.8c0,0,8.8,8.2,9.5,12.9c0.7,4.7-6.6,8.4-10.1,2.4C595.9,489,599.9,479.8,599.9,479.8z"/>
					<path fill="#603913" d="M587.2,486.2l2.7-1.7c-0.3-1.3-0.9-2.3-1.7-2.3c-1,0-1.8,1.7-1.8,3.8c0,2.1,0.8,3.8,1.8,3.8
						c0.9,0,1.7-1.4,1.8-3.3L587.2,486.2z"/>
					<path fill="#603913" d="M609.4,483.3l2.7-1.7c-0.3-1.3-0.9-2.3-1.7-2.3c-1,0-1.8,1.7-1.8,3.8c0,2.1,0.8,3.8,1.8,3.8
						c0.9,0,1.7-1.4,1.8-3.3L609.4,483.3z"/>
					<path fill="#D28764" d="M520.4,373c0,0,3.7,10.9,4.1,12.7c0.4,1.8-0.4,3-0.4,3s-3.9,1.8-8.1,0.7l-0.5-3L520.4,373z"/>
				</g>
				<g>
					<path fill="#FECE96" d="M652.3,436.5c-3.4-0.3-4.2,1.8-4.2,1.8s-11.1,0.1-12.9,3.1c-1.8,3.1,0.3,4.3,0.3,4.3s-6.4,6.2-7.9,8.1
						c-1.5,2,0.2,4.6,2.4,5.1c0,0,1.2,4.6,4,4.6c0,0,2.4,6,5.8,5.4c0,0,2,5.4,5.2,4.5c3.2-0.9,15.6-11,18.1-16.8
						c2.5-5.8,0.3-9.1,0.3-9.1S660.3,438.5,652.3,436.5z"/>
					<path fill="#E6D7BE"  a:adobe-blending-mode="multiply" d="M663.1,456.6c2.5-5.8,0.3-9.1,0.3-9.1s-3.1-9-11.1-11c0,0,0,0,0,0
						c-0.8,1.2-2.1,2.7-5,4.5c-4.6,2.8-10.5,2.1-10.5,2.1s-0.9,0.7-2,1.7c0.3,0.6,0.8,0.9,0.8,0.9s-3.4,3.3-5.9,5.8
						c-0.1,0.7,0.3,1.3,1.2,1.7c4.8,1.7,9-3.1,11.8-2c2.8,1.1,11.3,13.1,11.3,13.1s-0.6,1.9-1.6,4.3
						C656.8,464.9,661.7,460,663.1,456.6z"/>
					<g>
						<path fill="#F7941E" d="M642.1,443.6l-26.5-26.5c0,0-7.1-1.9-11.4,0.8c-4.2,2.6-6.1,4.2-6.1,4.2l32.6,31.5
							C630.7,453.7,638.4,451.3,642.1,443.6z"/>
						<path fill="#FBAC44" d="M630.7,453.7c0,0,5.2-1.6,9.2-6.5c-5.1-5.4-27.4-28.9-30.6-29.2c-3-0.3-8.9,3.4-10.7,4.6L630.7,453.7z
							"/>
						<g  a:adobe-knockout="true">
							<g  a:adobe-knockout="false">
								<path fill="#F7941E" d="M600.9,422.7c0.1,0,0.1,0,0.2-0.1l5.3-4.3c-0.5,0.2-1.1,0.4-1.7,0.7l-3.9,3.2
									c-0.1,0.1-0.1,0.3,0,0.4C600.7,422.7,600.8,422.7,600.9,422.7z"/>
							</g>
							<g  a:adobe-knockout="false">
								<path fill="#F7941E" d="M601.7,423.6c-0.1-0.1-0.1-0.3,0-0.4l0,0l8.4-6.8c0.1-0.1,0.3-0.1,0.4,0l0,0c0.1,0.1,0.1,0.3,0,0.4
									l0,0l-8.4,6.8c0,0-0.1,0.1-0.2,0.1l0,0C601.8,423.7,601.7,423.7,601.7,423.6L601.7,423.6z"/>
							</g>
							<g  a:adobe-knockout="false">
								<path fill="#F7941E" d="M602.6,424.6c-0.1-0.1-0.1-0.3,0-0.4l0,0l8.4-6.8c0.1-0.1,0.3-0.1,0.4,0l0,0c0.1,0.1,0.1,0.3,0,0.4
									l0,0l-8.4,6.8c0,0-0.1,0.1-0.2,0.1l0,0C602.8,424.7,602.7,424.7,602.6,424.6L602.6,424.6z"/>
							</g>
							<g  a:adobe-knockout="false">
								<path fill="#F7941E" d="M603.6,425.6c-0.1-0.1-0.1-0.3,0-0.4l0,0l8.4-6.8c0.1-0.1,0.3-0.1,0.4,0l0,0c0.1,0.1,0.1,0.3,0,0.4
									l0,0l-8.4,6.8c0,0-0.1,0.1-0.2,0.1l0,0C603.7,425.7,603.7,425.7,603.6,425.6L603.6,425.6z"/>
							</g>
							<g  a:adobe-knockout="false">
								<path fill="#F7941E" d="M604.6,426.6c-0.1-0.1-0.1-0.3,0-0.4l0,0l8.4-6.8c0.1-0.1,0.3-0.1,0.4,0l0,0c0.1,0.1,0.1,0.3,0,0.4
									l0,0l-8.4,6.8c0,0-0.1,0.1-0.2,0.1l0,0C604.7,426.7,604.6,426.6,604.6,426.6L604.6,426.6z"/>
							</g>
							<g  a:adobe-knockout="false">
								<path fill="#F7941E" d="M605.6,427.6c-0.1-0.1-0.1-0.3,0-0.4l0,0l8.4-6.8c0.1-0.1,0.3-0.1,0.4,0l0,0c0.1,0.1,0.1,0.3,0,0.4
									l0,0l-8.4,6.8c0,0-0.1,0.1-0.2,0.1l0,0C605.7,427.7,605.6,427.6,605.6,427.6L605.6,427.6z"/>
							</g>
							<g  a:adobe-knockout="false">
								<path fill="#F7941E" d="M606.5,428.6c-0.1-0.1-0.1-0.3,0-0.4l0,0l8.4-6.8c0.1-0.1,0.3-0.1,0.4,0l0,0c0.1,0.1,0.1,0.3,0,0.4
									l0,0l-8.4,6.8c0,0-0.1,0.1-0.2,0.1l0,0C606.7,428.7,606.6,428.6,606.5,428.6L606.5,428.6z"/>
							</g>
							<g  a:adobe-knockout="false">
								<path fill="#F7941E" d="M607.5,429.5c-0.1-0.1-0.1-0.3,0-0.4l0,0l8.4-6.8c0.1-0.1,0.3-0.1,0.4,0l0,0c0.1,0.1,0.1,0.3,0,0.4
									l0,0l-8.4,6.8c0,0-0.1,0.1-0.2,0.1l0,0C607.6,429.6,607.6,429.6,607.5,429.5L607.5,429.5z"/>
							</g>
							<g  a:adobe-knockout="false">
								<path fill="#F7941E" d="M608.5,430.5c-0.1-0.1-0.1-0.3,0-0.4l0,0l8.4-6.8c0.1-0.1,0.3-0.1,0.4,0l0,0c0.1,0.1,0.1,0.3,0,0.4
									l0,0l-8.4,6.8c0,0-0.1,0.1-0.2,0.1l0,0C608.6,430.6,608.5,430.6,608.5,430.5L608.5,430.5z"/>
							</g>
							<g  a:adobe-knockout="false">
								<path fill="#F7941E" d="M609.5,431.5c-0.1-0.1-0.1-0.3,0-0.4l0,0l8.4-6.8c0.1-0.1,0.3-0.1,0.4,0l0,0c0.1,0.1,0.1,0.3,0,0.4
									l0,0l-8.4,6.8c0,0-0.1,0.1-0.2,0.1l0,0C609.6,431.6,609.5,431.6,609.5,431.5L609.5,431.5z"/>
							</g>
							<g  a:adobe-knockout="false">
								<path fill="#F7941E" d="M610.4,432.5c-0.1-0.1-0.1-0.3,0-0.4l0,0l8.4-6.8c0.1-0.1,0.3-0.1,0.4,0l0,0c0.1,0.1,0.1,0.3,0,0.4
									l0,0l-8.4,6.8c0,0-0.1,0.1-0.2,0.1l0,0C610.6,432.6,610.5,432.6,610.4,432.5L610.4,432.5z"/>
							</g>
							<g  a:adobe-knockout="false">
								<path fill="#F7941E" d="M611.4,433.5c-0.1-0.1-0.1-0.3,0-0.4l0,0l8.4-6.8c0.1-0.1,0.3-0.1,0.4,0l0,0c0.1,0.1,0.1,0.3,0,0.4
									l0,0l-8.4,6.8c-0.1,0-0.1,0.1-0.2,0.1l0,0C611.5,433.6,611.5,433.6,611.4,433.5L611.4,433.5z"/>
							</g>
							<g  a:adobe-knockout="false">
								<path fill="#F7941E" d="M612.4,434.5c-0.1-0.1-0.1-0.3,0-0.4l0,0l8.4-6.8c0.1-0.1,0.3-0.1,0.4,0l0,0c0.1,0.1,0.1,0.3,0,0.4
									l0,0l-8.4,6.8c-0.1,0-0.1,0.1-0.2,0.1l0,0C612.5,434.6,612.4,434.5,612.4,434.5L612.4,434.5z"/>
							</g>
							<g  a:adobe-knockout="false">
								<path fill="#F7941E" d="M613.4,435.5c-0.1-0.1-0.1-0.3,0-0.4l0,0l8.4-6.8c0.1-0.1,0.3-0.1,0.4,0l0,0c0.1,0.1,0.1,0.3,0,0.4
									l0,0l-8.4,6.8c0,0-0.1,0.1-0.2,0.1l0,0C613.5,435.6,613.4,435.5,613.4,435.5L613.4,435.5z"/>
							</g>
							<g  a:adobe-knockout="false">
								<path fill="#F7941E" d="M614.3,436.4c-0.1-0.1-0.1-0.3,0-0.4l0,0l8.4-6.8c0.1-0.1,0.3-0.1,0.4,0l0,0c0.1,0.1,0.1,0.3,0,0.4
									l0,0l-8.4,6.8c0,0-0.1,0.1-0.2,0.1l0,0C614.5,436.5,614.4,436.5,614.3,436.4L614.3,436.4z"/>
							</g>
							<g  a:adobe-knockout="false">
								<path fill="#F7941E" d="M615.3,437.4c-0.1-0.1-0.1-0.3,0-0.4l0,0l8.4-6.8c0.1-0.1,0.3-0.1,0.4,0l0,0c0.1,0.1,0.1,0.3,0,0.4
									l0,0l-8.4,6.8c0,0-0.1,0.1-0.2,0.1l0,0C615.4,437.5,615.4,437.5,615.3,437.4L615.3,437.4z"/>
							</g>
							<g  a:adobe-knockout="false">
								<path fill="#F7941E" d="M616.3,438.4c-0.1-0.1-0.1-0.3,0-0.4l0,0l8.4-6.8c0.1-0.1,0.3-0.1,0.4,0l0,0c0.1,0.1,0.1,0.3,0,0.4
									l0,0l-8.4,6.8c0,0-0.1,0.1-0.2,0.1l0,0C616.4,438.5,616.3,438.5,616.3,438.4L616.3,438.4z"/>
							</g>
							<g  a:adobe-knockout="false">
								<path fill="#F7941E" d="M617.2,439.4c-0.1-0.1-0.1-0.3,0-0.4l0,0l8.4-6.8c0.1-0.1,0.3-0.1,0.4,0l0,0c0.1,0.1,0.1,0.3,0,0.4
									l0,0l-8.4,6.8c0,0-0.1,0.1-0.2,0.1l0,0C617.4,439.5,617.3,439.5,617.2,439.4L617.2,439.4z"/>
							</g>
							<g  a:adobe-knockout="false">
								<path fill="#F7941E" d="M618.2,440.4c-0.1-0.1-0.1-0.3,0-0.4l0,0l8.4-6.8c0.1-0.1,0.3-0.1,0.4,0l0,0c0.1,0.1,0.1,0.3,0,0.4
									l0,0l-8.4,6.8c0,0-0.1,0.1-0.2,0.1l0,0C618.3,440.5,618.3,440.5,618.2,440.4L618.2,440.4z"/>
							</g>
							<g  a:adobe-knockout="false">
								<path fill="#F7941E" d="M619.2,441.4c-0.1-0.1-0.1-0.3,0-0.4l0,0l8.4-6.8c0.1-0.1,0.3-0.1,0.4,0l0,0c0.1,0.1,0.1,0.3,0,0.4
									l0,0l-8.4,6.8c-0.1,0-0.1,0.1-0.2,0.1l0,0C619.3,441.5,619.2,441.4,619.2,441.4L619.2,441.4z"/>
							</g>
							<g  a:adobe-knockout="false">
								<path fill="#F7941E" d="M620.2,442.4c-0.1-0.1-0.1-0.3,0-0.4l0,0l8.4-6.8c0.1-0.1,0.3-0.1,0.4,0l0,0c0.1,0.1,0.1,0.3,0,0.4
									l0,0l-8.4,6.8c0,0-0.1,0.1-0.2,0.1l0,0C620.3,442.5,620.2,442.4,620.2,442.4L620.2,442.4z"/>
							</g>
							<g  a:adobe-knockout="false">
								<path fill="#F7941E" d="M621.1,443.3c-0.1-0.1-0.1-0.3,0-0.4l0,0l8.4-6.8c0.1-0.1,0.3-0.1,0.4,0l0,0c0.1,0.1,0.1,0.3,0,0.4
									l0,0l-8.4,6.8c0,0-0.1,0.1-0.2,0.1l0,0C621.3,443.4,621.2,443.4,621.1,443.3L621.1,443.3z"/>
							</g>
							<g  a:adobe-knockout="false">
								<path fill="#F7941E" d="M622.1,444.3c-0.1-0.1-0.1-0.3,0-0.4l0,0l8.4-6.8c0.1-0.1,0.3-0.1,0.4,0l0,0c0.1,0.1,0.1,0.3,0,0.4
									l0,0l-8.4,6.8c0,0-0.1,0.1-0.2,0.1l0,0C622.2,444.4,622.2,444.4,622.1,444.3L622.1,444.3z"/>
							</g>
							<g  a:adobe-knockout="false">
								<path fill="#F7941E" d="M623.1,445.3c-0.1-0.1-0.1-0.3,0-0.4l0,0l8.4-6.8c0.1-0.1,0.3-0.1,0.4,0l0,0c0.1,0.1,0.1,0.3,0,0.4
									l0,0l-8.4,6.8c0,0-0.1,0.1-0.2,0.1l0,0C623.2,445.4,623.1,445.4,623.1,445.3L623.1,445.3z"/>
							</g>
							<g  a:adobe-knockout="false">
								<path fill="#F7941E" d="M624.1,446.3c-0.1-0.1-0.1-0.3,0-0.4l0,0l8.4-6.8c0.1-0.1,0.3-0.1,0.4,0l0,0c0.1,0.1,0.1,0.3,0,0.4
									l0,0l-8.4,6.8c0,0-0.1,0.1-0.2,0.1l0,0C624.2,446.4,624.1,446.4,624.1,446.3L624.1,446.3z"/>
							</g>
							<g  a:adobe-knockout="false">
								<path fill="#F7941E" d="M625,447.3c-0.1-0.1-0.1-0.3,0-0.4l0,0l8.4-6.8c0.1-0.1,0.3-0.1,0.4,0l0,0c0.1,0.1,0.1,0.3,0,0.4
									l0,0l-8.4,6.8c0,0-0.1,0.1-0.2,0.1l0,0C625.2,447.4,625.1,447.4,625,447.3L625,447.3z"/>
							</g>
							<g  a:adobe-knockout="false">
								<path fill="#F7941E" d="M626,448.3c-0.1-0.1-0.1-0.3,0-0.4l0,0l8.4-6.8c0.1-0.1,0.3-0.1,0.4,0l0,0c0.1,0.1,0.1,0.3,0,0.4
									l0,0l-8.4,6.8c0,0-0.1,0.1-0.2,0.1l0,0C626.1,448.4,626.1,448.3,626,448.3L626,448.3z"/>
							</g>
							<g  a:adobe-knockout="false">
								<path fill="#F7941E" d="M627,449.3c-0.1-0.1-0.1-0.3,0-0.4l0,0l8.4-6.8c0.1-0.1,0.3-0.1,0.4,0l0,0c0.1,0.1,0.1,0.3,0,0.4
									l0,0l-8.4,6.8c0,0-0.1,0.1-0.2,0.1l0,0C627.1,449.4,627,449.3,627,449.3L627,449.3z"/>
							</g>
							<g  a:adobe-knockout="false">
								<path fill="#F7941E" d="M628,450.2c-0.1-0.1-0.1-0.3,0-0.4l0,0l8.4-6.8c0.1-0.1,0.3-0.1,0.4,0l0,0c0.1,0.1,0.1,0.3,0,0.4
									l0,0l-8.4,6.8c0,0-0.1,0.1-0.2,0.1l0,0C628.1,450.3,628,450.3,628,450.2L628,450.2z"/>
							</g>
							<g  a:adobe-knockout="false">
								<path fill="#F7941E" d="M628.9,451.2c-0.1-0.1-0.1-0.3,0-0.4l0,0l8.4-6.8c0.1-0.1,0.3-0.1,0.4,0l0,0c0.1,0.1,0.1,0.3,0,0.4
									l0,0l-8.4,6.8c0,0-0.1,0.1-0.2,0.1l0,0C629.1,451.3,629,451.3,628.9,451.2L628.9,451.2z"/>
							</g>
							<g  a:adobe-knockout="false">
								<path fill="#F7941E" d="M629.9,452.2c-0.1-0.1-0.1-0.3,0-0.4l0,0l8.4-6.8c0.1-0.1,0.3-0.1,0.4,0l0,0c0.1,0.1,0.1,0.3,0,0.4
									l0,0l-8.4,6.8c-0.1,0-0.1,0.1-0.2,0.1l0,0C630,452.3,630,452.3,629.9,452.2L629.9,452.2z"/>
							</g>
							<g  a:adobe-knockout="false">
								<path fill="#F7941E" d="M630.9,453.2c-0.1-0.1-0.1-0.3,0-0.4l0,0l8.4-6.8c0.1-0.1,0.3-0.1,0.4,0l0,0c0.1,0.1,0.1,0.3,0,0.4
									l0,0l-8.4,6.8c0,0-0.1,0.1-0.2,0.1l0,0C631,453.3,630.9,453.3,630.9,453.2L630.9,453.2z"/>
							</g>
						</g>
					</g>
				</g>
				<g>
					<g>
						<path fill="#999996" d="M518.8,458.8l5.1,4.3c0,0,34-4.5,35.9-5.2c1.9-0.7,2.2-2.1,2.2-2.1l-41.7,1.3L518.8,458.8z"/>
						<path fill="#5D5654" d="M559.9,457.9c1.1-0.4,1.6-1,1.9-1.4c-6.2,1.7-36.6,5.4-36.6,5.4l1-4.7l-1.6-0.2l-0.8,0l-2.2,2.3
							l-1.9-1.5l-0.9,0.9l5.1,4.3C524,463.1,558,458.6,559.9,457.9z"/>
						<path fill="#EE3528" d="M504.3,457.4l14.9,2l2.5-1.9c1.6-1.2-1.9-0.8-6.5-1.4c-4.6-0.6-6-9.7-13-11.1c-7-1.5-10.7,3.6-9,7.6
							C494.9,456.6,504.3,457.4,504.3,457.4z M498.5,453.7c-3.5-1.5-4.5-7.8,1.5-6.6c6,1.2,7.2,7.7,7.2,7.7S501.9,455.2,498.5,453.7
							z"/>
						<path fill="#DC2327" d="M507.2,454.8c0,0-0.4,0-1,0l1.7,0.9c0,0,0-3.9-3.2-6.8c-3.2-2.8-7-1.9-7-1.9l0,0
							c0.6-0.1,1.4-0.1,2.3,0.1C506,448.3,507.2,454.8,507.2,454.8z M504.3,457.4l14.9,2l0.6-0.5c-4.4-0.5-21.5-2.6-24.4-4.6
							c-2-1.4-2.3-3.8-2.2-5.6c-0.5,1.2-0.5,2.6,0.1,3.9C494.9,456.6,504.3,457.4,504.3,457.4z"/>
						<path fill="#F5866E" d="M497.7,454.2c4.1,2.5,10.1,1.5,10.1,1.5l-0.6-0.9c0,0,0,0,0,0s-5.2,0.4-8.7-1.1
							c-2.9-1.2-4.1-5.7-1-6.6c-0.1,0-0.1,0-0.2,0C495.3,447.3,493.6,451.7,497.7,454.2z"/>
						<path fill="#F5866E" d="M508.7,450.4c3.3,5.2,4.8,5.9,6.8,6.1c1.5,0.2,4.8,0.6,6.4,0.8c1.1-1-2.3-0.7-6.7-1.3
							c-4.6-0.6-6-9.7-13-11.1c-0.3-0.1-0.6-0.1-0.9-0.2C503.1,445.4,506.4,446.8,508.7,450.4z"/>
						<path fill="#999996" d="M524.3,465.9l28.1-35c0,0-2.6-0.4-4.3,0.8c-1.7,1.2-25.5,27.5-25.5,27.5s0.1,5.6-1.8,7.8L524.3,465.9z
							"/>
						<g>
							<path fill="#EE3528" d="M522.3,472.4c-0.3-1.4,3.3-6.7,2.8-7.1c-0.6-0.4-4-0.3-4-0.3s-12.3,8.5-13.9,9.6
								c-1.7,1.1-7.8,3.1-8,9.1c-0.2,6,12.4,5.7,18.2,1.9C523.3,481.6,522.7,473.8,522.3,472.4z M504.6,485.4c-4-0.2-3.3-5-1-5.8
								c2.3-0.8,7.4-4.7,11.6-7.4c4.2-2.8,5,2.3,3.8,6.1c-1.2,3.8-5.4,5.7-5.4,5.7S508.6,485.6,504.6,485.4z"/>
							<path fill="#DC2327" d="M502.7,480.2c0.3-0.3,0.6-0.5,1-0.6c2.3-0.8,7.4-4.7,11.6-7.4c2.4-1.6,3.7-0.6,4.1,1.2
								c0.1-0.1,0.2-0.1,0.2-0.1s-0.8-3.9-3.2-2.3c-2.5,1.6-9.7,6.2-10.6,6.9C504.8,478.5,502.8,479.2,502.7,480.2z"/>
							<path fill="#DC2327" d="M517.4,485.5c5.8-3.9,5.2-11.6,4.9-13c0.3,2.1-0.5,8.3-4.4,11.5c-3.9,3.2-11.8,4.3-15.7,2.6
								c-1.8-0.8-2.6-2-2.9-3.1c0,0,0,0.1,0,0.1C499,489.6,511.6,489.3,517.4,485.5z"/>
							<circle fill="#BBB3AF" cx="525.3" cy="460.3" r="1.3"/>
							<path fill="#5D5654" d="M526.5,460.3c-0.1,0.2-0.2,0.4-0.4,0.5c-0.6,0.4-1.4,0.2-1.7-0.3c-0.2-0.2-0.2-0.5-0.2-0.7
								c-0.2,0.4-0.2,0.9,0.1,1.2c0.4,0.6,1.2,0.7,1.7,0.3C526.3,461.1,526.5,460.7,526.5,460.3z"/>
							<circle fill="#FFFFFF" cx="525" cy="459.9" r="0.4"/>
						</g>
						<path fill="#BBB3AF" d="M552.4,430.9c0,0,0,0-0.1,0c-1.4,0.9-4.3,3.6-10.2,11c-11.4,14.4-13.1,16.4-13.1,16.4s-0.3,0.8,0,1.7
							L552.4,430.9z"/>
					</g>
					<g>
						<g>
							<path fill="#E3DDD6" d="M427,473.1c0,0,13.8-24.7,13.8-28.2c0-3.5,0.4-34.6-15-32c-15.4,2.6-50.3,43.6-49.2,51
								C377.6,471.3,427,473.1,427,473.1z"/>
							<path fill="#AEA59D" d="M440.8,444.8c0-1.4,0.2-6.8-1.2-12.4c-2.3,9.2-24.2,29-24.2,29s6.5,6.9,13.6,8.1
								C432.8,462.5,440.8,447.5,440.8,444.8z"/>
						</g>
						<path fill="#475053" d="M477.4,457.4c0,0,6.4-2.4,6.4,13.5s-6.6,9.3-6.6,9.3L477.4,457.4z"/>
						<g>
							<path fill="#FECE96" d="M482.7,461.1l16.1,4.8l2.8-10.3l3.8,0c0,0-1.7-2.9-6.5-2.9C494.1,452.7,482.7,461.1,482.7,461.1z"/>
							<path fill="#E9A87B" d="M503.7,454l-3.3,0.3l-4.4,10.7l2.8,0.8l2.8-10.3l3.8,0C505.4,455.6,504.9,454.7,503.7,454z"/>
							<path fill="#FECE96" d="M489.6,460.8l9.3,2.6l18.9,11.5c0,0-3.9,7.5-11.1,11.4c-7.2,3.9-22.2-5.1-22.2-5.1l-8.7-0.9
								c0,0-3.6-1.2-5.1-9c-1.5-7.8,2.1-9.6,2.1-9.6L489.6,460.8z"/>
							<path fill="#E9A87B" d="M500.3,485.6c-6.9-0.5-14.6-6.7-14.6-6.7l-12.7-1.3c1.4,2.2,2.8,2.7,2.8,2.7l8.7,0.9
								c0,0,15,9,22.2,5.1c0.8-0.4,1.6-0.9,2.3-1.5C507.1,485.4,504.2,485.9,500.3,485.6z M511,483.3c0.5-0.5,1-0.9,1.5-1.4
								c-3.3,0.6-9.5,0.7-9.5,0.7C506,483.6,509.4,483.4,511,483.3z M507.5,479.4c2.9,0.4,5.8,0.2,7.2,0c0.4-0.5,0.8-1,1.1-1.4
								C512.9,478.7,507.5,479.4,507.5,479.4z"/>
						</g>
						<g>
							<path fill="#E3DDD6" d="M484.2,481.9c0,0-4.6-3.9-5.3-11.3c-0.7-7.4,2.2-12.7,2.2-12.7l-2.2-1.1c0,0-66.4-2.8-76.3-7.4
								c-9.9-4.6-33.5,4.6-26.1,27.5c7.4,22.9,50.5,10.6,68.8,9.2C463.7,484.7,484.2,481.9,484.2,481.9z"/>
							<path fill="#AEA59D" d="M378.1,480.4c10.5,18.1,49.9,7,67.3,5.7c18.4-1.4,38.8-4.2,38.8-4.2s-2.5-2.1-4.1-6.1
								c-11.6,2.2-54.3,9.7-78.9,7.5C390.4,482.4,383.1,481.4,378.1,480.4z"/>
						</g>
					</g>
				</g>
			</g>
			<g>
				<g>
					<g>
						<rect x="765.4" y="245" fill="#FFFFFF" width="267.9" height="472.3"/>
						<path fill="#DDF2F8" d="M765.4,349.7l267.9-38.4v-7.8l-267.9,38.4V349.7z M765.4,245v72.9l267.9-38.4V245H765.4z M765.4,717.4
							h267.9V519.5l-267.9,38.4V717.4z M765.4,543.1l267.9-38.4V320.4l-267.9,38.4V543.1z"/>
					</g>
					<rect x="754" y="240.1" fill="#924620" width="11.4" height="477.2"/>
					<rect x="1034.1" y="240.1" fill="#924620" width="11.4" height="477.2"/>
					<rect x="754.2" y="234.4" fill="#924620" width="291.3" height="11.4"/>
				</g>
				<g>
					<circle fill="#FFFFFF" cx="913" cy="375.1" r="0.8"/>
					<path fill="#CAC8CF" d="M904.3,410.9c0,0,18.7-4.9,25.1,38.5c6.4,43.4,3.5,81.2,3.5,81.2s-14.8,3.2-18,4.6
						C911.7,536.6,904.3,410.9,904.3,410.9z"/>
					<path fill="#E3DDD6" d="M913.8,547.9c0,0-2.1-127.8-4.2-135.9c-2.1-8.1-111.6-12.7-122.5,8.8c-4.8,9.4-6.6,63.7-6.7,126.4
						c0,4-9.9,17.5-9.9,21.5c0,4.7,10.2,8,10.2,12.7c0.2,72.2,1.8,138,1.8,138l111.2-2.5L913.8,547.9z"/>
					<path fill="#AEA59D" d="M846.7,409.2h-5c0,0,9.5,18,24.6,19.3s20.4-9.5,20.4-9.5s-2.1-5.6-4-7.7
						C880.8,409.2,846.7,409.2,846.7,409.2z"/>
					<path fill="#5E5350" d="M817.5,580c0,0-33.2,1.8-36.4,3.2c-3.2,1.4,0.7,129.2,0.7,129.2l42,2.1L817.5,580z"/>
					<polygon fill="#D39D4E" points="782.9,585.7 782.9,595.9 817.5,594.2 818.5,583.6 					"/>
					<path fill="#929D73" d="M910.1,408.1c0,0-4.1-0.8-6.6-0.8c8.2,38.4-2.2,49.9-2.6,51.6c-0.4,1.8-35.9,3.7-62.8,1.6
						c0,0-11.6-39-17.6-46.4c-6-7.4-13.4-5.6-13.4-5.6l-4.9,2.1c0,0,14.1-2.1,16.2,19.8c2.1,21.9-1.8,107-2.1,122.5
						c-0.4,15.5-39.9,27.5-39.9,27.5l0.4,5.3c0,0,25.4-4.6,34.2-14.1c0,0,3.9,135.9,6,143.3c2.1,7.4,100.3,2.8,100.3,2.8l18.4-48.4
						c0,0-20.8-241.8-21.5-246.8C913.5,417.7,910.1,408.1,910.1,408.1z"/>
					<path fill="#B8B877" d="M915.6,547.2l-1.4-24.4l-71.7,12.7c0,0-8.5,81.5,34.2,75.9C919.5,605.8,914.5,580.4,915.6,547.2z"/>
					<g>
						<path fill="#FECE96" d="M860.8,483.4c0,0,1.9-5.4,3.6-9.5c1.8-4.1-2.4-10.4-2.4-10.4s2.4-2.7,5.5-0.3c3.1,2.4,4.1,9.4,4.1,9.4
							s4.8,1.5,5.2,5.5C877.2,482.1,860.8,483.4,860.8,483.4z"/>
						<path fill="#E9A87B" d="M867.5,463.2c-1.5-1.2-2.9-1.1-3.8-0.8c0.9,0.3,1.9,0.7,2.8,1.5c3,2.8,3.2,7.9,3.2,7.9
							c1.3,4.4-0.7,8.4-0.7,8.4s5.4-1.4,7.8-2.3c-0.5-3.8-5.1-5.3-5.1-5.3S870.6,465.7,867.5,463.2z"/>
						<path fill="#E9A87B" d="M887.4,475.5c0,0,4.1-0.8,4.4-2.2c1.1-6.4-6.3-5.4-6.3-5.4s-10.4,2.4-11.7,3.4c-1.3,1,1.9,3.4,3.7,3.5
							C879.3,475,887.4,475.5,887.4,475.5z"/>
						<path fill="#FECE96" d="M866.4,476.8c0,0,4.6-3.2,7.3-3.5c5.9,1.8,13.4-6,17.6-3.7c0,0,1.8,8.3-1.1,15.9
							c-3,7.6-14.5,10.2-14.5,10.2l-7.2,4.9c0,0-3.5,1.4-9.7-3.6c-6.2-5-4.6-8.7-4.6-8.7L866.4,476.8z"/>
						<path fill="#E9A87B" d="M884.8,489.2c-5.6,4.1-9.7,4-9.7,4l-10.6,7.2c2.5,0.8,3.9,0.3,3.9,0.3l7.2-4.9c0,0,11.5-2.5,14.5-10.2
							c0.3-0.9,0.6-1.7,0.8-2.6C889.9,484.5,887.9,486.8,884.8,489.2z M891.5,480.5c0.1-0.7,0.2-1.4,0.3-2c-2.1,2.6-6.8,6.7-6.8,6.7
							C887.8,483.9,890.3,481.6,891.5,480.5z M886.3,479.7c2.4-1.5,4.5-3.6,5.5-4.6c0-0.6,0-1.2-0.1-1.8
							C890,475.8,886.3,479.7,886.3,479.7z"/>
					</g>
					<g>
						<path fill="#E3DDD6" d="M783.3,631.7c-0.2-0.5,0-1.2,0.6-1.4l0,0C801,623,802,602.9,801.9,599l0,0c0-0.4,0-0.6,0-0.6l0,0
							c0-0.6,0.4-1.1,1-1.1l0,0c0.6,0,1.1,0.4,1.1,1l0,0c0,0,0,0.3,0,0.7l0,0c0,4-0.8,25.1-19.4,33.2l0,0c-0.1,0.1-0.3,0.1-0.4,0.1
							l0,0C783.9,632.3,783.5,632.1,783.3,631.7L783.3,631.7z"/>
					</g>
					<path fill="#8D6B2B" d="M840.2,346.2c-4.1-1.8-8-5.2-10.2-9.1c-2-3.5-2.8-8.1-1.7-12c1.3-4.6,7.7-8.8,11.4-11.4
						c2.9-2,5.9-3.7,9-5.2c7.8-3.7,16.6-1.9,24.9-2.1c2.5,0,5.4-0.5,7.8,0c3,0.6,6,2.1,8.9,3.2c4,1.4,7.9,2.8,11.5,5.1
						c3.5,2.3,6.6,5.5,7.8,9.5c0.7,2.4,0.8,4.9,0.8,7.4c0.1,3.9,0.3,9.3-2.3,12.5c-1.7,2.1-4.8,2.5-7.3,3.4
						c-5.8,2.1-11.9,3-18.1,3.3c-12,0.5-24.1-0.9-35.9-3.1C844.9,347.2,842.2,347,840.2,346.2z"/>
					<path fill="#FECE96" d="M843.9,360.2c0,0-1.6-7.7-11.1-2.6c-9.5,5-4.8,26.5,2.1,24.6c6.9-1.9,9.3-5,9.3-5l1.9,33.9
						c0,0,14.3,14.6,24.4,12.4s12.2-5.8,12.2-5.8l-4.4-10.2c0,0,11.8,4.4,16.6-0.6c4.8-5,13.5-24.6,11.4-64.6c0,0-42.9,10.1-50.6,5
						c0,0-2.9,14.3-3.4,20.4s-0.5,6.1-0.5,6.1l-4.2-5L843.9,360.2z"/>
					<path fill="#E6D7BE"  a:adobe-blending-mode="multiply" d="M878.2,407.4c-3.5-1.2-7.4-2.9-10.8-5.3c-8.6-6.2-9.4-12.4-9.4-12.4
						s1.1,25.9,3.8,32.4c2.9,1.2,5.9,1.8,8.5,1.3c10.1-2.1,12.2-5.8,12.2-5.8L878.2,407.4z M878.2,407.4c0,0,0.5,0.2,1.2,0.4
						C879,407.7,878.6,407.6,878.2,407.4z"/>
					<path fill="#E6D7BE"  a:adobe-blending-mode="multiply" d="M855.6,347.2c0,0-2.9,14.3-3.4,20.4s-0.5,6.1-0.5,6.1l-4.2-5
						l-3.4-8.5c0,0-1.6-7.7-11.1-2.6c-9.5,5-4.8,26.5,2.1,24.6c6.9-1.9,9.3-5,9.3-5l1.9,33.9c0,0,2.7,2.7,6.5,5.6
						c-1.6-8.6-4.8-26.4-4.6-31.8c0.4-7.2,5.3-3.4,5.3-3.4s1.1-22.6,3.5-25.8c2.2-2.8,12.4-3.6,20.8-8.2
						C868,348.8,858.8,349.3,855.6,347.2z"/>
					<ellipse fill="#603913" cx="881.2" cy="370.9" rx="1.1" ry="2.9"/>
					<ellipse fill="#603913" cx="898.3" cy="368.8" rx="1.1" ry="2.9"/>
					<path fill="#8D6B2B" d="M885.4,361.7c0,0-2.5,0.4-4.9-0.2c-2.5-0.5-7.4-1.1-7.6,2.3c0,0,1.6-0.5,4.1,0
						C879.4,364.4,884.7,366.3,885.4,361.7z"/>
					<path fill="#8D6B2B" d="M892,359c0,0,2.5,0.1,4.9-0.7c2.4-0.8,7.3-1.8,7.8,1.5c0,0-1.6-0.4-4,0.4
						C898.3,361,893.2,363.5,892,359z"/>
					<path fill="#603913" d="M897.1,391c0,0-7.1,5.1-13.2,1.8c-6.2-3.4-7.6-6.2-7.6-6.2s2.5,8.1,10.6,8.3
						C895,395.1,897.1,391,897.1,391z"/>
					<path fill="#D28764" d="M892.5,373c0,0,3.7,10.9,4.1,12.7c0.4,1.8-0.4,3-0.4,3s-3.9,1.8-8.1,0.7l-0.5-3L892.5,373z"/>
					<path fill="#E3DDD6" d="M854.5,484.4l15.2,15.9c0,0-37.8,23.3-54,30c-16.2,6.7-32.1,8.8-41.3-6s0.4-87.9,6.7-96.4
						s6.7-10.6,13.8-9.5s26.1,12.7,24.7,31.1l-15.2,48.4C804.4,497.8,812.5,490.4,854.5,484.4z"/>
					<path fill="#AEA59D" d="M804.4,497.8l15.2-48.4c0.3-3.6-0.2-6.9-1.3-9.9c-1.5,11.4-22.4,65.2-18.2,62.1
						c3.2-2.4,8.8-5.8,11.3-7.4C806,496.3,804.4,497.8,804.4,497.8z"/>
					<path fill="#AEA59D" d="M869.7,500.3l-5.1-5.4c-8,7.3-33.6,29.4-54.2,31.8c-17.4,2.1-30.7-2-37-4.5c0.3,0.8,0.6,1.5,1,2
						c9.2,14.8,25.1,12.7,41.3,6C831.9,523.6,869.7,500.3,869.7,500.3z"/>
					<path fill="#8D6B2B" d="M828.3,325c0,0-3.3,7.1-0.4,17.2l1-5.4c0,0-0.5,12.8,4,20.8c0,0,7.9-2.3,10.9,5.4l1.5,8l1-5l5,11
						l4.3-29.7l0.5-13.5L828.3,325z"/>
				</g>
				<g>
					<polygon fill="#FFFFFF" points="999.4,415 995.7,434.6 1010,413.4 					"/>
					<circle fill="#FFFFFF" cx="935.9" cy="379.5" r="4.2"/>
					<circle fill="#FFFFFF" cx="950.7" cy="376.9" r="7.4"/>
					<circle fill="#FFFFFF" cx="926.6" cy="380.7" r="2.5"/>
					<circle fill="#FFFFFF" cx="918.2" cy="378.3" r="1.4"/>

						<ellipse transform="matrix(0.9844 -0.1761 0.1761 0.9844 -53.6041 180.5928)" fill="#FFFFFF" cx="990.4" cy="392.2" rx="47.9" ry="27.7"/>
					<g>
						<path fill="#E44145" d="M969.6,383.9c0,1,0.1,2.2,0.2,3.6l1.6,17.2c-1,0.6-2.1,1.4-3,2.4c-1.9-3.1-4.4-6.7-7.4-10.6l0.5,3.3
							l0.5,3c-1.1,0.8-2.6,1.8-4.5,3c-0.2-2.6-0.5-4.9-0.8-6.9c-0.3-1.9-0.7-4.9-1.2-9.1l4.1-3c1.3,1.8,2.7,3.7,4.3,5.6
							c0.6,0.6,1.1,1.2,1.6,1.8c-0.1-1.8-0.3-4.1-0.6-6.7C966.5,386.2,968.2,385.1,969.6,383.9z"/>
						<path fill="#E44145" d="M976.6,385.3c1-0.1,1.8,0,2.2,0.3c0.3,0.2,0.6,0.4,0.8,0.7c0.2,0.3,0.4,0.7,0.5,1.2
							c0.1,0.8-0.2,1.6-0.9,2.3c-0.8,0.9-1.8,1.5-3,1.8c-0.7,0.2-1.4,0-2.2-0.4c-0.4-0.3-0.7-0.8-0.9-1.5c-0.3-1.5,0.2-2.7,1.6-3.6
							C975.2,385.8,975.9,385.5,976.6,385.3z M980.4,391.1c0.2,4.6,0.6,8.5,1.1,11.8c-1.6,0.2-3.1,0.8-4.7,1.8c-1-3.3-2-7-2.9-11.2
							C977.7,392.5,979.9,391.7,980.4,391.1z"/>
						<path fill="#E44145" d="M991.4,381.6l1.5,7.2c-1.1-0.1-2,0.2-2.7,0.8c-0.8,0.6-1.2,1.3-1.4,2c-0.7,2.1-0.5,3.6,0.5,4.5
							c0.2,0.1,0.5,0.2,0.8,0.2c1.3,0.3,3.1-1.1,5.5-4.4l2,5.1c-1.7,2.1-3.3,3.6-4.9,4.4c-1.3,0.6-2.7,0.8-4,0.6
							c-1.6-0.3-2.9-1-4.1-2.2c-0.4-0.4-0.7-0.9-1-1.4c-0.4-0.9-0.6-1.7-0.7-2.5c-0.3-2.2,0.1-4.5,1.1-7c0.5-1.1,1.1-2.3,2-3.5
							C987.3,383.5,989.1,382.2,991.4,381.6z"/>
						<path fill="#E44145" d="M1009.1,379.8c0.1,0.9,0.2,1.8,0.3,2.6l0.1,0.7c0,0.3,0.1,0.7,0.2,1.1l0.1,0.5
							c-0.1,0.1-0.5,0.2-1.3,0.3c-0.2,0.1-0.8,0.2-1.7,0.4c-0.3,0.1-0.9,0.3-1.8,0.5c-0.6,0.2-1.2,0.4-1.7,0.7
							c0.1,0.6,0.2,1.1,0.3,1.5c1.9-0.6,3-0.8,3.2-0.8c0,1.2,0.2,2.4,0.5,3.6l-2.8,0.9l0,0.2c0.1,0.8,0.3,1.4,0.4,1.8l0.1,0
							c0.9-0.2,1.7-0.5,2.5-0.8c0.8-0.3,1.6-0.6,2.5-0.7c0.3-0.1,0.5-0.1,0.7-0.1c0.2,1.5,0.3,2.6,0.4,3.4l0.2,1.4
							c-3.2,0.7-6.1,1.6-8.6,2.8c-1-3.4-2.1-7.1-3.3-10.9c-0.1-0.3-0.3-0.9-0.6-2c-0.7-2.2-1.1-3.5-1.2-3.9c0.3-0.1,1.5-0.4,3.6-0.8
							C1003.5,381.5,1006.2,380.7,1009.1,379.8z"/>
						<path fill="#E44145" d="M1019.4,392.6c0.7-0.2,1.2-0.3,1.7-0.3c0.7,0.1,1.1,0.4,1.2,0.9c0.1,0.5,0,0.9-0.2,1.4
							c-0.3,0.6-0.9,1.4-1.7,2.2c-1.4,1.3-2.6,2-3.6,2.1c-1.1,0.1-1.8-0.3-2.3-1.1c-0.3-1.1,0.2-2.2,1.5-3.3
							C1017.3,393.6,1018.4,392.9,1019.4,392.6z M1019.8,373.9c0.2,7.3,0.5,12.5,0.9,15.4c-1.5,1.1-3.2,2-5,2.8c0,0,0,0-0.1,0
							c-0.2-3.3-0.9-8.2-1.9-14.7C1017.2,375.3,1019.3,374.1,1019.8,373.9z"/>
					</g>
				</g>
				<g>
					<path fill="#B7C2CF" d="M1060.3,721.6c0,0-30.4-141.2-35.3-167.3c-31.8-54.5-136.1-26.8-150.9-8.5c-14.8,18.4-8.7,173-8.7,173
						L1060.3,721.6z"/>
					<path fill="#98A5AF" d="M952.5,608.3c0,0,10.6,74.1,10.6,90s-9,16.4-9,16.4l-16.9,3.7c0,0-14.3-5.8-14.8-25.9
						c-0.5-20.1-6.4-85.8-6.4-85.8s-11.6,90.6-24.9,93.2s-16.4-93.7-14.8-134c0.4-11,2.9-19.7,6.2-26.6c-3.8,2.2-6.6,4.4-8.3,6.5
						c-14.8,18.4-8.7,173-8.7,173l116.9,1.7c-0.4-0.8-0.7-1.7-0.8-2.6C980.6,708.4,952.5,608.3,952.5,608.3z M1011.3,596.6
						c0,0,24.4,113.3,19.6,118.1s-7.9,0.5-7.9,0.5l-43.4-111.7c0,0,19.1,80,20.7,104.3c0.4,5.9-0.4,10-1.9,12.9l52.1,0.8
						c2.2-2.7,3.8-4.6,3.8-4.6L1011.3,596.6z"/>
					<path fill="#393E99" d="M936.6,540c0,0-10.6-2.1-7.4,5.8c3.2,7.9,39.7,23.3,39.7,23.3s1.1-19.6-3.2-24.9S936.6,540,936.6,540z"
						/>
					<path fill="#603913" d="M984.6,445.5c0,0,7.6,10.1,4.4,16.2c-3.2,6.2-12-12.2-12-12.2s0.7-1.4,1.2-2.5
						C978.8,446.1,984.6,445.5,984.6,445.5z"/>
					<path fill="#FECE96" d="M932.9,542.1c0,0,11.6,13.2,28.1,5.3c0,0-3.7-13.8-3.7-20.1c0,0,24.4,14.3,30.7-9.5
						c6.4-23.8,9.5-71-19.1-79.4s-48.2,3.7-46.1,44.5c0,0-8.5-3.2-9,8.5c-0.5,11.6,5.8,17.5,13.2,9.5L932.9,542.1z"/>
					<path fill="#A97C50" d="M940.8,502.6c0,0-3.5-3.5-6.2-15.4c-2.6-11.8,2.6-28.4,2.6-28.4l-13.4-3.4c0,0-5.3,8.1-4.6,18.4
						C920,484,920,484,920,484s6.9,5.8,10.6,11.8c3.7,6,7.2,8.6,7.2,8.6L940.8,502.6z"/>
					<path fill="#603913" d="M922.5,450.8c0,0-7.2,5.6-5.8,12.2c1.4,6.5,2.8,7.1,2.8,7.1s-0.4-9,6.9-14.3
						C926.9,450.8,922.5,450.8,922.5,450.8z"/>
					<path fill="#603913" d="M940.8,502.6c0,0,13.9,14.3,16.1,15s-1.8,5.8-1.8,5.8s-15-14.3-18-19.6l3-2.5L940.8,502.6z"/>
					<path fill="#603913" d="M982.5,504.5l-1.4,2.5c0,0,5.8,1.2,6.5,4.8c0.7,3.5-1.6,8.5-4.1,9.7c-2.5,1.2-4.1-3-4.1-3
						s-2.6,4.1-6.4,4.8c-3.7,0.7-8.5-6.9-5.8-10.2c2.6-3.4,7.8-5.5,7.8-5.5l-0.2-2.3c0,0-5.6,0.4-11.6,4.8
						c-6,4.4-10.2,11.5-10.2,11.5c-0.3,1.8,1.7,3.9,4.6,6c3,1.6,24.4,12.4,30.4-9.7c0.8-2.9,1.5-6.2,2.2-9.8
						C987.1,504.7,982.5,504.5,982.5,504.5z"/>
					<path fill="#E6D7BE"  a:adobe-blending-mode="multiply" d="M961.2,529.1L941.4,509l5.7,40.7c4,0.6,8.7,0.2,13.9-2.3
						c0,0-3.7-13.8-3.7-20.1C957.3,527.3,958.8,528.2,961.2,529.1L961.2,529.1z"/>
					<path fill="#603913" d="M959.6,478.3c0,0-4-1.3-7.7,0s-4.2,2.9-4.2,2.9s0.5-6.1,4.8-6.6c4.2-0.5,7.4-1.3,7.4-1.3
						S962.8,475.4,959.6,478.3z"/>
					<path fill="#603913" d="M979.9,476.3c0,0,2.8-3.1,6.7-3.7c3.9-0.6,5.1,0.5,5.1,0.5s-3.4-5.1-7.4-3.5c-4,1.6-7.1,2.4-7.1,2.4
						S975.7,475.2,979.9,476.3z"/>
					<path fill="#D28764" d="M972,479.8c0,0,8.8,8.2,9.5,12.9c0.7,4.7-6.6,8.4-10.1,2.4C968,489,972,479.8,972,479.8z"/>
					<path fill="#603913" d="M959.3,486.2l2.7-1.7c-0.3-1.3-0.9-2.3-1.7-2.3c-1,0-1.8,1.7-1.8,3.8c0,2.1,0.8,3.8,1.8,3.8
						c0.9,0,1.7-1.4,1.8-3.3L959.3,486.2z"/>
					<path fill="#603913" d="M981.5,483.3l2.7-1.7c-0.3-1.3-0.9-2.3-1.7-2.3c-1,0-1.8,1.7-1.8,3.8c0,2.1,0.8,3.8,1.8,3.8
						c0.9,0,1.7-1.4,1.8-3.3L981.5,483.3z"/>
					<path fill="#603913" d="M969.3,508.6l9,0.4l5.1-1.6l0.7-2.8c0,0-9-0.9-15.2,2.5C962.7,510.3,969.3,508.6,969.3,508.6z"/>
					<path fill="#603913" d="M923.9,455.4c0,0,11.1,4.1,13.4,4.1s7.6,0,14.1-5.5s15.4-8.8,23.7-7.6c8.3,1.2,15,3.9,17.7-0.7
						c0,0-4.4,2.1-7.4-1.8c-3-3.9-16.1-14.5-34.2-14.1c-18.2,0.4-24.9,6.5-27.9,12.2C920.2,447.7,918.8,453.1,923.9,455.4z"/>
					<path fill="#603913" d="M919.1,466.2c0,0,1.9-0.2,3-1.1c1.1-0.9,1.6-2.5,1.6-2.5l0.5,2.5l1.6-2.6l0.2,2.1l2.1-2.5l0.2,2.1
						l1.9-2.6l0.2,1.6c0,0,4.4-2.1,4.9-4.9c0.5-2.8-10.1-3.2-10.1-3.2S918.2,457.9,919.1,466.2z"/>
					<path fill="#603913" d="M972.6,513.3c0,0,5.1,1.1,8.6-1.1c3.5-2.1,3.5-2.1,3.5-2.1s0.7,1.9-4.6,3.9
						C974.9,516,972.6,513.3,972.6,513.3z"/>
				</g>
			</g>
			<g>
				<rect x="319" y="729.2" fill="#DAB99A" width="802" height="125.2"/>
				<g>
					<g>
						<g>
							<path fill="#C0A48A" d="M1044.2,762.5h-68.4c-2.3,0-4.1,1.8-4.1,4.1v13.8c0,2.3,1.8,4.1,4.1,4.1h68.4c2.3,0,4.1-1.8,4.1-4.1
								v-13.8C1048.3,764.4,1046.5,762.5,1044.2,762.5z"/>
						</g>
						<g>
							<path fill="#C0A48A" d="M1003.2,793.9h-68.4c-2.3,0-4.1,1.8-4.1,4.1v13.8c0,2.3,1.8,4.1,4.1,4.1h68.4c2.3,0,4.1-1.8,4.1-4.1
								V798C1007.3,795.7,1005.5,793.9,1003.2,793.9z"/>
						</g>
						<g>
							<path fill="#C0A48A" d="M760.7,759.5h-68.4c-2.3,0-4.1,1.8-4.1,4.1v13.8c0,2.3,1.8,4.1,4.1,4.1h68.4c2.3,0,4.1-1.8,4.1-4.1
								v-13.8C764.8,761.3,763,759.5,760.7,759.5z"/>
						</g>
						<g>
							<path fill="#C0A48A" d="M804.7,802.1h-68.4c-2.3,0-4.1,1.8-4.1,4.1V820c0,2.3,1.8,4.1,4.1,4.1h68.4c2.3,0,4.1-1.8,4.1-4.1
								v-13.8C808.8,804,807,802.1,804.7,802.1z"/>
						</g>
						<g>
							<path fill="#C0A48A" d="M674,802.1h-68.4c-2.3,0-4.1,1.8-4.1,4.1V820c0,2.3,1.8,4.1,4.1,4.1H674c2.3,0,4.1-1.8,4.1-4.1v-13.8
								C678.1,804,676.3,802.1,674,802.1z"/>
						</g>
						<g>
							<path fill="#C0A48A" d="M466.1,782.9h-68.4c-2.3,0-4.1,1.8-4.1,4.1v13.8c0,2.3,1.8,4.1,4.1,4.1h68.4c2.3,0,4.1-1.8,4.1-4.1
								V787C470.2,784.7,468.4,782.9,466.1,782.9z"/>
						</g>
						<g>
							<path fill="#C0A48A" d="M373.7,816.2H319v22h54.7c2.3,0,4.1-1.8,4.1-4.1v-13.8C377.8,818,375.9,816.2,373.7,816.2z"/>
						</g>
						<g>
							<path fill="#C0A48A" d="M1121,762.5h-34.2c-2.3,0-4.1,1.8-4.1,4.1v13.8c0,2.3,1.8,4.1,4.1,4.1h34.2V762.5z"/>
						</g>
					</g>
				</g>
				<rect x="301.2" y="711.2" fill="#97806D" width="837.6" height="18"/>
			</g>
			<g>
				<circle fill="#904B3E" cx="289.9" cy="218.3" r="34"/>
				<circle fill="#904B3E" cx="289.9" cy="459.2" r="34"/>
				<rect x="257.3" y="245" fill="#FFF1E7" width="65.1" height="197"/>
				<g>
					<polygon fill="#CE5A28" points="322.4,262.7 257.3,291.2 257.3,269 322.4,240.5 					"/>
					<polygon fill="#A7A29F" points="322.4,308.3 257.3,336.7 257.3,314.5 322.4,286.1 					"/>
					<polygon fill="#A7A29F" points="322.4,400.8 257.3,429.2 257.3,407 322.4,378.6 					"/>
					<polygon fill="#CE5A28" points="322.4,353.8 257.3,382.2 257.3,360 322.4,331.6 					"/>
					<polygon fill="#FAE3BA" points="270.1,285.6 284.5,279.3 284.5,257.1 270.1,263.4 					"/>
					<polygon fill="#C6C1BD" points="270.1,331.1 284.5,324.8 284.5,302.6 270.1,308.9 					"/>
					<polygon fill="#FAE3BA" points="270.1,376.6 284.5,370.4 284.5,348.2 270.1,354.4 					"/>
					<polygon fill="#C6C1BD" points="270.1,423.6 284.5,417.3 284.5,395.1 270.1,401.4 					"/>
				</g>
				<rect x="248.1" y="219.5" fill="#A85748" width="83.5" height="15.7"/>
				<rect x="257.3" y="235.2" fill="#884E3D" width="65.1" height="9.8"/>
				<rect x="248.1" y="442.3" fill="#A85748" width="83.5" height="15.7"/>
				<rect x="257.3" y="432.5" fill="#884E3D" width="65.1" height="9.8"/>
				<rect x="257.3" y="245" fill="#884E3D" width="4.1" height="197"/>
				<rect x="318.3" y="245" fill="#884E3D" width="4.1" height="197"/>
				<path fill="#B15F51" d="M287.2,188.9c0,0-18.8,0-25.8,24.3l7.3,2C268.7,215.2,271.7,193.7,287.2,188.9z"/>
			</g>
			<g>
				<polygon opacity="0.7" fill="#FFFFFF"  a:adobe-blending-mode="softLight" points="617.7,250.1 537.9,250.1 458.1,250.1
					346,711.2 537.9,711.2 729.8,711.2 				"/>
				<g>
					<rect x="533.3" y="125.6" fill="#FBC872" width="3.3" height="75.2"/>
					<path fill="#E03E44" d="M536.6,175.1c0,0-75.1,0-81.6,75.1h81.6h81.6C611.7,175.1,536.6,175.1,536.6,175.1z"/>
					<path fill="#E85661" d="M518.8,177.4c-2.5,0.6-5.1,1.3-7.9,2.1c-11.8,7.4-30.6,26.1-32.2,70.6h26.3
						C504.9,250.1,498.1,207.5,518.8,177.4z"/>
					<ellipse fill="#FACA95" cx="536.6" cy="250.1" rx="81.6" ry="9.8"/>
				</g>
			</g>
			<g>
				<polygon opacity="0.7" fill="#FFFFFF"  a:adobe-blending-mode="softLight" points="984.1,250.1 904.3,250.1 824.5,250.1
					712.4,711.2 904.3,711.2 1096.2,711.2 				"/>
				<g>
					<rect x="899.8" y="125.6" fill="#FBC872" width="3.3" height="75.2"/>
					<path fill="#E03E44" d="M903,175.1c0,0-75.1,0-81.6,75.1H903h81.6C978.1,175.1,903,175.1,903,175.1z"/>
					<path fill="#E85661" d="M885.2,177.4c-2.5,0.6-5.1,1.3-7.9,2.1c-11.8,7.4-30.6,26.1-32.2,70.6h26.3
						C871.3,250.1,864.5,207.5,885.2,177.4z"/>
					<ellipse fill="#FACA95" cx="903" cy="250.1" rx="81.6" ry="9.8"/>
				</g>
			</g>
			<g>
				<path fill="#F04B23" d="M732.9,628.3l-4.7-4.2c-1.3-1.1-2.9-1.7-4.6-1.7h-16.9c-1.5,0-3,0.5-4.1,1.4l-4.7,4.6
					c-2.3,2.3-3.7,5.4-3.7,8.7v69c0,2.8,2.3,5.1,5.1,5.1h32.3c2.8,0,5.1-2.3,5.1-5.1v-68.7C736.9,633.9,735.5,630.6,732.9,628.3z"/>
				<circle fill="#FFF0D0" cx="715.6" cy="666.2" r="14.9"/>
				<path fill="#FAE3BA" d="M723,611h-14.7c-1.8,0-3.3,1.5-3.3,3.3v8.1h21.3v-8.1C726.3,612.5,724.8,611,723,611z"/>
			</g>
			<g>
				<g>
					<path fill="#0A8E92" d="M842,668.6l-4.7-4.2c-1.3-1.1-2.9-1.7-4.6-1.7h-33.2c-1.5,0-3,0.5-4.1,1.4l-4.7,4.6
						c-2.3,2.3-3.7,5.4-3.7,8.7v28.8c0,2.8,2.3,5.1,5.1,5.1h48.6c2.8,0,5.1-2.3,5.1-5.1v-28.5C846.1,674.2,844.6,670.9,842,668.6z"
						/>
					<path fill="#3FC0C2" d="M832.1,651.3h-31c-1.8,0-3.3,1.5-3.3,3.3v8.1h37.6v-8.1C835.4,652.7,833.9,651.3,832.1,651.3z"/>
				</g>
				<ellipse fill="#FFF0D0" cx="816.6" cy="686.9" rx="21.1" ry="14.9"/>
			</g>
			<g>
				<polygon fill="#BBB3AF" points="592.5,683.2 601.6,684.6 603.3,686.9 601,688.2 604.5,688.7 601.5,690.4 605.5,690.3 603.5,692
					606.6,693.4 604.3,694.5 607.7,695.4 605,697.4 608.5,698.9 606.6,700.2 609.7,701.7 607.3,703.5 610.2,705.8 601.7,705.5
					"/>
				<path fill="#999996" d="M587.2,681.6c0,0,3.9-1.7,7.9,0.2c4,1.9,6.9,0.3,6.9,0.3l1.2,2.1c0,0-4.8,1.5-6.6,1.1l6.5,18.7
					c0,0,6,1.3,8.6-1.1l0.2,3.5c0,0-16.6,6.9-21.1,4.5C586.4,708.5,587.2,681.6,587.2,681.6z"/>
				<path fill="#475053" d="M527.8,685.2l63-6.2l8.2,24.2l-6.1,8.2l-51.2,0.1l-10.5-7.3c0,0-3.6-6.9-3.8-8.1
					C527.2,694.9,527.8,685.2,527.8,685.2z"/>
				<path fill="#B2ACAC"  a:adobe-blending-mode="multiply" d="M599,703.3L599,703.3l-67.7,1c0,0,5.3,2.3,6.6,4.6l3.8,2.7l51.2-0.1
					L599,703.3z"/>
			</g>
			<g>
				<path fill="#F7941E" d="M380.3,649.3l-13.2-60.8c0,0-8.3-9-16.6-9.1s-12.3,0.5-12.3,0.5l17.2,73.3
					C355.4,653.1,368.2,656.7,380.3,649.3z"/>
				<path fill="#FBAC44" d="M355.4,653.1c0,0,8.8,2.4,18.7-0.9c-2.3-12.1-12.4-65-16.6-68.3c-3.9-3.2-15.5-3.2-19.1-3.1L355.4,653.1
					z"/>
				<g  a:adobe-knockout="true">
					<g  a:adobe-knockout="false">
						<path fill="#F7941E" d="M341.5,583.1c0.1,0.1,0.2,0.1,0.3,0.1l11.2-1.2c-0.9-0.2-1.9-0.4-2.9-0.6l-8.3,0.9
							c-0.2,0-0.4,0.2-0.4,0.5C341.3,582.9,341.4,583.1,341.5,583.1z"/>
					</g>
					<g  a:adobe-knockout="false">
						<path fill="#F7941E" d="M341.8,585.1c0-0.2,0.2-0.5,0.4-0.5l0,0l17.9-2c0.2,0,0.5,0.2,0.5,0.4l0,0c0,0.2-0.1,0.5-0.4,0.5l0,0
							l-17.9,2c-0.1,0-0.2,0-0.3-0.1l0,0C341.8,585.3,341.8,585.2,341.8,585.1L341.8,585.1z"/>
					</g>
					<g  a:adobe-knockout="false">
						<path fill="#F7941E" d="M342.2,587.3c0-0.2,0.1-0.5,0.4-0.5l0,0l17.9-2c0.2,0,0.5,0.1,0.5,0.4l0,0c0,0.2-0.1,0.5-0.4,0.5l0,0
							l-17.9,2c-0.1,0-0.2,0-0.3-0.1l0,0C342.3,587.6,342.2,587.4,342.2,587.3L342.2,587.3z"/>
					</g>
					<g  a:adobe-knockout="false">
						<path fill="#F7941E" d="M342.7,589.6c0-0.2,0.2-0.5,0.4-0.5l0,0l17.9-2c0.2,0,0.5,0.2,0.5,0.4l0,0c0,0.2-0.1,0.5-0.4,0.5l0,0
							l-17.9,2c-0.1,0-0.2,0-0.3-0.1l0,0C342.8,589.8,342.7,589.7,342.7,589.6L342.7,589.6z"/>
					</g>
					<g  a:adobe-knockout="false">
						<path fill="#F7941E" d="M343.2,591.8c0-0.2,0.1-0.5,0.4-0.5l0,0l17.9-2c0.2,0,0.5,0.2,0.5,0.4l0,0c0,0.2-0.1,0.5-0.4,0.5l0,0
							l-17.9,2c-0.1,0-0.2,0-0.3-0.1l0,0C343.3,592.1,343.2,592,343.2,591.8L343.2,591.8z"/>
					</g>
					<g  a:adobe-knockout="false">
						<path fill="#F7941E" d="M343.7,594.1c0-0.2,0.1-0.5,0.4-0.5l0,0l17.9-2c0.2,0,0.5,0.2,0.5,0.4l0,0c0,0.2-0.1,0.5-0.4,0.5l0,0
							l-17.9,2c-0.1,0-0.2,0-0.3-0.1l0,0C343.7,594.3,343.7,594.2,343.7,594.1L343.7,594.1z"/>
					</g>
					<g  a:adobe-knockout="false">
						<path fill="#F7941E" d="M344.1,596.3c0-0.2,0.1-0.5,0.4-0.5l0,0l17.9-2c0.2,0,0.5,0.1,0.5,0.4l0,0c0,0.2-0.1,0.5-0.4,0.5l0,0
							l-17.9,2c-0.1,0-0.2,0-0.3-0.1l0,0C344.2,596.6,344.1,596.5,344.1,596.3L344.1,596.3z"/>
					</g>
					<g  a:adobe-knockout="false">
						<path fill="#F7941E" d="M344.6,598.6c0-0.2,0.1-0.5,0.4-0.5l0,0l17.9-2c0.2,0,0.5,0.2,0.5,0.4l0,0c0,0.2-0.1,0.5-0.4,0.5l0,0
							l-17.9,2c-0.1,0-0.2,0-0.3-0.1l0,0C344.7,598.8,344.6,598.7,344.6,598.6L344.6,598.6z"/>
					</g>
					<g  a:adobe-knockout="false">
						<path fill="#F7941E" d="M345.1,600.8c0-0.2,0.1-0.5,0.4-0.5l0,0l17.9-2c0.2,0,0.5,0.1,0.5,0.4l0,0c0,0.2-0.1,0.5-0.4,0.5l0,0
							l-17.9,2c-0.1,0-0.2,0-0.3-0.1l0,0C345.2,601.1,345.1,601,345.1,600.8L345.1,600.8z"/>
					</g>
					<g  a:adobe-knockout="false">
						<path fill="#F7941E" d="M345.6,603.1c0-0.2,0.2-0.5,0.4-0.5l0,0l17.9-2c0.2,0,0.5,0.2,0.5,0.4l0,0c0,0.2-0.1,0.5-0.4,0.5l0,0
							l-17.9,2c-0.1,0-0.2,0-0.3-0.1l0,0C345.7,603.3,345.6,603.2,345.6,603.1L345.6,603.1z"/>
					</g>
					<g  a:adobe-knockout="false">
						<path fill="#F7941E" d="M346,605.3c0-0.2,0.1-0.5,0.4-0.5l0,0l17.9-2c0.2,0,0.5,0.1,0.5,0.4l0,0c0,0.2-0.2,0.5-0.4,0.5l0,0
							l-17.9,2c-0.1,0-0.2,0-0.3-0.1l0,0C346.1,605.6,346,605.5,346,605.3L346,605.3z"/>
					</g>
					<g  a:adobe-knockout="false">
						<path fill="#F7941E" d="M346.5,607.6c0-0.2,0.1-0.5,0.4-0.5l0,0l17.9-2c0.2,0,0.5,0.2,0.5,0.4l0,0c0,0.2-0.2,0.5-0.4,0.5l0,0
							l-17.9,2c-0.1,0-0.2,0-0.3-0.1l0,0C346.6,607.8,346.5,607.7,346.5,607.6L346.5,607.6z"/>
					</g>
					<g  a:adobe-knockout="false">
						<path fill="#F7941E" d="M347,609.8c0-0.2,0.1-0.5,0.4-0.5l0,0l17.9-2c0.2,0,0.5,0.1,0.5,0.4l0,0c0,0.2-0.1,0.5-0.4,0.5l0,0
							l-17.9,2c-0.1,0-0.2,0-0.3-0.1l0,0C347.1,610.1,347,610,347,609.8L347,609.8z"/>
					</g>
					<g  a:adobe-knockout="false">
						<path fill="#F7941E" d="M347.5,612.1c0-0.2,0.1-0.5,0.4-0.5l0,0l17.9-2c0.2,0,0.5,0.2,0.5,0.4l0,0c0,0.2-0.2,0.5-0.4,0.5l0,0
							l-17.9,2c-0.1,0-0.2,0-0.3-0.1l0,0C347.6,612.3,347.5,612.2,347.5,612.1L347.5,612.1z"/>
					</g>
					<g  a:adobe-knockout="false">
						<path fill="#F7941E" d="M347.9,614.3c0-0.2,0.1-0.5,0.4-0.5l0,0l17.9-2c0.2,0,0.5,0.1,0.5,0.4l0,0c0,0.2-0.1,0.5-0.4,0.5l0,0
							l-17.9,2c-0.1,0-0.2,0-0.3-0.1l0,0C348,614.6,348,614.5,347.9,614.3L347.9,614.3z"/>
					</g>
					<g  a:adobe-knockout="false">
						<path fill="#F7941E" d="M348.4,616.6c0-0.2,0.1-0.5,0.4-0.5l0,0l17.9-2c0.2,0,0.5,0.1,0.5,0.4l0,0c0,0.2-0.1,0.5-0.4,0.5l0,0
							l-17.9,2c-0.1,0-0.2,0-0.3-0.1l0,0C348.5,616.8,348.4,616.7,348.4,616.6L348.4,616.6z"/>
					</g>
					<g  a:adobe-knockout="false">
						<path fill="#F7941E" d="M348.9,618.8c0-0.2,0.2-0.5,0.4-0.5l0,0l17.9-2c0.2,0,0.5,0.2,0.5,0.4l0,0c0,0.2-0.1,0.5-0.4,0.5l0,0
							l-17.9,2c-0.1,0-0.2,0-0.3-0.1l0,0C349,619.1,348.9,619,348.9,618.8L348.9,618.8z"/>
					</g>
					<g  a:adobe-knockout="false">
						<path fill="#F7941E" d="M349.4,621.1c0-0.2,0.1-0.5,0.4-0.5l0,0l17.9-2c0.2,0,0.5,0.1,0.5,0.4l0,0c0,0.2-0.1,0.5-0.4,0.5l0,0
							l-17.9,2c-0.1,0-0.2,0-0.3-0.1l0,0C349.5,621.4,349.4,621.2,349.4,621.1L349.4,621.1z"/>
					</g>
					<g  a:adobe-knockout="false">
						<path fill="#F7941E" d="M349.8,623.4c0-0.2,0.2-0.5,0.4-0.5l0,0l17.9-2c0.2,0,0.5,0.1,0.5,0.4l0,0c0,0.2-0.2,0.5-0.4,0.5l0,0
							l-17.9,2c-0.1,0-0.2,0-0.3-0.1l0,0C349.9,623.6,349.9,623.5,349.8,623.4L349.8,623.4z"/>
					</g>
					<g  a:adobe-knockout="false">
						<path fill="#F7941E" d="M350.3,625.6c0-0.2,0.1-0.5,0.4-0.5l0,0l17.9-2c0.2,0,0.5,0.2,0.5,0.4l0,0c0,0.2-0.2,0.5-0.4,0.5l0,0
							l-17.9,2c-0.1,0-0.2,0-0.3-0.1l0,0C350.4,625.9,350.3,625.7,350.3,625.6L350.3,625.6z"/>
					</g>
					<g  a:adobe-knockout="false">
						<path fill="#F7941E" d="M350.8,627.9c0-0.2,0.2-0.5,0.4-0.5l0,0l17.9-2c0.2,0,0.5,0.1,0.5,0.4l0,0c0,0.2-0.1,0.5-0.4,0.5l0,0
							l-17.9,2c-0.1,0-0.2,0-0.3-0.1l0,0C350.9,628.1,350.8,628,350.8,627.9L350.8,627.9z"/>
					</g>
					<g  a:adobe-knockout="false">
						<path fill="#F7941E" d="M351.3,630.1c0-0.2,0.2-0.5,0.4-0.5l0,0l17.9-2c0.2,0,0.5,0.1,0.5,0.4l0,0c0,0.2-0.1,0.5-0.4,0.5l0,0
							l-17.9,2c-0.1,0-0.2,0-0.3-0.1l0,0C351.4,630.4,351.3,630.3,351.3,630.1L351.3,630.1z"/>
					</g>
					<g  a:adobe-knockout="false">
						<path fill="#F7941E" d="M351.7,632.4c0-0.2,0.2-0.5,0.4-0.5l0,0l17.9-2c0.2,0,0.5,0.2,0.5,0.4l0,0c0,0.2-0.2,0.5-0.4,0.5l0,0
							l-17.9,2c-0.1,0-0.2,0-0.3-0.1l0,0C351.8,632.6,351.8,632.5,351.7,632.4L351.7,632.4z"/>
					</g>
					<g  a:adobe-knockout="false">
						<path fill="#F7941E" d="M352.2,634.6c0-0.2,0.1-0.5,0.4-0.5l0,0l17.9-2c0.2,0,0.5,0.1,0.5,0.4l0,0c0,0.2-0.1,0.5-0.4,0.5l0,0
							l-17.9,2c-0.1,0-0.2,0-0.3-0.1l0,0C352.3,634.9,352.2,634.8,352.2,634.6L352.2,634.6z"/>
					</g>
					<g  a:adobe-knockout="false">
						<path fill="#F7941E" d="M352.7,636.9c0-0.2,0.2-0.5,0.4-0.5l0,0l17.9-2c0.2,0,0.5,0.1,0.5,0.4l0,0c0,0.2-0.2,0.5-0.4,0.5l0,0
							l-17.9,2c-0.1,0-0.2,0-0.3-0.1l0,0C352.8,637.1,352.7,637,352.7,636.9L352.7,636.9z"/>
					</g>
					<g  a:adobe-knockout="false">
						<path fill="#F7941E" d="M353.2,639.1c0-0.2,0.2-0.5,0.4-0.5l0,0l17.9-2c0.2,0,0.5,0.1,0.5,0.4l0,0c0,0.2-0.2,0.5-0.4,0.5l0,0
							l-17.9,2c-0.1,0-0.2,0-0.3-0.1l0,0C353.3,639.4,353.2,639.3,353.2,639.1L353.2,639.1z"/>
					</g>
					<g  a:adobe-knockout="false">
						<path fill="#F7941E" d="M353.6,641.4c0-0.2,0.2-0.5,0.4-0.5l0,0l17.9-2c0.2,0,0.5,0.1,0.5,0.4l0,0c0,0.2-0.2,0.5-0.4,0.5l0,0
							l-17.9,2c-0.1,0-0.2,0-0.3-0.1l0,0C353.7,641.6,353.7,641.5,353.6,641.4L353.6,641.4z"/>
					</g>
					<g  a:adobe-knockout="false">
						<path fill="#F7941E" d="M354.1,643.6c0-0.2,0.1-0.5,0.4-0.5l0,0l17.9-2c0.2,0,0.5,0.1,0.5,0.4l0,0c0,0.2-0.1,0.5-0.4,0.5l0,0
							l-17.9,2c-0.1,0-0.2,0-0.3-0.1l0,0C354.2,643.9,354.1,643.8,354.1,643.6L354.1,643.6z"/>
					</g>
					<g  a:adobe-knockout="false">
						<path fill="#F7941E" d="M354.6,645.9c0-0.2,0.1-0.5,0.4-0.5l0,0l17.9-2c0.2,0,0.5,0.1,0.5,0.4l0,0c0,0.2-0.1,0.5-0.4,0.5l0,0
							l-17.9,2c-0.1,0-0.2,0-0.3-0.1l0,0C354.7,646.1,354.6,646,354.6,645.9L354.6,645.9z"/>
					</g>
					<g  a:adobe-knockout="false">
						<path fill="#F7941E" d="M355.1,648.1c0-0.2,0.2-0.5,0.4-0.5l0,0l17.9-2c0.2,0,0.5,0.1,0.5,0.4l0,0c0,0.2-0.1,0.5-0.4,0.5l0,0
							l-17.9,2c-0.1,0-0.2,0-0.3-0.1l0,0C355.2,648.4,355.1,648.3,355.1,648.1L355.1,648.1z"/>
					</g>
					<g  a:adobe-knockout="false">
						<path fill="#F7941E" d="M355.5,650.4c0-0.2,0.1-0.5,0.4-0.5l0,0l17.9-2c0.2,0,0.5,0.2,0.5,0.4l0,0c0,0.2-0.2,0.5-0.4,0.5l0,0
							l-17.9,2c-0.1,0-0.2,0-0.3-0.1l0,0C355.6,650.6,355.6,650.5,355.5,650.4L355.5,650.4z"/>
					</g>
					<g  a:adobe-knockout="false">
						<path fill="#F7941E" d="M356,652.6c0-0.2,0.2-0.5,0.4-0.5l0,0l17.9-2c0.2,0,0.5,0.2,0.5,0.4l0,0c0,0.2-0.2,0.5-0.4,0.5l0,0
							l-17.9,2c-0.1,0-0.2,0-0.3-0.1l0,0C356.1,652.9,356,652.8,356,652.6L356,652.6z"/>
					</g>
				</g>
			</g>
			<g>
				<path fill="#A5A9AA" d="M367.5,636.4h-29.2l11,70.3c0.4,2.6,2.6,4.5,5.3,4.5h12.9h12.9c2.6,0,4.9-1.9,5.3-4.5l11-70.3H367.5z"/>
				<path fill="#8D9293" d="M387.7,636.4l-9.8,62.7c-0.4,2.6-2.6,4.5-5.3,4.5h-12.9h-10.8l0.5,3.1c0.4,2.6,2.6,4.5,5.3,4.5h12.9
					h12.9c2.6,0,4.9-1.9,5.3-4.5l11-70.3H387.7z"/>
			</g>
		</g>
	</g>
</g>
</svg>
