<?xml version="1.0" ?><svg id="people"  width="200px" style="enable-background:new 0 0 32 32;" version="1.1" viewBox="0 0 32 32" xml:space="preserve" xmlns="http://www.w3.org/2000/svg" xmlns:xlink="http://www.w3.org/1999/xlink"><style type="text/css">
	.st0{opacity:0.2;fill:#6c757d;}
	.st1{fill:#6c757d;}
	.st2{opacity:0.2;}
</style><g id="female_x5F_redhead"><g><g><path class="st1" d="M15.7,23.9c-3.7,0-6.6-3-6.6-6.6v-3.5h1.1v3.5c0,3.1,2.5,5.6,5.6,5.6s5.6-2.5,5.6-5.6v-3.5     c0-3.1-2.5-5.6-5.6-5.6V7.1c3.7,0,6.6,3,6.6,6.6v3.5C22.3,20.9,19.4,23.9,15.7,23.9z"/></g></g><g><g><path class="st1" d="M9.3,18.8c-0.8,0-1.6-0.7-2-1.7c-0.2-0.6-0.2-1.1-0.1-1.6c0.1-0.6,0.5-1,1-1.2c0.5-0.2,1.2,0,1.7,0.5     l-0.7,0.8c-0.2-0.2-0.4-0.3-0.6-0.2c-0.2,0.1-0.3,0.3-0.3,0.4c-0.1,0.3,0,0.7,0.1,1c0.2,0.7,0.8,1.1,1.1,1l0.4,1     C9.6,18.8,9.4,18.8,9.3,18.8z"/></g></g><g><g><path class="st1" d="M22.1,18.8c-0.2,0-0.3,0-0.5-0.1l0.4-1c0.3,0.1,0.8-0.3,1.1-1c0.1-0.4,0.2-0.7,0.1-1c0-0.1-0.1-0.3-0.3-0.4     c-0.2-0.1-0.4,0-0.6,0.2l-0.7-0.8c0.5-0.5,1.1-0.7,1.7-0.5c0.5,0.2,0.8,0.6,1,1.2c0.1,0.5,0.1,1.1-0.1,1.6     C23.7,18.1,22.9,18.8,22.1,18.8z"/></g></g><g><g><path class="st1" d="M18.5,23.8c0.3-0.4,0.8-0.5,1.3-0.3c0,0,0.1,0,0.1,0c1.4,0.6,2.4,1.6,2.4,2.6c0,1.9-2.9,3.4-6.6,3.4     S9.1,28,9.1,26.2c0-1.1,1-2.1,2.5-2.7l0,0c0.5-0.2,1-0.1,1.3,0.3l1.4,1.7c0.7,0.9,2.1,0.9,2.9,0L18.5,23.8z"/></g></g><g><g><path class="st1" d="M15.8,17.9c-1.3,0-2.3,0.1-2.3,1.4c0,1.3,1,2.3,2.3,2.3s2.3-1,2.3-2.3C18.1,18,17,17.9,15.8,17.9z      M16.9,19.8h-2.2c-0.3,0-0.6-0.3-0.6-0.6c0-0.3,0.2-0.5,0.4-0.6c0.4-0.1,0.8-0.1,1.2-0.1s0.9,0,1.2,0.1c0.3,0.1,0.4,0.3,0.4,0.6     C17.5,19.6,17.2,19.8,16.9,19.8z"/></g></g><g><g><path class="st1" d="M25,12.8C25,12.8,25,12.8,25,12.8c0.5-1.1,0.1-2.4-0.9-3.1c-0.2-0.1-0.3-0.2-0.5-0.2     c-0.2-0.5-0.5-0.9-0.9-1.2c-0.5-0.3-1-0.4-1.5-0.4c-0.2-0.5-0.5-0.9-1-1.3c-0.9-0.6-2-0.5-2.8,0c-0.1-0.4-0.4-0.8-0.8-1.1     c-0.6-0.4-1.4-0.3-2,0.1c0,0-0.1,0-0.1-0.1c-0.4-0.2-0.8-0.3-1.2-0.2c0,0,0-0.1-0.1-0.1C13,5,12.6,4.7,12.1,4.7     c-0.5,0-0.9,0.1-1.2,0.4c-0.2,0.1-0.3,0.3-0.4,0.5C9.9,5.5,9.2,5.8,8.8,6.3C8.5,6.7,8.4,7.2,8.5,7.6c0,0.1,0.1,0.2,0.1,0.3     C8.2,7.9,7.7,8,7.3,8.3c-0.6,0.4-0.8,1.2-0.6,1.8c0,0-0.1,0-0.1,0.1c-0.7,0.5-0.9,1.5-0.4,2.3c-0.1,0.5,0,1,0.3,1.4     c0.6,0.8,1.6,0.9,2.4,0.3c0,0,0,0,0,0c0.6,0.6,1.5,0.6,2.2,0.1c0.1-0.1,0.2-0.2,0.3-0.3c0.3,0,0.7-0.1,1-0.3     c0.3-0.2,0.5-0.6,0.6-0.9c0.3,0,0.6-0.1,0.8-0.2c0.1,0,0.2,0.1,0.4,0.1c0.1,0.6,0.5,1.2,1,1.5c0.5,0.3,1.1,0.5,1.6,0.4     c-0.5,1.1-0.2,2.4,0.8,3.1c0.9,0.6,2,0.5,2.8,0c0,0,0.1,0.1,0.1,0.1c1.1,0.7,2.5,0.5,3.3-0.5c0.7-0.1,1.4-0.4,1.8-1.1     C26.4,15.1,26.1,13.6,25,12.8z M13.1,8.7c0.3,0.1,0.7,0.3,0.8,0.3c0.3,0.2,0.4,0.6,0.2,0.9c-0.2,0.3-0.6,0.4-0.9,0.2     C13,10,12.8,9.7,12.6,9.5c0-0.1-0.1-0.1-0.2,0c0,0,0,0,0,0c-0.1,0-0.1,0.1-0.1,0.2c0.1,0.3,0.1,0.7,0.1,0.9     c0,0.4-0.3,0.6-0.7,0.6c-0.4,0-0.6-0.3-0.6-0.7c0-0.2,0.1-0.5,0.2-0.8c0-0.1,0-0.1-0.1-0.2c0,0,0,0,0,0c-0.1,0-0.1,0-0.2,0     c-0.3,0.2-0.5,0.4-0.7,0.5c-0.3,0.2-0.7,0-0.9-0.3c-0.2-0.3,0-0.7,0.3-0.9c0.1-0.1,0.5-0.2,0.8-0.2c0.1,0,0.1-0.1,0.1-0.1l0,0     l0,0c0-0.1,0-0.1-0.1-0.2C10.3,8.1,10,7.9,9.9,7.9C9.6,7.6,9.5,7.2,9.7,6.9c0.2-0.3,0.6-0.4,0.9-0.2c0.1,0.1,0.4,0.3,0.6,0.6     c0,0.1,0.1,0.1,0.2,0c0,0,0,0,0,0c0.1,0,0.1-0.1,0.1-0.2c-0.1-0.3-0.1-0.7-0.1-0.9c0-0.4,0.3-0.6,0.7-0.6c0.4,0,0.6,0.3,0.6,0.7     c0,0.2-0.1,0.5-0.2,0.8c0,0.1,0,0.1,0.1,0.2c0,0,0,0,0,0c0.1,0,0.1,0,0.2,0C13,7.2,13.2,7,13.4,7c0.3-0.2,0.7,0,0.9,0.3     c0.2,0.3,0,0.7-0.3,0.9c-0.1,0.1-0.5,0.2-0.8,0.2c-0.1,0-0.1,0.1-0.1,0.1l0,0l0,0C13,8.6,13,8.6,13.1,8.7z"/></g></g><g><g><g><path class="st1" d="M11.9,17.6c-0.2,0-0.3,0.1-0.3,0.3c0,0.2,0.1,0.3,0.3,0.3s0.3-0.1,0.3-0.3C12.2,17.7,12.1,17.6,11.9,17.6z"/></g></g><g><g><circle class="st1" cx="11.2" cy="18.6" r="0.3"/></g></g><g><g><circle class="st1" cx="12.5" cy="18.6" r="0.3"/></g></g></g><g><g><path class="st1" d="M14.1,17.1c-0.2,0-0.4-0.1-0.5-0.3c-0.1-0.1-0.2-0.2-0.4-0.2c-0.2,0-0.3,0.1-0.4,0.2     c-0.1,0.3-0.5,0.4-0.7,0.2c-0.3-0.1-0.4-0.5-0.2-0.7c0.3-0.5,0.8-0.8,1.3-0.8c0.6,0,1.1,0.3,1.3,0.8c0.1,0.3,0,0.6-0.2,0.7     C14.3,17,14.2,17.1,14.1,17.1z"/></g></g></g></svg>
