<?xml version="1.0" ?><svg  width="200px" id="people" style="enable-background:new 0 0 32 32;" version="1.1" viewBox="0 0 32 32" xml:space="preserve" xmlns="http://www.w3.org/2000/svg" xmlns:xlink="http://www.w3.org/1999/xlink"><style type="text/css">
	.st0{opacity:0.2;fill:#6c757d;}
	.st1{fill:#6c757d;}
	.st2{opacity:0.2;}
</style><g id="male_x5F_young"><g class="st2"><g><path class="st1" d="M18.7,20.2c-0.2,0-0.3,0-0.5,0c-1.4-0.3-2.9-0.3-4.3,0c-0.1,0-0.3,0-0.5,0c-1.7,0-3.1-1.7-3.6-4.1v2.5     c0,2.9,2.7,5.3,6.1,5.3h0c3.4,0,6.1-2.4,6.1-5.3v-1.8C21.5,18.8,20.2,20.2,18.7,20.2z"/></g></g><g><g><path class="st1" d="M16,24.4c-3.7,0-6.6-3-6.6-6.6v-3.5c0-3.7,3-6.6,6.6-6.6s6.6,3,6.6,6.6v3.5C22.6,21.4,19.7,24.4,16,24.4z      M16,8.7c-3.1,0-5.6,2.5-5.6,5.6v3.5c0,3.1,2.5,5.6,5.6,5.6s5.6-2.5,5.6-5.6v-3.5C21.6,11.2,19.1,8.7,16,8.7z"/></g></g><g><g><path class="st1" d="M9.6,19.3c-0.8,0-1.6-0.7-2-1.7c-0.4-1.2-0.1-2.5,0.8-2.8c0.5-0.2,1.2,0,1.7,0.5L9.4,16     c-0.2-0.2-0.4-0.3-0.6-0.2c-0.3,0.1-0.4,0.8-0.2,1.4c0.2,0.7,0.8,1.1,1.1,1l0.4,1C9.9,19.3,9.7,19.3,9.6,19.3z"/></g></g><g><g><path class="st1" d="M22.4,19.3c-0.2,0-0.3,0-0.5-0.1l0.4-1c0.3,0.1,0.8-0.3,1.1-1c0.1-0.4,0.2-0.7,0.1-1c0-0.1-0.1-0.3-0.3-0.4     c-0.2-0.1-0.4,0-0.6,0.2l-0.7-0.8c0.5-0.5,1.1-0.7,1.7-0.5c0.5,0.2,0.8,0.6,1,1.2c0.1,0.5,0.1,1.1-0.1,1.6     C24,18.6,23.2,19.3,22.4,19.3z"/></g></g><g><g><path class="st1" d="M18.8,24.3c0.3-0.4,0.8-0.5,1.3-0.3c0,0,0.1,0,0.1,0c1.4,0.6,2.4,1.6,2.4,2.6c0,1.9-2.9,3.4-6.6,3.4     s-6.6-1.5-6.6-3.4c0-1.1,1-2.1,2.5-2.7l0,0c0.5-0.2,1-0.1,1.3,0.3l1.4,1.7c0.7,0.9,2.1,0.9,2.9,0L18.8,24.3z"/></g></g><g><g><path class="st1" d="M23.4,6.7C23.4,6.7,23.4,6.7,23.4,6.7c-0.1-0.8-0.8-1.4-1.7-1.4c-0.1,0-0.2,0-0.4,0c-0.3-0.2-0.6-0.3-1-0.3     c-0.4,0-0.7,0.1-1,0.3c-0.3-0.2-0.6-0.3-1-0.3c-0.7,0-1.4,0.5-1.6,1.2c-0.3,0.1-0.6,0.2-0.8,0.4c-0.2-0.2-0.5-0.4-0.8-0.4     c-0.2-0.7-0.8-1.2-1.6-1.2c-0.4,0-0.7,0.1-1,0.3c-0.3-0.2-0.6-0.3-1-0.3c-0.4,0-0.7,0.1-1,0.3c-0.1,0-0.2,0-0.4,0     c-0.8,0-1.5,0.6-1.6,1.4c0,0,0,0,0,0c-0.9,0-1.7,0.7-1.7,1.7c0,0.5,0.2,1,0.6,1.3c0.1,0.8,0.8,1.5,1.7,1.5c0,0,0.1,0,0.1,0     c0.2,0.6,0.8,1.1,1.6,1.1c0.8,0,1.5-0.6,1.6-1.4c0.3,0.2,0.7,0.4,1.1,0.4c0.5,0,1-0.3,1.3-0.6c0.1,0,0.2,0,0.4,0     c0.3,0,0.5-0.1,0.8-0.2c0.2,0.1,0.5,0.2,0.8,0.2c0.1,0,0.2,0,0.4,0c0.3,0.4,0.8,0.6,1.3,0.6c0.4,0,0.8-0.1,1.1-0.4     c0.1,0.8,0.8,1.4,1.6,1.4c0.7,0,1.3-0.4,1.6-1.1c0,0,0.1,0,0.1,0c0.9,0,1.6-0.7,1.7-1.5c0.4-0.3,0.6-0.8,0.6-1.3     C25.1,7.5,24.3,6.7,23.4,6.7z"/></g></g><g><g><path class="st1" d="M20.4,15.2h-8.8c-0.4,0-0.8,0.4-0.7,0.8l0.1,1.8c0,0.4,0.3,0.7,0.7,0.7h1.6c0.9,0,1.6-0.6,1.7-1.5     c0.1-0.4,0.5-0.8,0.9-0.8c0.5,0,0.8,0.3,0.9,0.8c0.1,0.8,0.9,1.5,1.7,1.5h1.6c0.4,0,0.7-0.3,0.7-0.7l0.1-1.8     C21.1,15.6,20.8,15.2,20.4,15.2z M13.2,15.9c-0.5,0.1-0.9,0.6-0.8,1.1v0c0,0.3-0.2,0.5-0.5,0.5c-0.2,0-0.4-0.2-0.5-0.4l0-0.1     c0-0.6,0.4-1.1,1-1.1h1L13.2,15.9z M19.4,15.9c-0.5,0.1-0.9,0.6-0.8,1.1v0c0,0.3-0.2,0.5-0.5,0.5c-0.2,0-0.4-0.2-0.5-0.4l0-0.1     c0-0.6,0.4-1.1,1-1.1h1L19.4,15.9z"/></g></g><g><g><path class="st1" d="M17.9,19.3c-0.2-0.3-0.6-0.5-1-0.5c-0.5,0-1.2-0.1-1.7-0.2c-0.4-0.1-0.8,0-1.1,0.3c-0.5,0.5-0.5,1.2,0,1.8     c0.2,0.2,0.5,0.4,0.7,0.6c0.9,0.4,1.9,0.4,2.7-0.2C18.2,20.6,18.4,19.8,17.9,19.3z M16.9,20.3c-0.3,0-0.6,0-0.9,0     c-0.3,0-0.7-0.1-0.9-0.2c-0.2-0.1-0.3-0.3-0.3-0.5c0-0.2,0.2-0.4,0.5-0.4l1.7,0.1c0.2,0,0.4,0.2,0.4,0.5     C17.2,20.1,17.1,20.3,16.9,20.3z"/></g></g></g></svg>
