<?xml version="1.0" encoding="UTF-8" standalone="no"?><svg xmlns="http://www.w3.org/2000/svg" xmlns:xlink="http://www.w3.org/1999/xlink" contentScriptType="application/ecmascript" contentStyleType="text/css" height="1074px" preserveAspectRatio="none" style="width:2163px;height:1074px;background:#FFFFFF;" version="1.1" viewBox="0 0 2163 1074" width="2163px" zoomAndPan="magnify"><defs><filter height="300%" id="f1634qccv4tcas" width="300%" x="-1" y="-1"><feGaussianBlur result="blurOut" stdDeviation="2.0"/><feColorMatrix in="blurOut" result="blurOut2" type="matrix" values="0 0 0 0 0 0 0 0 0 0 0 0 0 0 0 0 0 0 .4 0"/><feOffset dx="4.0" dy="4.0" in="blurOut2" result="blurOut3"/><feBlend in="SourceGraphic" in2="blurOut3" mode="normal"/></filter></defs><g><text fill="#000000" font-family="sans-serif" font-size="60" lengthAdjust="spacing" textLength="792" x="679" y="55.6934">Mobile Hairdresser Search</text><!--MD5=[3fd616f346a44cd59a91eb10b19e157c]
class User--><rect codeLine="6" fill="#FEFECE" filter="url(#f1634qccv4tcas)" height="393.7266" id="User" style="stroke:#A80036;stroke-width:1.5;" width="427" x="876" y="438.8438"/><ellipse cx="1070.75" cy="454.8438" fill="#ADD1B2" rx="11" ry="11" style="stroke:#A80036;stroke-width:1.0;"/><path d="M1073.7188,460.4844 Q1073.1406,460.7813 1072.5,460.9219 Q1071.8594,461.0781 1071.1563,461.0781 Q1068.6563,461.0781 1067.3281,459.4375 Q1066.0156,457.7813 1066.0156,454.6563 Q1066.0156,451.5313 1067.3281,449.875 Q1068.6563,448.2188 1071.1563,448.2188 Q1071.8594,448.2188 1072.5,448.375 Q1073.1563,448.5313 1073.7188,448.8281 L1073.7188,451.5469 Q1073.0938,450.9688 1072.5,450.7031 Q1071.9063,450.4219 1071.2813,450.4219 Q1069.9375,450.4219 1069.25,451.5 Q1068.5625,452.5625 1068.5625,454.6563 Q1068.5625,456.75 1069.25,457.8281 Q1069.9375,458.8906 1071.2813,458.8906 Q1071.9063,458.8906 1072.5,458.625 Q1073.0938,458.3438 1073.7188,457.7656 L1073.7188,460.4844 Z " fill="#000000"/><text fill="#000000" font-family="sans-serif" font-size="12" lengthAdjust="spacing" textLength="29" x="1091.25" y="458.998">User</text><line style="stroke:#A80036;stroke-width:1.5;" x1="877" x2="1302" y1="470.8438" y2="470.8438"/><text fill="#000000" font-family="sans-serif" font-size="11" lengthAdjust="spacing" textLength="78" x="882" y="485.0542">name : String</text><text fill="#000000" font-family="sans-serif" font-size="11" lengthAdjust="spacing" textLength="97" x="882" y="497.8589">surname : String</text><text fill="#000000" font-family="sans-serif" font-size="11" lengthAdjust="spacing" textLength="77" x="882" y="510.6636">email : String</text><text fill="#000000" font-family="sans-serif" font-size="11" lengthAdjust="spacing" textLength="102" x="882" y="523.4683">password : String</text><text fill="#000000" font-family="sans-serif" font-size="11" lengthAdjust="spacing" textLength="69" x="882" y="536.2729">id : ObjectID</text><text fill="#000000" font-family="sans-serif" font-size="11" lengthAdjust="spacing" textLength="92" x="882" y="549.0776">createdAt : Date</text><text fill="#000000" font-family="sans-serif" font-size="11" lengthAdjust="spacing" textLength="93" x="882" y="561.8823">address : String</text><text fill="#000000" font-family="sans-serif" font-size="11" lengthAdjust="spacing" textLength="60" x="882" y="574.687">tel : String</text><text fill="#000000" font-family="sans-serif" font-size="11" lengthAdjust="spacing" textLength="96" x="882" y="587.4917">fullName : String</text><text fill="#000000" font-family="sans-serif" font-size="11" lengthAdjust="spacing" textLength="158" x="882" y="600.2964">repliedRequests : [Request]</text><text fill="#000000" font-family="sans-serif" font-size="11" lengthAdjust="spacing" textLength="158" x="882" y="613.1011">messageBox : MessageBox</text><line style="stroke:#A80036;stroke-width:1.5;" x1="877" x2="1302" y1="619.6953" y2="619.6953"/><text fill="#000000" font-family="sans-serif" font-size="11" lengthAdjust="spacing" textLength="329" x="882" y="633.9058">constructor(name: String, surname: String, email: String,</text><text fill="#000000" font-family="sans-serif" font-size="11" lengthAdjust="spacing" textLength="102" x="882" y="646.7104">password: String)</text><text fill="#000000" font-family="sans-serif" font-size="11" lengthAdjust="spacing" textLength="251" x="882" y="659.5151">uploadPhotoToPost(photo: Photo, post:Post)</text><text fill="#000000" font-family="sans-serif" font-size="11" lengthAdjust="spacing" textLength="131" x="882" y="672.3198">likePhoto(photo: Photo)</text><text fill="#000000" font-family="sans-serif" font-size="11" lengthAdjust="spacing" textLength="145" x="882" y="685.1245">unlikePhoto(photo: Photo)</text><text fill="#000000" font-family="sans-serif" font-size="11" lengthAdjust="spacing" textLength="199" x="882" y="697.9292">tagPhoto(photo: Photo, user: User)</text><text fill="#000000" font-family="sans-serif" font-size="11" lengthAdjust="spacing" textLength="216" x="882" y="710.7339">unTagPhoto(photo: Photo, user: User)</text><text fill="#000000" font-family="sans-serif" font-size="11" lengthAdjust="spacing" textLength="127" x="882" y="723.5386">likeVideo(video: Video)</text><text fill="#000000" font-family="sans-serif" font-size="11" lengthAdjust="spacing" textLength="141" x="882" y="736.3433">unlikeVideo(video: Video)</text><text fill="#000000" font-family="sans-serif" font-size="11" lengthAdjust="spacing" textLength="386" x="882" y="749.1479">replyRequest(request: Request, message: String, ...photos : Photo)</text><text fill="#000000" font-family="sans-serif" font-size="11" lengthAdjust="spacing" textLength="245" x="882" y="761.9526">deleteReply(request: Request, reply: Reply)</text><text fill="#000000" font-family="sans-serif" font-size="11" lengthAdjust="spacing" textLength="415" x="882" y="774.7573">sendPrivateMessage(receiver: user: User, title: String, message: String)</text><text fill="#000000" font-family="sans-serif" font-size="11" lengthAdjust="spacing" textLength="325" x="882" y="787.562">deletePrivateMessage(privateMessage: PrivateMessage )</text><text fill="#000000" font-family="sans-serif" font-size="11" lengthAdjust="spacing" textLength="312" x="882" y="800.3667">readPrivateMessage(privateMessage: PrivateMessage)</text><text fill="#000000" font-family="sans-serif" font-size="11" lengthAdjust="spacing" textLength="326" x="882" y="813.1714">unreadPrivateMessage(privateMessage: PrivateMessage)</text><text fill="#000000" font-family="sans-serif" font-size="11" lengthAdjust="spacing" textLength="317" x="882" y="825.9761">recallPrivateMessage(privateMessage: PrivateMessage)</text><!--MD5=[abf671e6e52e287d69c09b4815825d3d]
class Hairdresser--><rect codeLine="37" fill="#FEFECE" filter="url(#f1634qccv4tcas)" height="304.0938" id="Hairdresser" style="stroke:#A80036;stroke-width:1.5;" width="341" x="1387" y="483.8438"/><ellipse cx="1516.75" cy="499.8438" fill="#ADD1B2" rx="11" ry="11" style="stroke:#A80036;stroke-width:1.0;"/><path d="M1519.7188,505.4844 Q1519.1406,505.7813 1518.5,505.9219 Q1517.8594,506.0781 1517.1563,506.0781 Q1514.6563,506.0781 1513.3281,504.4375 Q1512.0156,502.7813 1512.0156,499.6563 Q1512.0156,496.5313 1513.3281,494.875 Q1514.6563,493.2188 1517.1563,493.2188 Q1517.8594,493.2188 1518.5,493.375 Q1519.1563,493.5313 1519.7188,493.8281 L1519.7188,496.5469 Q1519.0938,495.9688 1518.5,495.7031 Q1517.9063,495.4219 1517.2813,495.4219 Q1515.9375,495.4219 1515.25,496.5 Q1514.5625,497.5625 1514.5625,499.6563 Q1514.5625,501.75 1515.25,502.8281 Q1515.9375,503.8906 1517.2813,503.8906 Q1517.9063,503.8906 1518.5,503.625 Q1519.0938,503.3438 1519.7188,502.7656 L1519.7188,505.4844 Z " fill="#000000"/><text fill="#000000" font-family="sans-serif" font-size="12" lengthAdjust="spacing" textLength="73" x="1537.25" y="503.998">Hairdresser</text><line style="stroke:#A80036;stroke-width:1.5;" x1="1388" x2="1727" y1="515.8438" y2="515.8438"/><text fill="#000000" font-family="sans-serif" font-size="11" lengthAdjust="spacing" textLength="105" x="1393" y="530.0542">availability : String</text><text fill="#000000" font-family="sans-serif" font-size="11" lengthAdjust="spacing" textLength="108" x="1393" y="542.8589">experience : String</text><text fill="#000000" font-family="sans-serif" font-size="11" lengthAdjust="spacing" textLength="124" x="1393" y="555.6636">serviceArea : Number</text><text fill="#000000" font-family="sans-serif" font-size="11" lengthAdjust="spacing" textLength="136" x="1393" y="568.4683">portfolioVideos : [Video]</text><text fill="#000000" font-family="sans-serif" font-size="11" lengthAdjust="spacing" textLength="138" x="1393" y="581.2729">portfolioPhotos : [Photo]</text><text fill="#000000" font-family="sans-serif" font-size="11" lengthAdjust="spacing" textLength="141" x="1393" y="594.0776">certificates : [Certificate]</text><text fill="#000000" font-family="sans-serif" font-size="11" lengthAdjust="spacing" textLength="194" x="1393" y="606.8823">employerReferences : [Reference]</text><text fill="#000000" font-family="sans-serif" font-size="11" lengthAdjust="spacing" textLength="159" x="1393" y="619.687">customerReviews : [Review]</text><text fill="#000000" font-family="sans-serif" font-size="11" lengthAdjust="spacing" textLength="214" x="1393" y="632.4917">repliedCustomerRequests : [Request]</text><text fill="#000000" font-family="sans-serif" font-size="11" lengthAdjust="spacing" textLength="95" x="1393" y="645.2964">portfolio : Object</text><line style="stroke:#A80036;stroke-width:1.5;" x1="1388" x2="1727" y1="651.8906" y2="651.8906"/><text fill="#000000" font-family="sans-serif" font-size="11" lengthAdjust="spacing" textLength="329" x="1393" y="666.1011">constructor(name: String, surname: String, email: String,</text><text fill="#000000" font-family="sans-serif" font-size="11" lengthAdjust="spacing" textLength="102" x="1393" y="678.9058">password: String)</text><text fill="#000000" font-family="sans-serif" font-size="11" lengthAdjust="spacing" textLength="211" x="1393" y="691.7104">uploadPhotoToPortfolio(photo: Photo)</text><text fill="#000000" font-family="sans-serif" font-size="11" lengthAdjust="spacing" textLength="207" x="1393" y="704.5151">uploadVideoToPortfolio(video: Video)</text><text fill="#000000" font-family="sans-serif" font-size="11" lengthAdjust="spacing" textLength="223" x="1393" y="717.3198">deletePhotoFromPortfolio(photo: Photo)</text><text fill="#000000" font-family="sans-serif" font-size="11" lengthAdjust="spacing" textLength="219" x="1393" y="730.1245">deleteVideoFromPortfolio(video: Video)</text><text fill="#000000" font-family="sans-serif" font-size="11" lengthAdjust="spacing" textLength="195" x="1393" y="742.9292">tagVideo(video: Video, user: User)</text><text fill="#000000" font-family="sans-serif" font-size="11" lengthAdjust="spacing" textLength="174" x="1393" y="755.7339">unTagVideo(Video, user: User)</text><text fill="#000000" font-family="sans-serif" font-size="11" lengthAdjust="spacing" textLength="226" x="1393" y="768.5386">uploadCertificate(certificate: Certificate)</text><text fill="#000000" font-family="sans-serif" font-size="11" lengthAdjust="spacing" textLength="223" x="1393" y="781.3433">deleteCertificate(certificate: Certificate)</text><!--MD5=[2ce0c9fb7f55b1e256ab28a8ea6b25ec]
class Customer--><rect codeLine="61" fill="#FEFECE" filter="url(#f1634qccv4tcas)" height="201.6563" id="Customer" style="stroke:#A80036;stroke-width:1.5;" width="470" x="322.5" y="534.8438"/><ellipse cx="523.25" cy="550.8438" fill="#ADD1B2" rx="11" ry="11" style="stroke:#A80036;stroke-width:1.0;"/><path d="M526.2188,556.4844 Q525.6406,556.7813 525,556.9219 Q524.3594,557.0781 523.6563,557.0781 Q521.1563,557.0781 519.8281,555.4375 Q518.5156,553.7813 518.5156,550.6563 Q518.5156,547.5313 519.8281,545.875 Q521.1563,544.2188 523.6563,544.2188 Q524.3594,544.2188 525,544.375 Q525.6563,544.5313 526.2188,544.8281 L526.2188,547.5469 Q525.5938,546.9688 525,546.7031 Q524.4063,546.4219 523.7813,546.4219 Q522.4375,546.4219 521.75,547.5 Q521.0625,548.5625 521.0625,550.6563 Q521.0625,552.75 521.75,553.8281 Q522.4375,554.8906 523.7813,554.8906 Q524.4063,554.8906 525,554.625 Q525.5938,554.3438 526.2188,553.7656 L526.2188,556.4844 Z " fill="#000000"/><text fill="#000000" font-family="sans-serif" font-size="12" lengthAdjust="spacing" textLength="60" x="543.75" y="554.998">Customer</text><line style="stroke:#A80036;stroke-width:1.5;" x1="323.5" x2="791.5" y1="566.8438" y2="566.8438"/><text fill="#000000" font-family="sans-serif" font-size="11" lengthAdjust="spacing" textLength="112" x="328.5" y="581.0542">profilePhoto : Photo</text><text fill="#000000" font-family="sans-serif" font-size="11" lengthAdjust="spacing" textLength="65" x="328.5" y="593.8589">info: Object</text><text fill="#000000" font-family="sans-serif" font-size="11" lengthAdjust="spacing" textLength="173" x="328.5" y="606.6636">customerRequests : [Request]</text><text fill="#000000" font-family="sans-serif" font-size="11" lengthAdjust="spacing" textLength="172" x="328.5" y="619.4683">hairdresserReviews : [Review]</text><line style="stroke:#A80036;stroke-width:1.5;" x1="323.5" x2="791.5" y1="626.0625" y2="626.0625"/><text fill="#000000" font-family="sans-serif" font-size="11" lengthAdjust="spacing" textLength="329" x="328.5" y="640.2729">constructor(name: String, surname: String, email: String,</text><text fill="#000000" font-family="sans-serif" font-size="11" lengthAdjust="spacing" textLength="102" x="328.5" y="653.0776">password: String)</text><text fill="#000000" font-family="sans-serif" font-size="11" lengthAdjust="spacing" textLength="169" x="328.5" y="665.8823">addProfilePhoto(photo: Photo)</text><text fill="#000000" font-family="sans-serif" font-size="11" lengthAdjust="spacing" textLength="335" x="328.5" y="678.687">addPhotoToAdviceRequest(photo: Photo, request: Request)</text><text fill="#000000" font-family="sans-serif" font-size="11" lengthAdjust="spacing" textLength="458" x="328.5" y="691.4917">postRequest(type: String, title: String, message:String, ...photos : photo: Photo)</text><text fill="#000000" font-family="sans-serif" font-size="11" lengthAdjust="spacing" textLength="187" x="328.5" y="704.2964">deleteRequest(request: Request)</text><text fill="#000000" font-family="sans-serif" font-size="11" lengthAdjust="spacing" textLength="363" x="328.5" y="717.1011">reviewHairdresser(hairdresser: User, message : String, rating)</text><text fill="#000000" font-family="sans-serif" font-size="11" lengthAdjust="spacing" textLength="348" x="328.5" y="729.9058">deleteHairdresserReview(hairdresser: User, review : Review)</text><!--MD5=[b7699d18aaae0c489e416159ee2e11a1]
class Certificate--><rect codeLine="76" fill="#FEFECE" filter="url(#f1634qccv4tcas)" height="99.2188" id="Certificate" style="stroke:#A80036;stroke-width:1.5;" width="248" x="1433.5" y="256.3438"/><ellipse cx="1521.25" cy="272.3438" fill="#ADD1B2" rx="11" ry="11" style="stroke:#A80036;stroke-width:1.0;"/><path d="M1524.2188,277.9844 Q1523.6406,278.2813 1523,278.4219 Q1522.3594,278.5781 1521.6563,278.5781 Q1519.1563,278.5781 1517.8281,276.9375 Q1516.5156,275.2813 1516.5156,272.1563 Q1516.5156,269.0313 1517.8281,267.375 Q1519.1563,265.7188 1521.6563,265.7188 Q1522.3594,265.7188 1523,265.875 Q1523.6563,266.0313 1524.2188,266.3281 L1524.2188,269.0469 Q1523.5938,268.4688 1523,268.2031 Q1522.4063,267.9219 1521.7813,267.9219 Q1520.4375,267.9219 1519.75,269 Q1519.0625,270.0625 1519.0625,272.1563 Q1519.0625,274.25 1519.75,275.3281 Q1520.4375,276.3906 1521.7813,276.3906 Q1522.4063,276.3906 1523,276.125 Q1523.5938,275.8438 1524.2188,275.2656 L1524.2188,277.9844 Z " fill="#000000"/><text fill="#000000" font-family="sans-serif" font-size="12" lengthAdjust="spacing" textLength="64" x="1541.75" y="276.498">Certificate</text><line style="stroke:#A80036;stroke-width:1.5;" x1="1434.5" x2="1680.5" y1="288.3438" y2="288.3438"/><text fill="#000000" font-family="sans-serif" font-size="11" lengthAdjust="spacing" textLength="69" x="1439.5" y="302.5542">id : ObjectID</text><text fill="#000000" font-family="sans-serif" font-size="11" lengthAdjust="spacing" textLength="96" x="1439.5" y="315.3589">fileName : String</text><text fill="#000000" font-family="sans-serif" font-size="11" lengthAdjust="spacing" textLength="67" x="1439.5" y="328.1636">title : String</text><line style="stroke:#A80036;stroke-width:1.5;" x1="1434.5" x2="1680.5" y1="334.7578" y2="334.7578"/><text fill="#000000" font-family="sans-serif" font-size="11" lengthAdjust="spacing" textLength="236" x="1439.5" y="348.9683">constructor(fileName: String, title: String)</text><!--MD5=[ded33122ebbd9682d9bfe2dd2b07be95]
class MessageBox--><rect codeLine="84" fill="#FEFECE" filter="url(#f1634qccv4tcas)" height="150.4375" id="MessageBox" style="stroke:#A80036;stroke-width:1.5;" width="300" x="609.5" y="909.8438"/><ellipse cx="716.25" cy="925.8438" fill="#ADD1B2" rx="11" ry="11" style="stroke:#A80036;stroke-width:1.0;"/><path d="M719.2188,931.4844 Q718.6406,931.7813 718,931.9219 Q717.3594,932.0781 716.6563,932.0781 Q714.1563,932.0781 712.8281,930.4375 Q711.5156,928.7813 711.5156,925.6563 Q711.5156,922.5313 712.8281,920.875 Q714.1563,919.2188 716.6563,919.2188 Q717.3594,919.2188 718,919.375 Q718.6563,919.5313 719.2188,919.8281 L719.2188,922.5469 Q718.5938,921.9688 718,921.7031 Q717.4063,921.4219 716.7813,921.4219 Q715.4375,921.4219 714.75,922.5 Q714.0625,923.5625 714.0625,925.6563 Q714.0625,927.75 714.75,928.8281 Q715.4375,929.8906 716.7813,929.8906 Q717.4063,929.8906 718,929.625 Q718.5938,929.3438 719.2188,928.7656 L719.2188,931.4844 Z " fill="#000000"/><text fill="#000000" font-family="sans-serif" font-size="12" lengthAdjust="spacing" textLength="78" x="736.75" y="929.998">MessageBox</text><line style="stroke:#A80036;stroke-width:1.5;" x1="610.5" x2="908.5" y1="941.8438" y2="941.8438"/><text fill="#000000" font-family="sans-serif" font-size="11" lengthAdjust="spacing" textLength="196" x="615.5" y="956.0542">seenMessages : [PrivateMessage]</text><text fill="#000000" font-family="sans-serif" font-size="11" lengthAdjust="spacing" textLength="210" x="615.5" y="968.8589">unseenMessages : [PrivateMessage]</text><line style="stroke:#A80036;stroke-width:1.5;" x1="610.5" x2="908.5" y1="975.4531" y2="975.4531"/><text fill="#000000" font-family="sans-serif" font-size="11" lengthAdjust="spacing" textLength="251" x="615.5" y="989.6636">receiveMessage(message: PrivateMessage)</text><text fill="#000000" font-family="sans-serif" font-size="11" lengthAdjust="spacing" textLength="266" x="615.5" y="1002.4683">storeSentMessage(message: PrivateMessage)</text><text fill="#000000" font-family="sans-serif" font-size="11" lengthAdjust="spacing" textLength="274" x="615.5" y="1015.2729">deleteSeenMessage(message: PrivateMessage)</text><text fill="#000000" font-family="sans-serif" font-size="11" lengthAdjust="spacing" textLength="288" x="615.5" y="1028.0776">deleteUnseenMessage(message: PrivateMessage)</text><text fill="#000000" font-family="sans-serif" font-size="11" lengthAdjust="spacing" textLength="271" x="615.5" y="1040.8823">setMessageAsSeen(message: PrivateMessage)</text><text fill="#000000" font-family="sans-serif" font-size="11" lengthAdjust="spacing" textLength="285" x="615.5" y="1053.687">setMessageAsUnseen(message: PrivateMessage)</text><!--MD5=[a805b40f8193e3b705560a3818c5c109]
class Photo--><rect codeLine="95" fill="#FEFECE" filter="url(#f1634qccv4tcas)" height="137.6328" id="Photo" style="stroke:#A80036;stroke-width:1.5;" width="290" x="944.5" y="915.8438"/><ellipse cx="1066.75" cy="931.8438" fill="#ADD1B2" rx="11" ry="11" style="stroke:#A80036;stroke-width:1.0;"/><path d="M1069.7188,937.4844 Q1069.1406,937.7813 1068.5,937.9219 Q1067.8594,938.0781 1067.1563,938.0781 Q1064.6563,938.0781 1063.3281,936.4375 Q1062.0156,934.7813 1062.0156,931.6563 Q1062.0156,928.5313 1063.3281,926.875 Q1064.6563,925.2188 1067.1563,925.2188 Q1067.8594,925.2188 1068.5,925.375 Q1069.1563,925.5313 1069.7188,925.8281 L1069.7188,928.5469 Q1069.0938,927.9688 1068.5,927.7031 Q1067.9063,927.4219 1067.2813,927.4219 Q1065.9375,927.4219 1065.25,928.5 Q1064.5625,929.5625 1064.5625,931.6563 Q1064.5625,933.75 1065.25,934.8281 Q1065.9375,935.8906 1067.2813,935.8906 Q1067.9063,935.8906 1068.5,935.625 Q1069.0938,935.3438 1069.7188,934.7656 L1069.7188,937.4844 Z " fill="#000000"/><text fill="#000000" font-family="sans-serif" font-size="12" lengthAdjust="spacing" textLength="37" x="1087.25" y="935.998">Photo</text><line style="stroke:#A80036;stroke-width:1.5;" x1="945.5" x2="1233.5" y1="947.8438" y2="947.8438"/><text fill="#000000" font-family="sans-serif" font-size="11" lengthAdjust="spacing" textLength="69" x="950.5" y="962.0542">id : ObjectID</text><text fill="#000000" font-family="sans-serif" font-size="11" lengthAdjust="spacing" textLength="92" x="950.5" y="974.8589">createdAt : Date</text><text fill="#000000" font-family="sans-serif" font-size="11" lengthAdjust="spacing" textLength="96" x="950.5" y="987.6636">fileName : String</text><text fill="#000000" font-family="sans-serif" font-size="11" lengthAdjust="spacing" textLength="109" x="950.5" y="1000.4683">description : String</text><text fill="#000000" font-family="sans-serif" font-size="11" lengthAdjust="spacing" textLength="120" x="950.5" y="1013.2729">taggedUsers : [User]</text><text fill="#000000" font-family="sans-serif" font-size="11" lengthAdjust="spacing" textLength="87" x="950.5" y="1026.0776">likedBy : [User]</text><line style="stroke:#A80036;stroke-width:1.5;" x1="945.5" x2="1233.5" y1="1032.6719" y2="1032.6719"/><text fill="#000000" font-family="sans-serif" font-size="11" lengthAdjust="spacing" textLength="278" x="950.5" y="1046.8823">constructor(fileName: String, description: String)</text><!--MD5=[9bb0bdd047fba1a3c8d48282c35b4537]
class Post--><rect codeLine="106" fill="#FEFECE" filter="url(#f1634qccv4tcas)" height="112.0234" id="Post" style="stroke:#A80036;stroke-width:1.5;" width="249" x="507" y="76.8438"/><ellipse cx="613.25" cy="92.8438" fill="#ADD1B2" rx="11" ry="11" style="stroke:#A80036;stroke-width:1.0;"/><path d="M616.2188,98.4844 Q615.6406,98.7813 615,98.9219 Q614.3594,99.0781 613.6563,99.0781 Q611.1563,99.0781 609.8281,97.4375 Q608.5156,95.7813 608.5156,92.6563 Q608.5156,89.5313 609.8281,87.875 Q611.1563,86.2188 613.6563,86.2188 Q614.3594,86.2188 615,86.375 Q615.6563,86.5313 616.2188,86.8281 L616.2188,89.5469 Q615.5938,88.9688 615,88.7031 Q614.4063,88.4219 613.7813,88.4219 Q612.4375,88.4219 611.75,89.5 Q611.0625,90.5625 611.0625,92.6563 Q611.0625,94.75 611.75,95.8281 Q612.4375,96.8906 613.7813,96.8906 Q614.4063,96.8906 615,96.625 Q615.5938,96.3438 616.2188,95.7656 L616.2188,98.4844 Z " fill="#000000"/><text fill="#000000" font-family="sans-serif" font-size="12" lengthAdjust="spacing" textLength="28" x="633.75" y="96.998">Post</text><line style="stroke:#A80036;stroke-width:1.5;" x1="508" x2="755" y1="108.8438" y2="108.8438"/><text fill="#000000" font-family="sans-serif" font-size="11" lengthAdjust="spacing" textLength="52" x="513" y="123.0542">id :String</text><text fill="#000000" font-family="sans-serif" font-size="11" lengthAdjust="spacing" textLength="63" x="513" y="135.8589">date : Date</text><text fill="#000000" font-family="sans-serif" font-size="11" lengthAdjust="spacing" textLength="61" x="513" y="148.6636">user: User</text><text fill="#000000" font-family="sans-serif" font-size="11" lengthAdjust="spacing" textLength="95" x="513" y="161.4683">message: String</text><line style="stroke:#A80036;stroke-width:1.5;" x1="508" x2="755" y1="168.0625" y2="168.0625"/><text fill="#000000" font-family="sans-serif" font-size="11" lengthAdjust="spacing" textLength="237" x="513" y="182.2729">constructor(user: User, message: String)</text><!--MD5=[0bc7ec11381efd7dbf6f23c8933bcb42]
class PrivateMessage--><rect codeLine="115" fill="#FEFECE" filter="url(#f1634qccv4tcas)" height="137.6328" id="PrivateMessage" style="stroke:#A80036;stroke-width:1.5;" width="292" x="1269.5" y="915.8438"/><ellipse cx="1361.75" cy="931.8438" fill="#ADD1B2" rx="11" ry="11" style="stroke:#A80036;stroke-width:1.0;"/><path d="M1364.7188,937.4844 Q1364.1406,937.7813 1363.5,937.9219 Q1362.8594,938.0781 1362.1563,938.0781 Q1359.6563,938.0781 1358.3281,936.4375 Q1357.0156,934.7813 1357.0156,931.6563 Q1357.0156,928.5313 1358.3281,926.875 Q1359.6563,925.2188 1362.1563,925.2188 Q1362.8594,925.2188 1363.5,925.375 Q1364.1563,925.5313 1364.7188,925.8281 L1364.7188,928.5469 Q1364.0938,927.9688 1363.5,927.7031 Q1362.9063,927.4219 1362.2813,927.4219 Q1360.9375,927.4219 1360.25,928.5 Q1359.5625,929.5625 1359.5625,931.6563 Q1359.5625,933.75 1360.25,934.8281 Q1360.9375,935.8906 1362.2813,935.8906 Q1362.9063,935.8906 1363.5,935.625 Q1364.0938,935.3438 1364.7188,934.7656 L1364.7188,937.4844 Z " fill="#000000"/><text fill="#000000" font-family="sans-serif" font-size="12" lengthAdjust="spacing" textLength="99" x="1382.25" y="935.998">PrivateMessage</text><line style="stroke:#A80036;stroke-width:1.5;" x1="1270.5" x2="1560.5" y1="947.8438" y2="947.8438"/><text fill="#000000" font-family="sans-serif" font-size="11" lengthAdjust="spacing" textLength="52" x="1275.5" y="962.0542">id: String</text><text fill="#000000" font-family="sans-serif" font-size="11" lengthAdjust="spacing" textLength="88" x="1275.5" y="974.8589">createdAt: Date</text><text fill="#000000" font-family="sans-serif" font-size="11" lengthAdjust="spacing" textLength="75" x="1275.5" y="987.6636">sender: User</text><text fill="#000000" font-family="sans-serif" font-size="11" lengthAdjust="spacing" textLength="81" x="1275.5" y="1000.4683">receiver: User</text><text fill="#000000" font-family="sans-serif" font-size="11" lengthAdjust="spacing" textLength="63" x="1275.5" y="1013.2729">title: String</text><text fill="#000000" font-family="sans-serif" font-size="11" lengthAdjust="spacing" textLength="95" x="1275.5" y="1026.0776">message: String</text><line style="stroke:#A80036;stroke-width:1.5;" x1="1270.5" x2="1560.5" y1="1032.6719" y2="1032.6719"/><text fill="#000000" font-family="sans-serif" font-size="11" lengthAdjust="spacing" textLength="280" x="1275.5" y="1046.8823">constructor(sender, receiver, title = '', message)</text><!--MD5=[cb90de322b018cbf647714665a308163]
class Reply--><rect codeLine="126" fill="#FEFECE" filter="url(#f1634qccv4tcas)" height="73.6094" id="Reply" style="stroke:#A80036;stroke-width:1.5;" width="352" x="913.5" y="268.8438"/><ellipse cx="1068.75" cy="284.8438" fill="#ADD1B2" rx="11" ry="11" style="stroke:#A80036;stroke-width:1.0;"/><path d="M1071.7188,290.4844 Q1071.1406,290.7813 1070.5,290.9219 Q1069.8594,291.0781 1069.1563,291.0781 Q1066.6563,291.0781 1065.3281,289.4375 Q1064.0156,287.7813 1064.0156,284.6563 Q1064.0156,281.5313 1065.3281,279.875 Q1066.6563,278.2188 1069.1563,278.2188 Q1069.8594,278.2188 1070.5,278.375 Q1071.1563,278.5313 1071.7188,278.8281 L1071.7188,281.5469 Q1071.0938,280.9688 1070.5,280.7031 Q1069.9063,280.4219 1069.2813,280.4219 Q1067.9375,280.4219 1067.25,281.5 Q1066.5625,282.5625 1066.5625,284.6563 Q1066.5625,286.75 1067.25,287.8281 Q1067.9375,288.8906 1069.2813,288.8906 Q1069.9063,288.8906 1070.5,288.625 Q1071.0938,288.3438 1071.7188,287.7656 L1071.7188,290.4844 Z " fill="#000000"/><text fill="#000000" font-family="sans-serif" font-size="12" lengthAdjust="spacing" textLength="33" x="1089.25" y="288.998">Reply</text><line style="stroke:#A80036;stroke-width:1.5;" x1="914.5" x2="1264.5" y1="300.8438" y2="300.8438"/><text fill="#000000" font-family="sans-serif" font-size="11" lengthAdjust="spacing" textLength="96" x="919.5" y="315.0542">photos = [Photo]</text><line style="stroke:#A80036;stroke-width:1.5;" x1="914.5" x2="1264.5" y1="321.6484" y2="321.6484"/><text fill="#000000" font-family="sans-serif" font-size="11" lengthAdjust="spacing" textLength="340" x="919.5" y="335.8589">constructor(user: User, message: String, ...photos : Photo)</text><!--MD5=[0851f84a889f989e7bb0bebc385d0f09]
class Request--><rect codeLine="132" fill="#FEFECE" filter="url(#f1634qccv4tcas)" height="112.0234" id="Request" style="stroke:#A80036;stroke-width:1.5;" width="493" x="385" y="249.8438"/><ellipse cx="601.25" cy="265.8438" fill="#ADD1B2" rx="11" ry="11" style="stroke:#A80036;stroke-width:1.0;"/><path d="M604.2188,271.4844 Q603.6406,271.7813 603,271.9219 Q602.3594,272.0781 601.6563,272.0781 Q599.1563,272.0781 597.8281,270.4375 Q596.5156,268.7813 596.5156,265.6563 Q596.5156,262.5313 597.8281,260.875 Q599.1563,259.2188 601.6563,259.2188 Q602.3594,259.2188 603,259.375 Q603.6563,259.5313 604.2188,259.8281 L604.2188,262.5469 Q603.5938,261.9688 603,261.7031 Q602.4063,261.4219 601.7813,261.4219 Q600.4375,261.4219 599.75,262.5 Q599.0625,263.5625 599.0625,265.6563 Q599.0625,267.75 599.75,268.8281 Q600.4375,269.8906 601.7813,269.8906 Q602.4063,269.8906 603,269.625 Q603.5938,269.3438 604.2188,268.7656 L604.2188,271.4844 Z " fill="#000000"/><text fill="#000000" font-family="sans-serif" font-size="12" lengthAdjust="spacing" textLength="52" x="621.75" y="269.998">Request</text><line style="stroke:#A80036;stroke-width:1.5;" x1="386" x2="877" y1="281.8438" y2="281.8438"/><text fill="#000000" font-family="sans-serif" font-size="11" lengthAdjust="spacing" textLength="70" x="391" y="296.0542">type : String</text><text fill="#000000" font-family="sans-serif" font-size="11" lengthAdjust="spacing" textLength="67" x="391" y="308.8589">title : String</text><text fill="#000000" font-family="sans-serif" font-size="11" lengthAdjust="spacing" textLength="89" x="391" y="321.6636">replies : [Reply]</text><text fill="#000000" font-family="sans-serif" font-size="11" lengthAdjust="spacing" textLength="91" x="391" y="334.4683">photos : [Photo]</text><line style="stroke:#A80036;stroke-width:1.5;" x1="386" x2="877" y1="341.0625" y2="341.0625"/><text fill="#000000" font-family="sans-serif" font-size="11" lengthAdjust="spacing" textLength="481" x="391" y="355.2729">constructor(user: User, type: String, title: String, message: String, ...photos: Photo)</text><!--MD5=[eb0e8f8ddfdc21c3fdb48447501fec67]
class Review--><rect codeLine="141" fill="#FEFECE" filter="url(#f1634qccv4tcas)" height="73.6094" id="Review" style="stroke:#A80036;stroke-width:1.5;" width="343" x="7" y="268.8438"/><ellipse cx="153.25" cy="284.8438" fill="#ADD1B2" rx="11" ry="11" style="stroke:#A80036;stroke-width:1.0;"/><path d="M156.2188,290.4844 Q155.6406,290.7813 155,290.9219 Q154.3594,291.0781 153.6563,291.0781 Q151.1563,291.0781 149.8281,289.4375 Q148.5156,287.7813 148.5156,284.6563 Q148.5156,281.5313 149.8281,279.875 Q151.1563,278.2188 153.6563,278.2188 Q154.3594,278.2188 155,278.375 Q155.6563,278.5313 156.2188,278.8281 L156.2188,281.5469 Q155.5938,280.9688 155,280.7031 Q154.4063,280.4219 153.7813,280.4219 Q152.4375,280.4219 151.75,281.5 Q151.0625,282.5625 151.0625,284.6563 Q151.0625,286.75 151.75,287.8281 Q152.4375,288.8906 153.7813,288.8906 Q154.4063,288.8906 155,288.625 Q155.5938,288.3438 156.2188,287.7656 L156.2188,290.4844 Z " fill="#000000"/><text fill="#000000" font-family="sans-serif" font-size="12" lengthAdjust="spacing" textLength="42" x="173.75" y="288.998">Review</text><line style="stroke:#A80036;stroke-width:1.5;" x1="8" x2="349" y1="300.8438" y2="300.8438"/><text fill="#000000" font-family="sans-serif" font-size="11" lengthAdjust="spacing" textLength="90" x="13" y="315.0542">rating : Number</text><line style="stroke:#A80036;stroke-width:1.5;" x1="8" x2="349" y1="321.6484" y2="321.6484"/><text fill="#000000" font-family="sans-serif" font-size="11" lengthAdjust="spacing" textLength="331" x="13" y="335.8589">constructor(user: User, message: String, rating: Number)</text><!--MD5=[166247bf81aba95c770c3b8fd8e3cb19]
class Video--><rect codeLine="147" fill="#FEFECE" filter="url(#f1634qccv4tcas)" height="150.4375" id="Video" style="stroke:#A80036;stroke-width:1.5;" width="361" x="1788" y="560.8438"/><ellipse cx="1946.75" cy="576.8438" fill="#ADD1B2" rx="11" ry="11" style="stroke:#A80036;stroke-width:1.0;"/><path d="M1949.7188,582.4844 Q1949.1406,582.7813 1948.5,582.9219 Q1947.8594,583.0781 1947.1563,583.0781 Q1944.6563,583.0781 1943.3281,581.4375 Q1942.0156,579.7813 1942.0156,576.6563 Q1942.0156,573.5313 1943.3281,571.875 Q1944.6563,570.2188 1947.1563,570.2188 Q1947.8594,570.2188 1948.5,570.375 Q1949.1563,570.5313 1949.7188,570.8281 L1949.7188,573.5469 Q1949.0938,572.9688 1948.5,572.7031 Q1947.9063,572.4219 1947.2813,572.4219 Q1945.9375,572.4219 1945.25,573.5 Q1944.5625,574.5625 1944.5625,576.6563 Q1944.5625,578.75 1945.25,579.8281 Q1945.9375,580.8906 1947.2813,580.8906 Q1947.9063,580.8906 1948.5,580.625 Q1949.0938,580.3438 1949.7188,579.7656 L1949.7188,582.4844 Z " fill="#000000"/><text fill="#000000" font-family="sans-serif" font-size="12" lengthAdjust="spacing" textLength="35" x="1967.25" y="580.998">Video</text><line style="stroke:#A80036;stroke-width:1.5;" x1="1789" x2="2148" y1="592.8438" y2="592.8438"/><text fill="#000000" font-family="sans-serif" font-size="11" lengthAdjust="spacing" textLength="69" x="1794" y="607.0542">id : ObjectID</text><text fill="#000000" font-family="sans-serif" font-size="11" lengthAdjust="spacing" textLength="92" x="1794" y="619.8589">createdAt : Date</text><text fill="#000000" font-family="sans-serif" font-size="11" lengthAdjust="spacing" textLength="96" x="1794" y="632.6636">fileName : String</text><text fill="#000000" font-family="sans-serif" font-size="11" lengthAdjust="spacing" textLength="67" x="1794" y="645.4683">title : String</text><text fill="#000000" font-family="sans-serif" font-size="11" lengthAdjust="spacing" textLength="109" x="1794" y="658.2729">description : String</text><text fill="#000000" font-family="sans-serif" font-size="11" lengthAdjust="spacing" textLength="120" x="1794" y="671.0776">taggedUsers : [User]</text><text fill="#000000" font-family="sans-serif" font-size="11" lengthAdjust="spacing" textLength="87" x="1794" y="683.8823">likedBy : [User]</text><line style="stroke:#A80036;stroke-width:1.5;" x1="1789" x2="2148" y1="690.4766" y2="690.4766"/><text fill="#000000" font-family="sans-serif" font-size="11" lengthAdjust="spacing" textLength="349" x="1794" y="704.687">constructor(fileName: String, title: String, description: String)</text><!--MD5=[b2c9f3238fa94b5404e5f5b20c2a6e02]
reverse link Post to Reply--><path d="M775.21,187.4937 C846.12,213.9738 929.77,245.2038 992.94,268.7938 " fill="none" id="Post-backto-Reply" style="stroke:#A80036;stroke-width:1.0;"/><polygon fill="none" points="772.33,193.8937,756.05,180.3438,777.23,180.7838,772.33,193.8937" style="stroke:#A80036;stroke-width:1.0;"/><!--MD5=[f3de760017fa4d23a8a573b4516ec558]
reverse link Post to Request--><path d="M631.5,209.1038 C631.5,222.7238 631.5,236.6938 631.5,249.6038 " fill="none" id="Post-backto-Request" style="stroke:#A80036;stroke-width:1.0;"/><polygon fill="none" points="624.5,208.8937,631.5,188.8937,638.5,208.8937,624.5,208.8937" style="stroke:#A80036;stroke-width:1.0;"/><!--MD5=[1e48a6bc340f1525260f255c2412e9ee]
reverse link Post to Review--><path d="M487.95,188.0338 C418.15,214.3837 336.15,245.3338 274.11,268.7537 " fill="none" id="Post-backto-Review" style="stroke:#A80036;stroke-width:1.0;"/><polygon fill="none" points="485.63,181.4238,506.82,180.9138,490.58,194.5237,485.63,181.4238" style="stroke:#A80036;stroke-width:1.0;"/><!--MD5=[6414565bda2732f9b0501b8c9fbd7295]
link Customer to User--><path codeLine="159" d="M792.78,635.8438 C813.64,635.8438 834.76,635.8438 855.62,635.8438 " fill="none" id="Customer-to-User" style="stroke:#A80036;stroke-width:1.0;"/><polygon fill="none" points="855.93,628.8438,875.93,635.8438,855.93,642.8438,855.93,628.8438" style="stroke:#A80036;stroke-width:1.0;"/><text fill="#000000" font-family="sans-serif" font-size="13" lengthAdjust="spacing" textLength="47" x="810.75" y="628.9106">inherits</text><!--MD5=[3cecf68b821d79f5732f952415384414]
reverse link User to Hairdresser--><path codeLine="160" d="M1323.32,635.8438 C1344.67,635.8438 1366.03,635.8438 1386.68,635.8438 " fill="none" id="User-backto-Hairdresser" style="stroke:#A80036;stroke-width:1.0;"/><polygon fill="none" points="1323.3,642.8438,1303.3,635.8438,1323.3,628.8438,1323.3,642.8438" style="stroke:#A80036;stroke-width:1.0;"/><text fill="#000000" font-family="sans-serif" font-size="13" lengthAdjust="spacing" textLength="47" x="1321.5" y="628.9106">inherits</text><!--MD5=[ceec87413ce4b8dff4d62dede51a3e6a]
link Certificate to Hairdresser--><path codeLine="161" d="M1557.5,355.5938 C1557.5,386.5638 1557.5,428.6238 1557.5,470.6938 " fill="none" id="Certificate-to-Hairdresser" style="stroke:#A80036;stroke-width:1.0;"/><polygon fill="#FFFFFF" points="1557.5,483.7438,1561.5,477.7438,1557.5,471.7438,1553.5,477.7438,1557.5,483.7438" style="stroke:#A80036;stroke-width:1.0;"/><text fill="#000000" font-family="sans-serif" font-size="13" lengthAdjust="spacing" textLength="23" x="1558.5" y="404.9106">has</text><text fill="#000000" font-family="sans-serif" font-size="13" lengthAdjust="spacing" textLength="32" x="1523.25" y="375.7054">0..10</text><text fill="#000000" font-family="sans-serif" font-size="13" lengthAdjust="spacing" textLength="8" x="1549.2938" y="472.5823">1</text><!--MD5=[4bbebc64908cdfa32fd3f558461b36b0]
reverse link Hairdresser to Video--><path codeLine="162" d="M1741.63,635.8438 C1756.94,635.8438 1772.4,635.8438 1787.68,635.8438 " fill="none" id="Hairdresser-backto-Video" style="stroke:#A80036;stroke-width:1.0;"/><polygon fill="#FFFFFF" points="1728.23,635.8438,1734.23,639.8438,1740.23,635.8438,1734.23,631.8438,1728.23,635.8438" style="stroke:#A80036;stroke-width:1.0;"/><text fill="#000000" font-family="sans-serif" font-size="13" lengthAdjust="spacing" textLength="23" x="1746.5" y="628.9106">has</text><text fill="#000000" font-family="sans-serif" font-size="13" lengthAdjust="spacing" textLength="8" x="1736.1475" y="632.5717">1</text><text fill="#000000" font-family="sans-serif" font-size="13" lengthAdjust="spacing" textLength="24" x="1756.148" y="648.1977">0..3</text><!--MD5=[8a556daab915b3a1727a01bddba3f44b]
reverse link User to MessageBox--><path codeLine="163" d="M893.94,842.4738 C871.18,866.4137 849.22,889.5038 829.88,909.8438 " fill="none" id="User-backto-MessageBox" style="stroke:#A80036;stroke-width:1.0;"/><polygon fill="#A80036" points="903.04,832.9038,896.0063,834.4934,894.7684,841.5975,901.8021,840.0078,903.04,832.9038" style="stroke:#A80036;stroke-width:1.0;"/><text fill="#000000" font-family="sans-serif" font-size="13" lengthAdjust="spacing" textLength="32" x="866.5" y="875.9106">owns</text><text fill="#000000" font-family="sans-serif" font-size="13" lengthAdjust="spacing" textLength="8" x="828.4143" y="898.7746">1</text><!--MD5=[1bd665d77327fe1ad6e36295f9725dc9]
reverse link User to Photo--><path codeLine="164" d="M1089.5,846.0338 C1089.5,870.9738 1089.5,894.8838 1089.5,915.5838 " fill="none" id="User-backto-Photo" style="stroke:#A80036;stroke-width:1.0;"/><polygon fill="#FFFFFF" points="1089.5,832.9038,1085.5,838.9038,1089.5,844.9038,1093.5,838.9038,1089.5,832.9038" style="stroke:#A80036;stroke-width:1.0;"/><text fill="#000000" font-family="sans-serif" font-size="13" lengthAdjust="spacing" textLength="23" x="1090.5" y="875.9106">has</text><text fill="#000000" font-family="sans-serif" font-size="13" lengthAdjust="spacing" textLength="8" x="1081.3563" y="852.3293">1</text><text fill="#000000" font-family="sans-serif" font-size="13" lengthAdjust="spacing" textLength="23" x="1065.3141" y="904.7606">0..*</text><!--MD5=[a979873be234fc7bf48c20669d7e8809]
reverse link User to PrivateMessage--><path codeLine="165" d="M1282.8,842.5938 C1307.39,868.7738 1331.03,893.9338 1351.38,915.5838 " fill="none" id="User-backto-PrivateMessage" style="stroke:#A80036;stroke-width:1.0;"/><polygon fill="#FFFFFF" points="1273.7,832.9038,1274.8937,840.0154,1281.9174,841.6487,1280.7237,834.5371,1273.7,832.9038" style="stroke:#A80036;stroke-width:1.0;"/><text fill="#000000" font-family="sans-serif" font-size="13" lengthAdjust="spacing" textLength="95" x="1310.5" y="875.9106">sends/receives</text><text fill="#000000" font-family="sans-serif" font-size="13" lengthAdjust="spacing" textLength="8" x="1272.1759" y="852.3293">1</text><text fill="#000000" font-family="sans-serif" font-size="13" lengthAdjust="spacing" textLength="23" x="1316.3754" y="904.7606">0..*</text><!--MD5=[71c3f22da40b74e9686c65a932908ee5]
link Reply to User--><path codeLine="166" d="M1089.5,342.8837 C1089.5,364.3837 1089.5,393.6238 1089.5,425.3338 " fill="none" id="Reply-to-User" style="stroke:#A80036;stroke-width:1.0;"/><polygon fill="#FFFFFF" points="1089.5,438.5638,1093.5,432.5638,1089.5,426.5638,1085.5,432.5638,1089.5,438.5638" style="stroke:#A80036;stroke-width:1.0;"/><text fill="#000000" font-family="sans-serif" font-size="13" lengthAdjust="spacing" textLength="164" x="1090.5" y="404.9106">gives answer to a request</text><text fill="#000000" font-family="sans-serif" font-size="13" lengthAdjust="spacing" textLength="23" x="1064.5234" y="362.6509">0..*</text><text fill="#000000" font-family="sans-serif" font-size="13" lengthAdjust="spacing" textLength="8" x="1081.3438" y="427.6394">1</text><!--MD5=[8683c12888529476f98252142e9b82d7]
link Request to Customer--><path codeLine="167" d="M619.03,362.1138 C609.21,405.6337 595.2,467.7537 583.02,521.7138 " fill="none" id="Request-to-Customer" style="stroke:#A80036;stroke-width:1.0;"/><polygon fill="#FFFFFF" points="580.13,534.5238,585.3518,529.5505,582.7695,522.8176,577.5477,527.7909,580.13,534.5238" style="stroke:#A80036;stroke-width:1.0;"/><text fill="#000000" font-family="sans-serif" font-size="13" lengthAdjust="spacing" textLength="37" x="613.5" y="404.9106">writes</text><text fill="#000000" font-family="sans-serif" font-size="13" lengthAdjust="spacing" textLength="23" x="593.1087" y="381.9593">0..*</text><text fill="#000000" font-family="sans-serif" font-size="13" lengthAdjust="spacing" textLength="8" x="573.4981" y="523.6167">1</text><!--MD5=[d8ad4e08eb22f4b3f0d3f2b0d1198f85]
link Review to Customer--><path codeLine="168" d="M220.14,342.8837 C270.65,386.5938 358.11,462.2838 431.33,525.6538 " fill="none" id="Review-to-Customer" style="stroke:#A80036;stroke-width:1.0;"/><polygon fill="#FFFFFF" points="441.56,534.5038,439.644,527.5518,432.49,526.6466,434.4059,533.5985,441.56,534.5038" style="stroke:#A80036;stroke-width:1.0;"/><text fill="#000000" font-family="sans-serif" font-size="13" lengthAdjust="spacing" textLength="37" x="291.5" y="404.9106">writes</text><text fill="#000000" font-family="sans-serif" font-size="13" lengthAdjust="spacing" textLength="23" x="202.3203" y="362.6509">0..*</text><text fill="#000000" font-family="sans-serif" font-size="13" lengthAdjust="spacing" textLength="8" x="425.1267" y="523.9346">1</text><!--MD5=[b781c2d61cafc82283c96b538e4c2fcf]
@startuml UML DIAGRAM

skinparam TitleFontSize 60

Title: Mobile Hairdresser Search

class User {
  name : String
  surname : String
  email : String
  password : String
  id : ObjectID
  createdAt : Date
  address : String
  tel : String
  fullName : String
  repliedRequests : [Request]
  messageBox : MessageBox

  constructor(name: String, surname: String, email: String,
  password: String)
  uploadPhotoToPost(photo: Photo, post:Post)
  likePhoto(photo: Photo)
  unlikePhoto(photo: Photo)
  tagPhoto(photo: Photo, user: User)
  unTagPhoto(photo: Photo, user: User)
  likeVideo(video: Video)
  unlikeVideo(video: Video)
  replyRequest(request: Request, message: String, ...photos : Photo)
  deleteReply(request: Request, reply: Reply)
  sendPrivateMessage(receiver: user: User, title: String, message: String)
  deletePrivateMessage(privateMessage: PrivateMessage )
  readPrivateMessage(privateMessage: PrivateMessage)
  unreadPrivateMessage(privateMessage: PrivateMessage)
  recallPrivateMessage(privateMessage: PrivateMessage)
}

class Hairdresser{
  availability : String
  experience : String
  serviceArea : Number
  portfolioVideos : [Video]
  portfolioPhotos : [Photo]
  certificates : [Certificate]
  employerReferences : [Reference]
  customerReviews : [Review]
  repliedCustomerRequests : [Request]
  portfolio : Object

  constructor(name: String, surname: String, email: String,
  password: String)
  uploadPhotoToPortfolio(photo: Photo)
  uploadVideoToPortfolio(video: Video)
  deletePhotoFromPortfolio(photo: Photo)
  deleteVideoFromPortfolio(video: Video)
  tagVideo(video: Video, user: User)
  unTagVideo(Video, user: User)
  uploadCertificate(certificate: Certificate)
  deleteCertificate(certificate: Certificate)
}

class Customer {
  profilePhoto : Photo
  info: Object
  customerRequests : [Request]
  hairdresserReviews : [Review]
  constructor(name: String, surname: String, email: String,
  password: String)
  addProfilePhoto(photo: Photo)
  addPhotoToAdviceRequest(photo: Photo, request: Request)
  postRequest(type: String, title: String, message:String, ...photos : photo: Photo)
  deleteRequest(request: Request)
  reviewHairdresser(hairdresser: User, message : String, rating)
  deleteHairdresserReview(hairdresser: User, review : Review)
}

class Certificate {
  id : ObjectID
  fileName : String
  title : String

  constructor(fileName: String, title: String)
}

class MessageBox {
  seenMessages : [PrivateMessage]
  unseenMessages : [PrivateMessage]
  receiveMessage(message: PrivateMessage)
  storeSentMessage(message: PrivateMessage)
  deleteSeenMessage(message: PrivateMessage)
  deleteUnseenMessage(message: PrivateMessage)
  setMessageAsSeen(message: PrivateMessage)
  setMessageAsUnseen(message: PrivateMessage)
}

class Photo {
  id : ObjectID
  createdAt : Date
  fileName : String
  description : String
  taggedUsers : [User]
  likedBy : [User]

  constructor(fileName: String, description: String)
  }

class Post {
  id :String
  date : Date
  user: User
  message: String

  constructor(user: User, message: String)
}

class PrivateMessage {
  id: String
  createdAt: Date
  sender: User
  receiver: User
  title: String
  message: String

  constructor(sender, receiver, title = '', message)
}

class Reply extends Post {
  photos = [Photo]

  constructor(user: User, message: String, ...photos : Photo)
}

class Request extends Post {
  type : String
  title : String
  replies : [Reply]
  photos : [Photo]

  constructor(user: User, type: String, title: String, message: String, ...photos: Photo)
}

class Review extends Post{
  rating : Number

  constructor(user: User, message: String, rating: Number)
}

class Video {
  id : ObjectID
  createdAt : Date
  fileName : String
  title : String
  description : String
  taggedUsers : [User]
  likedBy : [User]

  constructor(fileName: String, title: String, description: String)
}

Customer -|> User : inherits
User <|- Hairdresser : inherits
Certificate "0..10" - -o "1" Hairdresser : has
Hairdresser "1" o- "0..3" Video : has
User *- - "1" MessageBox : owns
User "1" o- - "0..*" Photo : has
User "1" o- - "0..* "PrivateMessage : sends/receives
Reply "0..*" - -o "1" User : gives answer to a request
Request "0..*" - -o "1" Customer : writes
Review "0..*"- -o "1" Customer : writes


@enduml

PlantUML version 1.2021.7(Sun May 23 14:40:07 CEST 2021)
(GPL source distribution)
Java Runtime: OpenJDK Runtime Environment
JVM: OpenJDK 64-Bit Server VM
Default Encoding: UTF-8
Language: en
Country: null
--></g></svg>