<svg  width="180px" viewBox="0 0 48 48" xmlns="http://www.w3.org/2000/svg" xmlns:xlink="http://www.w3.org/1999/xlink" >
<defs>



 <path fill="#6c757d" id="i-431" d="M12.2,14.334l1.2,1.6c-1.054,0.791-2.101,1.07-3.12,1.07c-1.339,0-2.63-0.484-3.831-0.934 C4.287,15.26,2.886,14.82,1.4,15.934l-1.2-1.6c2.438-1.83,4.836-0.93,6.951-0.137C9.313,15.01,10.715,15.449,12.2,14.334z M7.151,9.93C5.036,9.137,2.638,8.236,0.2,10.066l1.2,1.6c1.485-1.113,2.887-0.674,5.049,0.137c1.201,0.449,2.492,0.934,3.831,0.934 c1.02,0,2.066-0.279,3.12-1.07l-1.2-1.6C10.715,11.182,9.313,10.74,7.151,9.93z M7.151,19.063c-2.115-0.791-4.514-1.691-6.951,0.137 l1.2,1.6c1.485-1.113,2.887-0.674,5.049,0.137c1.201,0.451,2.492,0.936,3.831,0.936c1.02,0,2.066-0.281,3.12-1.072l-1.2-1.6 C10.715,20.316,9.313,19.875,7.151,19.063z M42.8,16c0,3.309-2.691,6-6,6s-6-2.691-6-6s2.691-6,6-6S42.8,12.691,42.8,16z M40.8,16 c0-2.205-1.794-4-4-4s-4,1.795-4,4s1.794,4,4,4S40.8,18.205,40.8,16z M47.8,16c0,4.561-2.509,8.297-6.287,10 C40.674,28.477,37.8,37.297,37.8,42v1H24.501l1.568-1.684c0.027-0.029,2.83-3.064,4.813-7.709c1.625-3.809,1.222-6.311,1.046-7.027 c-6.864-1.008-14.994-3.492-15.422-3.625L15.8,22.738V9.262l0.706-0.217C17.043,8.879,29.73,5,36.8,5C42.659,5,47.8,10.141,47.8,16z M39.149,26.766C38.396,26.918,37.612,27,36.8,27c-0.858,0-1.801-0.059-2.793-0.16c0.2,1.42,0.217,4.033-1.285,7.553 c-1.234,2.893-2.743,5.174-3.815,6.607h6.928C36.114,36.588,38.07,30.082,39.149,26.766z M45.8,16c0-5.15-4.752-9-9-9 c-5.853,0-16.213,2.926-19,3.744v10.51C20.588,22.074,30.95,25,36.8,25C42.015,25,45.8,21.215,45.8,16z"/>
</defs>

<use x="0" y="0" xlink:href="#i-431"/>

</svg>
