<svg data-v-fde0c5aa="" xmlns="http://www.w3.org/2000/svg" viewBox="25 130 250 40" class="iconLeft"><!----><defs data-v-fde0c5aa=""><!----></defs><rect data-v-fde0c5aa="" fill="#156EAC" x="0" y="0" width="300px" height="300px" class="logo-background-square"></rect><defs data-v-fde0c5aa=""><!----></defs><g data-v-fde0c5aa="" id="bb5cf4ce-06e9-4c8c-abc9-19dc57850130" fill="#ffffff" transform="matrix(1.9157142942426022,0,0,1.9157142942426022,72.58567233900021,133.16087051320247)"><path d="M0.87 3.98L0.87 13.78L2.66 13.78L2.66 5.94L2.83 5.94L4.86 13.78L7.57 13.78L9.60 5.94L9.77 5.94L9.77 13.78L11.56 13.78L11.56 3.98L8.34 3.98L6.30 11.84L6.13 11.84L4.09 3.98ZM12.85 10.30C12.85 12.49 14.45 13.97 16.49 13.97C18.54 13.97 20.13 12.49 20.13 10.30C20.13 8.12 18.54 6.64 16.49 6.64C14.45 6.64 12.85 8.12 12.85 10.30ZM14.62 10.30C14.62 9.07 15.37 8.26 16.49 8.26C17.61 8.26 18.37 9.07 18.37 10.30C18.37 11.54 17.61 12.35 16.49 12.35C15.37 12.35 14.62 11.54 14.62 10.30ZM21.39 3.98L21.39 13.78L23.13 13.78L23.13 12.80L23.32 12.80C23.69 13.38 24.30 13.97 25.54 13.97C27.27 13.97 28.73 12.43 28.73 10.30C28.73 8.18 27.27 6.64 25.54 6.64C24.30 6.64 23.69 7.22 23.32 7.81L23.16 7.81L23.16 3.98ZM25.06 8.20C26.12 8.20 26.96 8.96 26.96 10.30C26.96 11.65 26.12 12.40 25.06 12.40C23.97 12.40 23.16 11.62 23.16 10.30C23.16 8.99 23.97 8.20 25.06 8.20ZM29.62 4.82C29.62 5.53 30.17 6.02 30.87 6.02C31.57 6.02 32.12 5.53 32.12 4.82C32.12 4.10 31.57 3.61 30.87 3.61C30.17 3.61 29.62 4.10 29.62 4.82ZM31.75 6.83L29.99 6.83L29.99 13.78L31.75 13.78ZM35.20 3.98L33.43 3.98L33.43 13.78L35.20 13.78ZM36.46 10.25C36.46 12.40 37.95 13.97 40.03 13.97C41.89 13.97 42.70 12.99 43.18 12.26L41.66 11.40C41.43 11.89 40.98 12.43 40.00 12.43C38.99 12.43 38.33 11.72 38.29 10.82L43.43 10.82L43.43 10.14C43.43 8.05 42.01 6.64 40.00 6.64C37.95 6.64 36.46 8.15 36.46 10.25ZM38.30 9.59C38.42 8.76 38.99 8.18 39.98 8.18C40.89 8.18 41.51 8.74 41.61 9.59ZM46.42 6.83L44.69 6.83L44.69 13.78L46.45 13.78L46.45 9.88C46.45 8.90 47.10 8.43 47.99 8.43L49.03 8.43L49.03 6.80L48.33 6.80C47.45 6.80 46.86 7.07 46.59 7.84L46.42 7.84ZM53.87 3.98L53.87 13.78L55.72 13.78L55.72 9.73L59.84 9.73L59.84 7.99L55.72 7.99L55.72 5.71L60.12 5.71L60.12 3.98ZM63.03 6.83L61.29 6.83L61.29 13.78L63.06 13.78L63.06 9.88C63.06 8.90 63.70 8.43 64.60 8.43L65.63 8.43L65.63 6.80L64.93 6.80C64.05 6.80 63.46 7.07 63.20 7.84L63.03 7.84ZM66.30 4.82C66.30 5.53 66.85 6.02 67.55 6.02C68.25 6.02 68.80 5.53 68.80 4.82C68.80 4.10 68.25 3.61 67.55 3.61C66.85 3.61 66.30 4.10 66.30 4.82ZM68.43 6.83L66.67 6.83L66.67 13.78L68.43 13.78ZM69.86 8.79C69.86 10.08 70.74 10.68 72.69 10.95L72.90 10.98C73.65 11.07 74.37 11.13 74.37 11.65C74.37 12.19 73.71 12.49 73.02 12.49C72.13 12.49 71.20 12.04 70.77 11.13L69.36 12.01C70 12.99 71.06 13.97 72.98 13.97C74.83 13.97 76.10 12.98 76.10 11.62C76.10 10.35 75.28 9.79 73.05 9.49L72.84 9.46C72.11 9.37 71.60 9.28 71.60 8.78C71.60 8.36 71.96 8.09 72.59 8.09C73.51 8.09 74.21 8.62 74.75 9.25L76.02 8.25C75.08 7.27 74.07 6.64 72.65 6.64C71.04 6.64 69.86 7.50 69.86 8.79ZM76.83 10.25C76.83 12.40 78.33 13.97 80.40 13.97C82.26 13.97 83.08 12.99 83.55 12.26L82.04 11.40C81.80 11.89 81.35 12.43 80.37 12.43C79.37 12.43 78.71 11.72 78.67 10.82L83.80 10.82L83.80 10.14C83.80 8.05 82.39 6.64 80.37 6.64C78.33 6.64 76.83 8.15 76.83 10.25ZM78.68 9.59C78.79 8.76 79.37 8.18 80.36 8.18C81.27 8.18 81.89 8.74 81.98 9.59ZM91.81 13.78L91.81 6.83L90.05 6.83L90.05 10.42C90.05 11.65 89.45 12.35 88.31 12.35C87.30 12.35 86.74 11.77 86.74 10.81L86.74 6.83L84.98 6.83L84.98 10.98C84.98 12.78 86.14 13.89 87.68 13.89C88.96 13.89 89.60 13.30 89.88 12.66L90.08 12.66L90.08 13.78ZM95.23 6.83L93.49 6.83L93.49 13.78L95.26 13.78L95.26 9.88C95.26 8.90 95.90 8.43 96.80 8.43L97.83 8.43L97.83 6.80L97.13 6.80C96.25 6.80 95.66 7.07 95.40 7.84L95.23 7.84Z"></path></g><defs data-v-fde0c5aa=""><!----></defs><g data-v-fde0c5aa="" id="46e40fc5-b511-4c31-b6c3-24d6d37a9c1d" stroke="none" fill="#F6575E" transform="matrix(0.3354227759412258,0,0,0.3354227759412258,33.85498639192513,133.22890342763813)"><path d="M44.534 94.377h-.004l.003-3.701h.001c2.149 0 3.397-2.747 4.067-5.049 2.553-8.788.302-20.02-1.19-21.842-.046.045-.1.104-.159.176-4.73 5.69-10.871 9.251-15.266 8.862-1.899-.168-3.414-1.089-4.268-2.594-1.075-1.893-1.628-4.636-2.162-7.289-.376-1.869-1.258-6.244-2.154-6.489-1.618-.442-3.364-1.923-4.342-3.683-.715-1.285-.917-2.557-.583-3.679.372-1.257 1.603-3.508 3.436-6.796.82-1.469 1.593-2.857 2.072-3.82 1.148-2.308.896-5.656.381-6.637-1.262-2.403-1.558-13.008.836-15.773L28 18.487l-1.398-1.212 1.4 1.211c-1.076 1.32-1.162 9.975-.356 11.632 1.124 2.141 1.259 6.778-.347 10.005-.517 1.041-1.312 2.466-2.152 3.972-1.196 2.148-2.836 5.088-3.121 6.047-.128.571 1.243 2.434 2.354 2.737 3.097.846 3.928 4.967 4.807 9.328.476 2.367.97 4.814 1.751 6.192.158.276.471.652 1.375.732 2.631.243 7.761-2.329 12.092-7.54 1.875-2.257 3.745-1.671 4.462-1.311 4.632 2.309 5.517 17.078 3.618 25.13-1.749 7.411-5.288 8.967-7.951 8.967M50.657 51.125c4.07 3.04 6.539 10.318 14.021 10.395 7.482.078 13.768-5.457 14.906-17.475 1.14-12.019-7.732-12.096-7.732-12.096L50.657 51.125zM51.186 53.607a1.354 1.354 0 1 1-2.707.001 1.354 1.354 0 0 1 2.707-.001"></path><path d="M78.428 17.275C68.939 3.288 52.925 2.771 40.075 11.068c0 0 .165 1.213.328 2.073l.305 1.53c.109.588.281 1.242.421 1.955.183.709.359 1.472.588 2.268.2.801.478 1.626.729 2.485.294.848.571 1.727.914 2.602.307.885.699 1.756 1.047 2.642.403.865.755 1.753 1.181 2.594.21.422.412.844.607 1.265.194.42.429.813.628 1.219l.604 1.188c.211.382.417.756.619 1.119.395.733.757 1.44 1.132 2.07.374.629.684 1.234.977 1.761.312.51.565.976.778 1.356.423.764.643 1.225.643 1.225s-.4-.302-1.063-.875c-.331-.288-.738-.634-1.181-1.052a32.355 32.355 0 0 1-1.423-1.478c-.251-.279-.529-.56-.791-.87-.255-.317-.519-.645-.788-.982l-.816-1.055c-.254-.378-.514-.763-.78-1.155-.541-.78-1.032-1.63-1.509-2.508-.505-.862-.892-1.81-1.332-2.727-.362-.956-.77-1.891-1.042-2.862-2.464-7.087-2.566-12.592-2.531-13.896-3.695-.156-12.026-.083-12.974 3.674-3.23 12.811-.494 33.277 35.422 39.033l12.85 1.234c0-.001 14.3-23.637 4.81-37.626z"></path><path d="M38.336 10.662a3.76 3.76 0 0 0-.015.297c1.07.045 1.754.109 1.754.109s-1.575-.989-1.739-.406z"></path></g><!----></svg>
